<?xml version="1.0" encoding="UTF-8" standalone="no"?>
<svg width="185px" height="226px" viewBox="0 0 185 226" version="1.1" xmlns="http://www.w3.org/2000/svg" xmlns:xlink="http://www.w3.org/1999/xlink">
    <!-- Generator: Sketch 3.7.2 (28276) - http://www.bohemiancoding.com/sketch -->
    <title>footer</title>
    <desc>Created with Sketch.</desc>
    <defs></defs>
    <g id="General-page" stroke="none" stroke-width="1" fill="none" fill-rule="evenodd">
        <g id="footer-slices" transform="translate(-24.000000, -83.000000)" fill="#01080F">
            <g id="footer" transform="translate(0.000000, 12.000000)">
                <g id="alga-left" transform="translate(24.000000, 71.966292)">
                    <path d="M20.2633277,225.717345 C20.2633277,225.717345 21.2195543,222.911686 20.2633277,205.013544 C19.7425889,195.26663 -0.319283871,160.795309 0.638567767,154.688829 C1.5964194,148.58235 7.02424532,144.032938 10.8556517,140.69064 C13.9559925,137.986081 21.0027787,126.98437 20.9155654,124.040876 C20.7567032,118.679203 17.842112,113.705864 16.3288522,110.457718 C15.7288169,109.169768 14.2440128,106.031222 14.8155924,103.370857 C15.8306683,98.6462809 16.9976242,97.4651277 21.3962868,92.7405556 C24.0510136,89.8891326 25.3836448,88.8466998 25.8619945,86.7976103 C26.5087706,84.0270389 24.1554688,79.8972938 22.9884404,71.7495566 C22.6887526,69.6572532 22.3562342,67.4590763 22.9884404,64.4005072 C23.6589868,61.1564507 23.9692633,60.8339638 26.819847,58.1013219 C28.6035693,56.3914004 33.8440924,54.251817 33.8440924,51.1022272 C33.8440924,47.9526373 26.819847,43.7531777 26.3163669,40.2536295 C25.8128868,36.7540813 27.391762,34.1005548 28.0969826,32.5546253 C29.3741181,29.7549882 31.6091053,25.9054861 31.9283891,23.455803 C32.247673,21.0061198 30.9705375,19.6063008 29.693402,17.1566177 C28.4162664,14.7069345 27.7776987,12.6072068 28.0969826,8.757704 C28.4162664,4.90820123 30.0126858,0.358790318 30.0126858,0.358790318 C30.0126858,0.358790318 28.7840207,4.90820223 28.4162664,10.157523 C28.0485122,15.4068437 32.3647152,19.6063022 32.6839991,22.055984 C33.003283,24.5056658 30.9705375,28.3551676 29.693402,31.1548063 C28.4162664,33.9544451 27.2148595,37.104036 27.655921,39.55372 C28.0969826,42.003404 29.693402,43.0532682 30.6512536,44.1031324 C31.9202795,45.4940627 33.2950294,46.2679989 34.4826602,47.6026798 C35.0052141,48.1899352 36.7176474,49.3524535 36.0790796,52.1520914 C35.4405119,54.9517293 34.1633763,55.301684 31.2898214,58.1013219 C28.4162664,60.9009598 26.3163669,62.3135219 26.3163669,66.1502809 C26.3163669,70.3497377 28.2518894,77.8581979 28.4162656,78.3986966 C29.693402,82.5981535 30.3981765,86.9678036 29.8552537,88.547384 C29.3741172,89.947203 29.5183226,90.0397031 27.6559218,92.1499835 C26.3157566,93.6685205 22.4795827,97.854958 21.3962868,98.9415669 C18.9243732,101.42104 19.0471972,104.593697 20.2633277,106.91429 C24.4415148,114.887013 26.049954,118.90416 26.3163663,124.04088 C26.7010472,131.45795 18.7122831,140.69064 16.328852,143.490278 C13.9454209,146.289916 6.60061496,151.417385 7.66281344,156.788558 C9.21855679,164.655417 15.2802517,173.586385 17.8798971,178.485751 C19.2844709,181.132852 25.1182314,188.284484 29.0063634,201.489492 C32.8944954,214.694501 32.6839992,225.717345 32.6839992,225.717345 L20.2633277,225.717345 Z" id="algue-l1"></path>
                    <path d="M34.4766604,225.404969 C34.4766604,225.404969 33.2429785,210.776059 31.6065272,204.37591 C30.9785763,201.919999 21.1430098,172.852905 20.8147205,171.57953 C19.3485169,165.892391 16.9158506,158.181404 17.2775323,153.448116 C17.5065738,150.450677 17.8149973,149.186131 18.6018636,147.358221 C19.4738107,145.332666 20.3814434,144.101272 22.8756137,142.586405 C27.6205836,139.704485 33.4521583,137.290487 34.4766608,131.961476 C35.0110849,129.181636 32.60223,127.14297 31.6065266,125.946232 C30.3789635,124.470821 29.1731344,123.241066 27.793452,119.220248 C27.3009902,117.785064 26.8933981,115.661209 27.3050268,113.030184 C27.7561536,110.146698 28.9055352,109.235255 30.2560311,108.672673 C31.6065271,108.110091 34.7758307,107.690655 38.5491675,108.110091 C45.0816751,108.836229 47.5192592,108.762204 48.2301849,106.828953 C48.9411105,104.895701 46.1923125,102.391376 44.0139066,99.9892041 C43.1837396,99.0737621 41.0274923,96.7691493 41.0274923,92.9408706 C41.0274923,89.1125919 48.8973616,83.8233437 50.4607488,80.6943806 C51.9635451,77.686684 49.5962585,70.9123065 47.3777239,66.3153344 C44.565761,60.4887341 41.4770021,51.5302004 42.3394023,47.3603217 C42.7917291,45.1732303 44.5901852,41.1234581 45.3383114,37.3141931 C46.062938,33.6245814 45.6646035,30.1383867 45.6646035,30.1383867 C45.6646035,30.1383867 46.1937268,33.3674996 45.6646035,36.9554028 C45.1354802,40.5433059 43.1416466,45.5282563 42.9504014,47.0015314 C42.670955,49.1542733 42.8696002,51.0641817 43.5092943,53.8185474 C44.4072888,57.6850913 46.2360726,62.1023172 48.2301849,65.6842572 C50.6240768,69.9843047 53.858808,78.7177504 51.7220419,81.7733688 C49.3925083,85.1046484 45.2775385,88.8270896 44.0139066,90.8385625 C41.5912077,94.6950601 44.1508275,97.2234354 46.1937278,99.1824 C48.8657899,101.744676 51.7168945,105.033204 52.0698366,106.828953 C52.4227786,108.624701 51.9143276,109.702148 50.4607493,110.430454 C48.3343439,111.495876 44.7610404,111.649767 40.3749695,111.239823 C37.6563431,110.985727 33.5123816,110.707315 32.1500386,111.960945 C31.067528,112.957072 30.6704357,115.284438 31.137421,116.797921 C32.1500386,120.079779 33.1943576,121.430148 36.2654829,124.572998 C37.9697054,126.317021 39.3212102,128.424712 39.3212102,132.512514 C39.3212102,134.138696 38.9305311,136.256649 37.8332205,137.840242 C36.135623,140.290145 31.4103497,143.462988 30.2560311,144.203348 C24.5316224,147.874883 23.9960937,148.600239 22.8756134,152.127095 C21.7551331,155.65395 26.4070933,169.632248 27.793452,172.832322 C30.7021376,179.54632 32.3863509,183.346852 34.8304369,187.918386 C37.5147744,192.939298 37.8332201,192.489921 42.3394028,204.833064 C46.8455856,217.176207 46.9520044,225.404969 46.9520044,225.404969 L34.4766604,225.404969 Z" id="algue-l2"></path>
                    <path d="M79.310657,225.404969 C79.310657,225.404969 78.4166742,184.05215 78.4166742,181.131667 C78.4166742,173.769564 74.7025655,170.066611 71.9036817,166.96859 C69.1047979,163.870569 65.9808496,159.806662 63.1396777,156.604744 C60.2985058,153.402827 54.2782601,144.416638 54.2782601,140.287014 C54.2782601,136.157391 56.7944929,133.877487 58.8748812,133.111208 C63.2311428,131.506645 71.1098024,130.601426 71.9036818,126.865803 C72.6975612,123.13018 68.2015205,122.009494 65.10115,119.648405 C62.0007795,117.287315 58.8180577,114.614089 57.2622502,112.688614 C56.4133762,111.638043 54.0725409,107.880864 54.6969911,104.356473 C55.3214413,100.832082 57.0606108,98.3040426 59.4889997,96.5151223 C62.332224,94.4206054 66.4267094,92.8191823 68.2015208,91.856876 C69.1459964,91.3447795 72.1099352,90.2377632 74.7025651,89.2654445 C81.548118,86.698144 83.696392,84.2386474 84.3202343,81.0069577 C84.9440767,77.775268 81.0981062,74.4914829 77.5002063,71.0961188 C72.7962629,66.6569736 68.7462057,62.5836036 71.2464402,57.531776 C72.6822766,54.630609 75.3897018,52.2776483 77.2666997,50.3148794 C79.1436975,48.3521106 79.9055223,46.5137924 80.4595385,44.5413622 C81.4926919,40.8630885 80.7788224,35.5202415 80.7788224,35.5202415 C80.7788224,35.5202415 82.0305963,43.2190757 79.8209707,47.4281208 C78.1160739,50.6757243 77.5002067,50.6757243 75.999398,52.4799484 C74.4985894,54.2841725 72.0461155,56.8962644 71.5195898,59.3360001 C70.8559394,62.4111232 74.3147841,66.8021469 78.0137443,69.9116569 C84.3202349,75.2131726 86.0966504,78.3186883 86.0966504,80.5412585 C86.0966504,82.7638286 84.4710479,85.8029494 83.4221505,86.5890812 C77.5002063,91.0274835 72.362394,92.6456788 68.7462063,94.3832761 C64.7011062,96.6296591 59.4848761,98.8609807 58.8748812,104.356473 C58.5029465,107.707261 61.3726815,111.349493 65.1011498,113.721551 C68.8296182,116.093609 73.4821511,118.714185 75.999399,121.01573 C77.679523,122.551884 78.0137443,124.551723 78.0137443,126.34244 C78.0137443,135.26716 66.148585,134.98044 63.1396777,137.071073 C60.1307704,139.161705 62.2436204,142.935981 62.6935985,143.803969 C63.3686094,145.106034 64.992034,146.828737 66.9568751,149.027773 C72.362394,155.077589 69.1446361,149.027774 71.2464396,149.027776 C73.1202425,149.027778 69.9831026,151.573249 72.3623941,154.21545 C74.7416856,156.857651 80.2671447,163.187771 82.8881014,165.925938 C87.1735609,170.403044 88.4291462,177.157554 88.4291462,183.254892 C88.4291462,210.174662 91.4719374,225.404967 91.4719374,225.404967 L79.310657,225.404969 Z" id="algue-l3"></path>
                    <path d="M117.921559,225.265041 C117.921559,225.265041 116.438729,196.575408 116.438729,194.517301 C116.438729,189.329119 112.769691,186.4993 110.176824,184.536373 C107.583957,182.573446 104.482328,179.489257 101.750688,177.232819 C99.0190483,174.976381 99.6509774,175.509661 95.7732177,171.89322 C94.0462181,170.282601 93.2308938,167.880254 93.2308938,164.970048 C93.2308938,162.059842 96.2405644,160.257769 98.2407502,159.717761 C102.42907,158.587002 109.41355,158.907899 110.176824,156.275351 C110.940098,153.642803 106.617388,152.853039 103.636542,151.189145 C100.655696,149.52525 97.5956742,147.641388 96.0998458,146.284478 C95.2836974,145.544125 93.0331054,142.896386 93.633482,140.412696 C94.2338585,137.929006 95.9059799,136.14746 98.2407501,134.886781 C100.974363,133.410745 104.910999,132.282198 106.617388,131.604047 C107.525452,131.243165 110.375126,130.463034 112.867805,129.777827 C119.44945,127.968613 121.514904,126.23537 122.114696,123.95795 C122.714489,121.680531 119.164234,119.040362 115.557593,116.973637 C111.012793,114.369316 106.458898,110.63675 109.54492,107.54726 C110.9761,106.114471 112.310009,105.432384 114.114645,104.049192 C115.919281,102.666 113.820747,104.582835 111.808965,106.100131 C109.797183,107.617428 109.327295,108.448717 109.217705,108.807658 C108.3801,111.551074 112.486533,114.162847 116.051333,116.138929 C122.445415,119.683373 123.882147,122.391674 123.882147,123.957952 C123.882147,125.524229 122.336336,127.892934 121.327875,128.446933 C115.634233,131.57474 110.617852,132.159928 107.141075,133.384438 C103.251921,134.967497 98.2367855,136.539942 97.650307,140.412696 C97.2927111,142.774046 100.051813,145.34078 103.636542,147.012404 C107.221271,148.684028 111.694441,150.530787 114.114644,152.152719 C115.729996,153.235269 116.051333,154.644585 116.051333,155.906529 C116.051333,162.195911 104.643597,161.993855 101.750688,163.467154 C98.8577795,164.940454 100.889175,167.600241 101.321806,168.211925 C101.970794,169.129509 103.531633,170.343523 105.420726,171.893216 C110.617852,176.15661 107.524145,171.893217 109.54492,171.893218 C111.346484,171.89322 108.330287,173.687051 110.617852,175.549048 C112.905418,177.411046 118.217861,181.871975 120.737775,183.801601 C124.858022,186.956683 126.065203,191.716685 126.065203,196.013569 C126.065203,214.984326 128.990689,225.717345 128.990689,225.717345 L117.921559,225.265041 Z" id="algue-l4"></path>
                    <path d="M178.798974,211.686288 C182.213196,206.77502 184.736752,203.284505 183.907517,197.693465 C182.949665,191.23524 171.819768,185.571021 171.819768,179.395159 C171.819768,173.833528 177.867515,164.83516 177.978283,160.020482 C178.139058,153.032242 175.063242,153.017173 171.819767,151.050724 C166.392805,147.760474 160.765418,144.840772 162.515496,142.080966 C163.847108,139.981065 169.355056,137.720341 171.10087,135.809034 C172.846683,133.897726 172.617506,132.685978 168.261505,128.446934 C166.515692,126.747994 165.024805,125.590397 164.249077,122.892577 C163.473348,120.194757 166.841611,118.759595 171.819767,115.889273 C173.244119,115.068015 177.978283,113.736531 178.798974,109.431047 C179.619665,105.125563 173.047505,99.9093644 171.819767,97.5909665 C169.539742,93.2854827 173.690433,88.9799989 173.239661,83.9569344 C172.985322,81.1227677 168.843444,78.5750797 165.845496,74.9871765 C162.847548,71.3992733 161.533411,69.6414775 161.056238,67.4525798 C159.961226,62.4295153 164.249077,52.0245961 164.249077,52.0245961 C164.249077,52.0245961 159.185984,64.0248445 160.280509,67.8113701 C161.732465,72.8344346 164.750484,75.7047571 166.346903,77.4987087 C167.812746,79.1459267 171.465192,82.5217732 171.819767,84.3157247 C172.174343,86.1096763 168.176738,94.5881688 169.539742,97.5909665 C171.819767,102.614031 177.978283,106.560724 176.563987,109.431047 C175.274152,112.048776 171.436512,112.728319 169.539742,113.736531 C162.789742,117.324434 161.056238,119.118386 161.732465,123.423869 C162.408693,127.729353 168.261505,130.885707 168.261505,133.376354 C168.261505,135.867001 163.473348,137.057902 161.732465,138.586209 C159.991583,140.114517 158.828553,142.439756 160.280509,145.310079 C161.732465,148.180401 163.240061,148.679231 166.346903,151.050724 C171.273322,154.811124 176.056907,155.887495 174.009716,161.455643 C171.962526,167.023791 167.304755,172.936933 167.304755,180.83032 C167.304755,186.479363 177.978283,194.105562 177.978283,198.769836 C177.978283,203.43411 173.198696,209.174755 166.346903,216.350562 C162.578549,220.297117 156.129819,225.147823 156.129819,225.147823 L168.261505,225.147823 C168.261505,225.147823 174.736286,217.530359 178.798974,211.686288 Z" id="algue-l6"></path>
                    <path d="M122.80969,225.376383 C122.80969,225.376383 133.460664,210.251129 133.460664,204.510484 C133.460664,198.01079 130.267824,194.823145 126.755702,188.72371 C124.979303,185.638671 122.285727,179.384305 121.647159,175.448468 C121.008592,171.512631 121.952681,170.212106 122.80969,168.946103 C123.759364,167.543212 124.747905,166.690354 127.46441,165.641163 C132.632355,163.645158 139.628837,161.917383 140.744665,158.226532 C141.326729,156.301227 138.058075,154.945105 136.973612,154.11625 C135.636622,153.094386 134.323303,152.242663 132.820633,149.457862 C132.284273,148.463859 131.840347,146.992886 132.288669,145.170649 C132.78001,143.173559 134.03185,142.542297 135.502731,142.152655 C136.973613,141.763013 140.425434,141.472514 144.535133,141.763013 C151.64996,142.265934 154.304835,142.214664 155.079134,140.875702 C155.853433,139.536741 152.859602,137.802255 150.487009,136.138521 C149.582839,135.50449 147.23438,133.908325 147.23438,131.256875 C147.23438,128.605425 155.805784,124.942114 157.508534,122.775008 C159.145293,120.69189 156.566982,115.999984 154.150683,112.816141 C151.088057,108.780662 150.487009,105.138464 150.487009,105.138464 C150.487009,105.138464 151.360112,108.130977 155.079134,112.379059 C157.686422,115.357254 161.209503,121.406002 158.882261,123.52231 C156.345069,125.82954 151.863283,128.407688 150.487009,129.800825 C147.848346,132.471819 150.636135,134.222961 152.861143,135.579732 C155.771398,137.354354 158.876655,139.631975 159.261059,140.875702 C159.645463,142.11943 159.091688,142.865665 157.508535,143.370087 C155.192578,144.107994 151.300744,144.214578 146.52369,143.930653 C143.562721,143.754667 139.049359,143.56184 137.565574,144.430098 C136.386566,145.120012 135.954077,146.731936 136.46269,147.780168 C137.565574,150.053169 138.702986,150.988429 142.047877,153.165153 C143.904017,154.373057 146.071488,155.832834 146.071488,158.664029 C146.071488,159.790316 144.950492,161.257201 143.755365,162.353991 C141.906441,164.050783 136.759948,166.248281 135.502731,166.761051 C129.268038,169.303941 129.40288,169.612712 127.46441,171.51263 C125.52594,173.412547 125.478566,178.31879 133.460664,189.80008 C136.821841,194.63473 138.752469,199.294398 139.207773,204.510484 C139.677546,209.892338 136.481357,211.68629 134.418514,218.503306 C132.355672,225.320322 133.460664,225.376383 133.460664,225.376383 L122.80969,225.376383 Z" id="algue-l5"></path>
                </g>
            </g>
        </g>
    </g>
</svg>