<?xml version="1.0" encoding="UTF-8" standalone="no"?>
<svg width="185px" height="226px" viewBox="0 0 185 226" version="1.1" xmlns="http://www.w3.org/2000/svg" xmlns:xlink="http://www.w3.org/1999/xlink">
    <!-- Generator: Sketch 3.7.2 (28276) - http://www.bohemiancoding.com/sketch -->
    <title>footer</title>
    <desc>Created with Sketch.</desc>
    <defs></defs>
    <g id="General-page" stroke="none" stroke-width="1" fill="none" fill-rule="evenodd">
        <g id="footer-slices" transform="translate(-569.000000, -61.000000)">
            <g id="footer" transform="translate(0.000000, 12.000000)">
                <g id="alga-right" transform="translate(667.550003, 162.466292) scale(-1, 1) translate(-667.550003, -162.466292) translate(583.550003, 48.966292)" fill="#01080F">
                    <path d="M20.5931607,226.708036 C20.5931607,226.708036 21.5649521,223.890063 20.5931607,205.913364 C20.0639456,196.123671 -0.324480962,161.501052 0.648961949,155.367771 C1.62240486,149.23449 7.13858133,144.66511 11.0323528,141.308142 C14.1831589,138.591713 21.344648,127.541714 21.2560151,124.585302 C21.0945671,119.200096 18.132534,114.204928 16.5946424,110.942525 C15.9848401,109.648923 14.4758674,106.496601 15.0567508,103.82456 C16.0883495,99.0792473 17.2743002,97.8929099 21.7445614,93.1476013 C24.4425,90.2836632 25.7968229,89.2366551 26.2829589,87.178572 C26.9402628,84.3958403 24.5486555,80.2479694 23.362631,72.0644712 C23.0580651,69.9629844 22.7201342,67.7551596 23.362631,64.6831661 C24.0440921,61.4248712 24.3594191,61.1009689 27.2564027,58.3563332 C29.0691593,56.6389068 34.3949841,54.4899325 34.3949841,51.3265189 C34.3949841,48.1631053 27.2564027,43.9452139 26.7447273,40.4303059 C26.2330518,36.9153978 27.837627,34.2502248 28.5543266,32.6975101 C29.8522505,29.8855852 32.1236173,26.0191874 32.4480983,23.5587523 C32.7725793,21.0983173 31.4746554,19.6923545 30.1767315,17.2319195 C28.8788076,14.7714844 28.2298456,12.6625408 28.5543266,8.79614227 C28.8788076,4.92974372 30.5012124,0.360365078 30.5012124,0.360365078 C30.5012124,0.360365078 29.2525479,4.92974472 28.8788076,10.2021051 C28.5050672,15.4744655 32.8915266,19.6923558 33.2160075,22.1527895 C33.5404885,24.6132232 31.4746554,28.4796207 30.1767315,31.2915472 C28.8788076,34.1034738 27.6578449,37.2668886 28.1060858,39.7273244 C28.5543266,42.1877603 30.1767315,43.2422324 31.1501744,44.2967046 C32.4398567,45.6937398 33.8369838,46.4710729 35.0439461,47.8116118 C35.5750057,48.4014447 37.3153129,49.5690653 36.666351,52.3809911 C36.017389,55.1929168 34.7194651,55.5444075 31.7991363,58.3563332 C28.8788076,61.168259 26.7447273,62.5870209 26.7447273,66.4406197 C26.7447273,70.6585083 28.7117549,78.1999237 28.8788067,78.7427948 C30.1767315,82.9606834 30.8929779,87.3495123 30.3412177,88.9360255 C29.8522496,90.3419884 29.9988023,90.4348945 28.1060866,92.5544371 C26.744107,94.0796391 22.8454905,98.2844512 21.7445613,99.3758293 C19.2324116,101.866185 19.3572348,105.052767 20.5931607,107.383545 C24.8393576,115.391261 26.4739779,119.42604 26.7447266,124.585305 C27.1356692,132.034929 19.0168692,141.308142 16.5946422,144.120068 C14.1724152,146.931994 6.70805539,152.081968 7.78754363,157.476715 C9.36861034,165.378103 15.5289735,174.34827 18.1709342,179.26914 C19.5983707,181.927858 25.5270893,189.11088 29.4785098,202.373846 C33.4299302,215.636812 33.2160077,226.708036 33.2160077,226.708036 L20.5931607,226.708036 Z" id="algue-l1"></path>
                    <path d="M45.0378486,226.390662 C45.0378486,226.390662 43.7840856,209.600122 42.1209973,202.25426 C41.482825,199.435453 31.4871617,166.073283 31.1535287,164.611749 C29.6634592,158.084254 27.1911956,149.233859 27.5587646,143.801161 C27.7915342,140.360807 28.104978,138.909407 28.9046524,136.811397 C29.7907925,134.486537 30.713199,133.073187 33.2479677,131.334477 C38.0701732,128.026713 43.9966704,125.256012 45.037849,119.139564 C45.5809721,115.948964 43.1329074,113.609055 42.1209967,112.235482 C40.8734521,110.542059 39.6479953,109.130589 38.2458554,104.515639 C37.7453776,102.868386 37.3311509,100.430702 37.7494799,97.4109053 C38.2079499,94.1013428 39.3760403,93.0552214 40.7485187,92.4095096 C42.1209972,91.7637978 45.3418886,91.2823848 49.1766453,91.7637978 C55.8154847,92.5972337 58.2927462,92.51227 59.0152438,90.2933534 C59.7377414,88.0744368 56.9442003,85.2000619 54.7303358,82.4429348 C53.8866558,81.3922232 51.6953106,78.7470712 51.6953106,74.3531098 C51.6953106,69.9591485 59.6932804,63.8883387 61.2821154,60.2970269 C62.8093733,56.8449004 60.4035535,49.0695124 58.148907,43.7932724 C55.2911729,37.105709 52.1521373,26.8234247 53.028575,22.0373871 C53.4882645,19.5271219 55.3159947,14.8789383 56.0762983,10.5068002 C56.81272,6.27199596 56.4079016,2.2706665 56.4079016,2.2706665 C56.4079016,2.2706665 56.9456376,5.97692668 56.4079016,10.0949935 C55.8701656,14.2130604 53.8438777,19.934608 53.6495196,21.6255804 C53.3655245,24.0964206 53.5674031,26.2885451 54.2175097,29.4499075 C55.1301212,33.8877882 56.9886727,38.9577219 59.0152438,43.0689445 C61.4481019,48.0043851 64.735486,58.0283215 62.563939,61.5354509 C60.1964868,65.3589745 56.0145362,69.6314592 54.7303358,71.9401558 C52.2682018,76.3665058 54.8694854,79.2684845 56.9456387,81.516914 C59.6611948,84.4578029 62.5587078,88.2322578 62.9173949,90.2933534 C63.2760819,92.3544489 62.7593546,93.5911042 61.2821159,94.4270278 C59.1210983,95.6498806 55.4896309,95.8265117 51.0321664,95.355993 C48.2692881,95.0643505 44.0578739,94.7447994 42.6733556,96.1836701 C41.5732246,97.3269892 41.1696687,99.9982565 41.6442553,101.735378 C42.6733556,105.502178 43.7346734,107.052083 46.8557884,110.659333 C48.5877511,112.661061 49.9612548,115.080193 49.9612548,119.772026 C49.9612548,121.638499 49.5642164,124.06941 48.4490446,125.887002 C46.7238147,128.698912 41.9216266,132.340588 40.7485187,133.190347 C34.9309319,137.404404 34.3866862,138.236941 33.2479675,142.28494 C32.1092487,146.332938 36.8369305,162.376728 38.2458553,166.049659 C41.2018866,173.755746 42.9135144,178.117859 45.3973836,183.364903 C48.1254151,189.127726 48.4490442,188.611947 53.0285756,202.778965 C57.6081069,216.945983 57.716258,226.390662 57.716258,226.390662 L45.0378486,226.390662 Z" id="algue-l2"></path>
                    <path d="M80.6016233,226.39429 C80.6016233,226.39429 79.6930888,184.859969 79.6930888,181.926669 C79.6930888,174.532253 75.9185243,170.813047 73.0740821,167.701429 C70.2296399,164.58981 67.0548421,160.508066 64.1674235,157.292095 C61.2800049,154.076124 55.1617656,145.050494 55.1617656,140.902745 C55.1617656,136.754997 57.718956,134.465086 59.8332075,133.695444 C64.2603774,132.083838 72.2672806,131.174646 73.0740823,127.422627 C73.8808839,123.670609 69.3116596,122.545003 66.1608233,120.173551 C63.0099871,117.802099 59.7754591,115.117139 58.1943272,113.183213 C57.3316357,112.128031 54.9526978,108.354362 55.5873124,104.814502 C56.221927,101.274642 57.9894055,98.7355069 60.4573222,96.9387349 C63.3468266,94.8350249 67.5079593,93.2265731 69.3116599,92.2600432 C70.271509,91.745699 73.2836929,90.633824 75.9185239,89.6572376 C82.8755042,87.0786691 85.0587463,84.6083776 85.6927432,81.3625037 C86.32674,78.1166299 82.4181674,74.818432 78.7617033,71.4081654 C73.9811922,66.9495363 69.8652108,62.858288 72.4061425,57.7842876 C73.8653505,54.8703871 76.6168454,52.5070991 78.5243957,50.5357155 C80.4319461,48.5643318 81.2061714,46.7179451 81.7692055,44.7368578 C82.8191759,41.0424398 82.0936865,35.6761427 82.0936865,35.6761427 C82.0936865,35.6761427 83.3658359,43.4087677 81.1202435,47.6362866 C79.3875955,50.8981441 78.7617036,50.8981441 77.2364658,52.7102871 C75.711228,54.5224301 73.2188344,57.1459867 72.6837382,59.5964306 C72.0092853,62.6850506 75.5244309,67.0953469 79.2836003,70.2185048 C85.6927437,75.5432892 87.4980746,78.6624353 87.4980746,80.8947605 C87.4980746,83.1270857 85.8460116,86.1795454 84.7800409,86.9691276 C78.7617033,91.4270104 73.540261,93.0523081 69.8652114,94.7975319 C65.7542679,97.0537744 60.4531315,99.2948894 59.8332074,104.814502 C59.4552187,108.179997 62.3716653,111.838215 66.1608232,114.220684 C69.9499811,116.603153 74.6782448,119.235232 77.2364668,121.546878 C78.9439388,123.089774 79.2836003,125.09839 79.2836003,126.896967 C79.2836003,135.860859 67.2253078,135.57288 64.1674235,137.672689 C61.1095392,139.772497 63.2567807,143.563339 63.7140833,144.435136 C64.4000816,145.742916 66.0499313,147.47318 68.0467547,149.681867 C73.540261,155.758237 70.2701266,149.681869 72.4061419,149.681871 C74.3104453,149.681873 71.1222411,152.238516 73.5402612,154.892314 C75.9582812,157.546112 81.57368,163.904015 84.2372989,166.6542 C88.5925144,171.150956 89.8685372,177.935113 89.8685372,184.059213 C89.8685372,211.097136 92.9608569,226.394287 92.9608569,226.394287 L80.6016233,226.39429 Z" id="algue-l3"></path>
                    <path d="M161.709346,212.615396 C165.179141,207.682572 167.743774,204.176737 166.901041,198.561158 C165.927598,192.074586 154.616536,186.385507 154.616536,180.182539 C154.616536,174.596497 160.762724,165.558634 160.875296,160.722825 C161.038687,153.703913 157.912805,153.688777 154.616535,151.713698 C149.101236,148.409006 143.382251,145.47649 145.160816,142.704571 C146.514103,140.595453 152.111705,138.324806 153.885936,136.40511 C155.660167,134.485414 155.427259,133.268348 151.000354,129.010698 C149.226124,127.304301 147.710969,126.141623 146.922614,123.431962 C146.134259,120.722301 149.557348,119.280841 154.616535,116.39792 C156.064072,115.573058 160.875296,114.23573 161.709346,109.911349 C162.543395,105.586968 155.864258,100.347875 154.616535,98.0193011 C152.299397,93.6949201 156.51765,89.3705392 156.059542,84.3254281 C155.801063,81.478822 151.591765,78.919952 148.545019,75.3163012 C145.498273,71.7126504 144.162744,69.9471395 143.677804,67.7486346 C142.564968,62.7035235 146.922614,52.2529362 146.922614,52.2529362 C146.922614,52.2529362 141.777108,64.3058546 142.889449,68.1089996 C144.365039,73.1541107 147.432183,76.0370313 149.054588,77.8388567 C150.54429,79.4933044 154.256188,82.8839678 154.616536,84.6857932 C154.976883,86.4876186 150.914208,95.0033238 152.299397,98.0193011 C154.616535,103.064412 160.875296,107.028428 159.437979,109.911349 C158.127148,112.540567 154.227042,113.223093 152.299397,114.23573 C145.439525,117.83938 143.677804,119.641206 144.365039,123.965587 C145.052274,128.289968 151.000355,131.460174 151.000355,133.961753 C151.000355,136.463332 146.134259,137.65946 144.365039,139.194475 C142.59582,140.729491 141.413859,143.064936 142.889449,145.947856 C144.365039,148.830777 145.897175,149.331796 149.054588,151.713698 C154.061195,155.490603 158.922644,156.571698 156.842131,162.164285 C154.761617,167.756872 150.02803,173.695967 150.02803,181.623999 C150.02803,187.297836 160.875296,194.957507 160.875296,199.642253 C160.875296,204.326999 156.017909,210.09284 149.054588,217.300142 C145.224895,221.264019 138.671196,226.136014 138.671196,226.136014 L151.000355,226.136014 C151.000355,226.136014 157.580527,218.485117 161.709346,212.615396 Z" id="algue-l6"></path>
                    <path d="M94.8087046,226.365578 C94.8087046,226.365578 105.633048,211.173938 105.633048,205.408096 C105.633048,198.879875 102.388238,195.678239 98.818947,189.552033 C97.0136327,186.453454 94.2762131,180.171637 93.6272511,176.218525 C92.9782892,172.265413 93.9377457,170.959181 94.8087045,169.687621 C95.7738369,168.278573 96.7784684,167.421971 99.539191,166.368176 C104.791257,164.36341 111.901622,162.628052 113.035614,158.921001 C113.627152,156.987246 110.305292,155.625172 109.203178,154.792678 C107.844425,153.76633 106.509729,152.910868 104.982599,150.113844 C104.437508,149.115479 103.986357,147.63805 104.441976,145.807815 C104.941315,143.801959 106.213531,143.167927 107.708355,142.776575 C109.203178,142.385222 112.711186,142.093448 116.88778,142.385222 C124.118418,142.89035 126.816507,142.838855 127.603409,141.494017 C128.390312,140.149178 125.347749,138.407081 122.936537,136.736044 C122.017649,136.09923 119.630964,134.496059 119.630964,131.832972 C119.630964,129.169885 128.341887,125.490495 130.072354,123.313877 C131.735754,121.221616 129.115475,116.509117 126.659846,113.3113 C123.547368,109.258109 122.936536,105.599925 122.936536,105.599925 C122.936536,105.599925 123.823851,108.605573 127.603409,112.8723 C130.253137,115.863566 133.833564,121.938862 131.468442,124.064459 C128.88995,126.381816 124.335213,128.971279 122.936537,130.370531 C120.254923,133.053249 123.08809,134.812077 125.349316,136.174802 C128.306941,137.957213 131.462744,140.24483 131.853405,141.494017 C132.244066,142.743203 131.681277,143.492714 130.072354,143.99935 C127.7187,144.740495 123.763517,144.847547 118.908706,144.562376 C115.899539,144.385618 111.312712,144.191944 109.804775,145.064014 C108.606577,145.756955 108.167047,147.375954 108.683939,148.428787 C109.804775,150.711764 110.960701,151.651129 114.360038,153.837407 C116.246391,155.050612 118.449143,156.516797 118.449143,159.360418 C118.449143,160.491648 117.3099,161.964972 116.09532,163.066576 C114.2163,164.770815 108.986036,166.977958 107.708355,167.492979 C101.372178,170.04703 101.509214,170.357156 99.5391912,172.265412 C97.569168,174.173669 97.5210228,179.101446 105.633048,190.633128 C109.048936,195.488998 111.01099,200.169117 111.473704,205.408096 C111.951124,210.813573 108.70291,212.615398 106.60649,219.462334 C104.510069,226.309271 105.633048,226.365578 105.633048,226.365578 L94.8087046,226.365578 Z" id="algue-l5"></path>
                </g>
                <g id="twitter" transform="translate(482.461878, 0.957303)">
                    <g id="label" transform="translate(44.067173, 43.647803) rotate(-152.000000) translate(-44.067173, -43.647803) translate(11.819501, 11.418590)"></g>
                </g>
            </g>
        </g>
    </g>
</svg>