<?xml version="1.0" encoding="UTF-8" standalone="no"?>
<svg width="88px" height="127px" viewBox="0 0 88 127" version="1.1" xmlns="http://www.w3.org/2000/svg" xmlns:xlink="http://www.w3.org/1999/xlink">
    <!-- Generator: Sketch 3.7.2 (28276) - http://www.bohemiancoding.com/sketch -->
    <title>Combined Shape</title>
    <desc>Created with Sketch.</desc>
    <defs></defs>
    <g id="General-page" stroke="none" stroke-width="1" fill="none" fill-rule="evenodd">
        <g id="footer-slices" transform="translate(-321.000000, -157.000000)" fill="#01080F">
            <g id="footer" transform="translate(0.000000, 12.000000)">
                <g id="algues-center" transform="translate(321.343349, 145.635955)">
                    <path d="M29.6823861,76.5139517 C29.5523699,76.9374444 29.43159,77.282985 29.3741172,77.5415722 C29.1915648,78.36293 27.3752502,81.9912308 27.0981657,82.328089 C26.5594011,82.9830779 26.1044855,83.8108084 25.2234267,85.1999991 C24.7816811,85.8965121 23.0194154,88.5094694 22.5238209,89.0292126 C21.5225943,90.0792258 21.7614305,90.3056171 19.2836603,92.8584261 C16.80589,95.4112351 16.80589,94.7730328 14.8999134,97.9640441 C12.9939368,101.155055 12.4520667,103.340842 12.4520711,105.30337 C12.452104,119.982022 14.8999136,125.542355 14.8999136,125.542355 L7.50745748,125.542356 C7.50745748,125.542356 7.50745697,120.069191 7.50745697,104.026965 C7.50745697,101.458159 10.3699548,95.6269772 12.9939368,92.8584261 C14.081571,91.7108684 16.80589,90.3056171 18.199181,87.7528081 C19.592472,85.1999991 19.7650531,85.1608279 19.8963072,83.9235946 C20.0452988,82.5191627 20.1892336,79.3069645 20.2366485,79.1370778 C21.2984668,75.3326057 19.5087199,86.6780538 24.5848587,79.1370778 C25.2804485,78.1037281 25.5670236,77.2310517 25.7688346,76.5295604 C24.5576413,76.665655 23.2901931,76.8658941 22.0305882,77.00577 C20.900013,77.1313175 16.6059886,77.5207579 11.2813991,77.00577 C5.95680966,76.4907821 4.78925835,75.6269663 2.23498728,74.6696629 C-3.36743482,72.5699573 3.8314067,74.9887642 6.06639388,75.6269663 C8.30138106,76.2651683 11.8135038,76.5842695 13.0906382,76.5842696 C14.3677727,76.5842698 18.1991816,76.9033708 22.0305882,76.2651685 C23.453899,76.0280858 24.8148461,75.8524847 26.0028805,75.7352821 C26.0558212,75.5787932 26.1128703,75.4362422 26.1812783,75.3078643 C26.4569062,74.7906069 26.8417774,72.6820716 25.7639818,72.147832 C24.8308817,71.6853148 23.7091567,71.4889627 22.5238211,71.1916293 C20.9823453,70.8049605 17.4496658,69.5425459 17.4496658,69.5425459 C17.4496658,69.5425459 12.993937,68.2876396 12.993937,65.0966283 C12.993937,62.7114623 19.2836604,60.9483137 23.6270072,59.033707 C25.2224876,58.3303974 28.0560173,57.7573025 28.4162656,54.8853924 C28.8159011,51.6994862 17.7588797,46.6438645 13.5657296,44.2267154 C10.4810232,42.4485308 9.65621988,41.7195536 9.2592335,39.636942 C8.92457363,37.8812985 11.3346473,35.3564932 14.559572,32.8674149 C17.037342,30.9550094 19.8963072,29.6202192 19.8963072,27.4426958 C19.8963072,25.2089879 14.9396516,24.1340607 14.559572,23.9325834 C13.8380354,23.5501023 13.6016098,22.9293122 13.5657295,22.4252934 C13.3751318,19.7479257 13.9599274,20.1822262 13.7563272,17.4530392 C13.6056716,15.4335561 12.2315456,14.584431 11.6597525,13.0545067 C10.9328349,11.1095216 13.2245224,0.679288576 14.5595727,0.310367397 C16.4242403,-0.204905619 13.3649069,5.95109535 12.9939364,11.7158221 C12.866844,13.6907848 13.9469249,13.8194689 14.8999133,15.7318743 C16.078086,18.0961672 15.6117328,18.4347028 15.2811087,19.7479257 C15.1276766,20.3573507 14.6552276,21.9826529 15.4717064,22.6165339 C16.4441879,23.3715291 20.2630233,23.1064425 21.5708326,26.1662913 C22.8786419,29.22614 19.0110598,31.5682998 17.4496658,32.8674149 C15.1624935,34.7703938 11.6597529,38.1098406 11.6597529,39.6369424 C11.6597529,41.1640441 12.6255977,41.380133 16.8058902,43.7168531 C18.5184651,44.6741564 20.4942107,45.6453886 21.0727362,45.9505609 C22.1598725,46.5240255 23.4818488,46.9945863 25.2234267,48.2427661 C26.7109029,49.3088325 31.2898205,51.37528 30.6512528,55.8426958 C30.2177726,58.8753198 25.2619913,60.6379029 24.5848587,60.9483137 C21.9573446,62.1528175 17.5682811,63.9244886 16.8058903,64.3069697 C16.0489703,64.6867062 14.8441585,66.2932959 20.2366488,67.7492995 C21.7860438,68.1676451 24.4297976,68.5142617 27.0981657,69.4704644 C28.3724789,69.9271112 29.6934011,70.5213474 30.012685,72.1478302 C30.278366,73.5012518 30.1447027,74.6726708 29.9287572,75.6093051 C29.9594709,75.6147788 29.9874721,75.6206666 30.0126852,75.6269663 C31.2898208,75.9460674 32.5669563,77.00577 33.8440916,78.4988764 C35.4591874,80.3870943 36.1717609,81.6495116 36.7176465,83.9235958 C37.1772407,85.8382019 35.7597948,89.0292131 35.7597948,89.0292131 C35.7597948,89.0292131 35.4405109,89.6674154 34.4826593,91.9011233 C33.5683287,94.03334 32.1558432,96.2148742 32.8862398,98.2831469 C33.6166364,100.35142 34.8019431,102.519962 37.6754982,104.434569 C38.8777353,105.235602 39.766092,107.330786 39.5912015,108.813484 C39.4515156,109.997722 37.068682,112.978517 36.3983627,113.600001 C35.1178996,114.787177 32.2476725,117.412384 33.2055241,120.939324 C34.1633757,124.466264 38.314066,125.649335 38.314066,125.649335 L30.0126852,125.649333 L30.0126852,123.492133 C30.0126852,122.224454 28.4162646,121.563189 30.0126847,117.441677 C30.9136456,115.115646 32.3534838,114.122693 34.482659,112.323596 C35.3546685,111.586772 37.0369305,109.770787 37.3562144,108.175282 C37.703606,106.439318 35.7597949,105.303372 35.7597949,105.303372 C35.7597949,105.303372 33.524808,103.707866 32.2476724,101.155057 C31.3718674,99.4044497 30.7260846,96.706027 31.2898208,95.3404986 C32.8740998,91.5029272 33.6361822,90.0375265 34.482659,88.3910109 C35.7763968,85.8745099 35.7597948,83.9235958 34.8019432,82.008989 C33.8440918,80.0943823 32.2545309,77.1266615 30.0126851,76.5842696 C29.9043118,76.5580498 29.7941816,76.5346699 29.6823861,76.5139517 Z M74.9533117,125.330424 C74.9533117,125.330424 77.4007064,123.352734 77.5479433,120.437616 C77.6594866,118.229191 75.8763634,115.113914 74.9533111,113.10639 C73.2450941,109.39123 69.308693,106.068952 67.8578022,103.545198 C64.7079918,98.0662568 64.0253293,95.9288635 63.544976,94.8110514 C61.987844,91.1875085 61.4661174,91.5123403 61.0468291,90.0874823 C59.9653582,86.4123442 54.7870904,70.6362595 59.6276856,83.7125696 C65.7575028,100.271564 64.2346346,84.5268049 66.0133626,87.6989539 C66.2729045,88.1618159 64.4525114,93.0448157 66.0133631,95.990635 C67.8578022,99.4716728 68.7960347,102.64648 72.1803192,106.045031 C73.4768917,107.34707 76.0834691,111.579961 78.2875357,114.860823 C81.8364743,120.143593 86.7668154,125.649335 86.7668154,125.649335 L74.9533117,125.330424 Z M70.6029835,125.469358 C70.6029835,125.469358 62.585167,113.591567 59.1681435,110.268116 C55.75112,106.944665 51.9449692,103.485347 51.535035,100.519401 C50.5474047,93.3737212 47.2540148,85.8382022 45.0190273,79.7752809 C42.7840398,73.7123596 41.1876208,68.6067416 41.1876208,63.1820225 C41.1876208,59.9910112 45.9768793,56.8 47.6792248,55.3998624 C48.9899933,54.3217874 54.6627098,49.6783652 56.5132473,48.7090226 C60.6453979,46.5445326 60.6639377,42.1213483 60.6639377,42.1213483 C60.6639377,42.1213483 60.1711739,45.7281359 55.75112,48.1842697 C53.2499415,49.5741235 47.679225,53.9280899 45.5243703,55.3998626 C43.3695155,56.8716354 39.1745742,59.9521086 38.9526337,63.5011236 C38.6333498,68.6067416 39.5912015,71.4786517 40.8683369,76.2651685 C42.1454722,81.0516854 46.586478,93.2304124 46.6811504,93.4124717 C47.6162422,95.2106951 47.305042,101.761284 47.6792249,102.904484 C48.3762128,105.033913 52.8486273,109.196098 54.8637353,114.039679 C57.0440594,119.28038 55.7511195,125.469358 55.7511195,125.469358 L70.6029835,125.469358 Z" id="Combined-Shape"></path>
                </g>
            </g>
        </g>
    </g>
</svg>