<?xml version="1.0" encoding="UTF-8" standalone="no"?>
<svg width="91px" height="60px" viewBox="0 0 91 60" version="1.1" xmlns="http://www.w3.org/2000/svg" xmlns:xlink="http://www.w3.org/1999/xlink">
  <g id="General-page" stroke="none" stroke-width="1" fill="none" fill-rule="evenodd">
    <g id="footer-slices" transform="translate(-364.000000, -96.000000)">
      <g id="footer" transform="translate(0.000000, 12.000000)">
        <g id="fish-right" transform="translate(408.409993, 112.466409) rotate(16.000000) translate(-408.409993, -112.466409) translate(363.409993, 85.052616)">
          <path d="M31.5775269,54.3689678 C49.0173134,54.3689678 63.1550538,43.9130284 63.1550538,31.0149735 C63.1550538,18.1169186 49.0173134,7.66097915 31.5775269,7.66097915 C14.1377403,7.66097915 3.52821221e-13,31.0149735 3.52821221e-13,31.0149735 C3.52821221e-13,31.0149735 14.1377403,54.3689678 31.5775269,54.3689678 Z" id="Oval-17" fill="#01080F"></path>
          <path d="M67.2496247,46.7946994 C79.5046098,46.7946994 89.4392382,39.4472825 89.4392382,30.3837844 C89.4392382,21.3202864 79.5046098,13.9728695 67.2496247,13.9728695 C54.9946396,13.9728695 74.1544071,13.9728695 74.1544081,30.3837844 C74.1544092,46.7946994 54.9946396,46.7946994 67.2496247,46.7946994 Z" id="Oval-17" fill="#01080F" transform="translate(76.297146, 30.383784) scale(-1, 1) translate(-76.297146, -30.383784) "></path>
          <path d="M23.4409055,54.3689678 C43.7087655,54.3689678 60.1391124,42.2174706 60.1391124,27.2278393 C60.1391124,15.866206 55.8770476,4.94467344 42.4818521,0.899736444 C38.2044967,-0.391893316 28.3464135,0.0867107171 23.4409055,0.0867107171 C3.17304547,0.0867107171 34.8603533,0.0867107171 34.860355,27.2278393 C34.8603567,54.3689678 3.17304547,54.3689678 23.4409055,54.3689678 Z" id="Oval-17" fill="#01080F" transform="translate(38.404114, 27.184484) scale(-1, 1) translate(-38.404114, -27.184484) "></path>
          <ellipse id="Oval-18" fill="#FFFFFF" cx="17.6834151" cy="31.0149735" rx="6.31550538" ry="6.31189036"></ellipse>
          <ellipse id="Oval-19" fill="#01080F" cx="17.6834151" cy="31.0149735" rx="3.15775269" ry="3.15594518"></ellipse>
        </g>
      </g>
    </g>
  </g>
</svg>
