<?xml version="1.0" encoding="UTF-8" standalone="no"?>
<svg viewBox="0 0 87 65" version="1.1" xmlns="http://www.w3.org/2000/svg" xmlns:xlink="http://www.w3.org/1999/xlink">
  <g id="General-page" stroke="none" stroke-width="1" fill="none" fill-rule="evenodd">
    <g id="footer-slices" transform="translate(-227.000000, -158.000000)">
      <g id="footer" transform="translate(0.000000, 12.000000)">
        <g id="fish_left" transform="translate(272.373937, 174.958039) scale(-1, 1) rotate(25.000000) translate(-272.373937, -174.958039) translate(228.308938, 148.188764)">
          <path d="M31.1047049,53.5385508 C48.2833591,53.5385508 62.2094098,43.0999912 62.2094098,30.2233755 C62.2094098,17.3467597 48.2833591,6.9082001 31.1047049,6.9082001 C13.9260507,6.9082001 8.35149144e-13,30.2233755 8.35149144e-13,30.2233755 C8.35149144e-13,30.2233755 13.9260507,53.5385508 31.1047049,53.5385508 Z" id="Oval-17" fill="#01080F"></path>
          <path d="M66.2473394,45.7668257 C78.3327976,45.7668257 88.1299973,38.6144793 88.1299973,29.7916129 C88.1299973,20.9687466 78.3327976,13.8164002 66.2473394,13.8164002 C54.1618811,13.8164002 73.0566058,13.8164002 73.0566068,29.7916129 C73.0566079,45.7668257 54.1618811,45.7668257 66.2473394,45.7668257 Z" id="Oval-17" fill="#01080F" transform="translate(75.169704, 29.791613) scale(-1, 1) translate(-75.169704, -29.791613) "></path>
          <path d="M23.0116569,53.5385508 C42.7512387,53.5385508 58.7533315,41.5726523 58.7533315,26.8119686 C58.7533315,15.6238698 54.6023567,4.86914983 41.5563046,0.885994111 C37.3904377,-0.385907643 27.7893038,0.085386321 23.0116569,0.085386321 C3.27207516,0.085386321 34.1334588,0.085386321 34.1334605,26.8119686 C34.1334622,53.5385508 3.27207516,53.5385508 23.0116569,53.5385508 Z" id="Oval-17" fill="#01080F" transform="translate(37.584852, 26.769275) scale(-1, 1) translate(-37.584852, -26.769275) "></path>
          <ellipse id="Oval-18" fill="#FFFFFF" cx="17.7124014" cy="30.655138" rx="6.48014686" ry="6.4764376"></ellipse>
          <ellipse id="Oval-19" fill="#01080F" cx="16.8483818" cy="30.655138" rx="3.02406853" ry="3.02233755"></ellipse>
        </g>
      </g>
    </g>
  </g>
</svg>
