<?xml version="1.0" encoding="UTF-8" standalone="no"?>
<svg width="768px" height="261px" viewBox="0 0 768 261" version="1.1" xmlns="http://www.w3.org/2000/svg" xmlns:xlink="http://www.w3.org/1999/xlink">
    <!-- Generator: Sketch 3.7.2 (28276) - http://www.bohemiancoding.com/sketch -->
    <title>footer</title>
    <desc>Created with Sketch.</desc>
    <defs></defs>
    <g id="General-page" stroke="none" stroke-width="1" fill="none" fill-rule="evenodd">
        <g id="[SM]-iPad-(768px-to-991px)-(.container-750px)" transform="translate(0.000000, -793.000000)">
            <g id="footer" transform="translate(0.000000, 792.000000)">
                <g id="rocks" transform="translate(384.000000, 231.786517) scale(-1, 1) translate(-384.000000, -231.786517) translate(0.000000, 200.786517)">
                    <path d="M0,61.2134842 L0,12.9042372 C0,12.9042372 43.0046948,12.9042377 60.258216,12.9042377 C69.0372133,12.9042377 79.8122066,0.985880337 91.8896714,0.985880337 C103.967136,0.985880337 112.746134,12.904238 121.220657,12.9042377 C138.474178,12.9042371 139.049296,0.985880337 152.276995,0.985880337 C165.504695,0.985880337 167.230047,12.9042377 183.333333,12.9042377 C199.43662,12.9042377 199.43662,0.985880337 213.239437,0.985880337 C227.042254,0.985880337 227.042254,12.9042377 244.295775,12.9042377 C261.549296,12.9042377 260.974178,0.985880337 275.352113,0.985880337 C289.730047,0.985880337 291.455399,12.9042377 306.983568,12.9042377 C322.511737,12.9042377 323.661972,0.985880394 336.314554,0.985880337 C348.967136,0.98588028 348.967136,12.9042382 366.220657,12.9042377 C383.474178,12.9042371 384.624413,0.985879027 397.852113,0.985880337 C411.079812,0.985881646 408.779343,12.9042371 427.183099,12.9042371 C445.586854,12.9042371 768,12.9042372 768,12.9042372 L768,61.2134842 L0,61.2134842 Z" id="rock" fill="#01080F"></path>
                    <text id="©---Site-réalisé-par" transform="translate(613.687059, 35.929213) scale(-1, 1) translate(-613.687059, -35.929213) " font-family="HelveticaNeueLT-Light, HelveticaNeue LT 45 Light" font-size="7.6692" font-weight="normal" fill="#8F98A2">
                        <tspan x="528.687059" y="38.4292135">© - Site réalisé par Antoine NOUVENE - Mars 2016</tspan>
                    </text>
                </g>
                <g id="algues-left" transform="translate(667.550003, 118.466292) scale(-1, 1) translate(-667.550003, -118.466292) translate(583.550003, 0.966292)" fill="#01080F">
                    <path d="M20.5931607,226.708036 C20.5931607,226.708036 21.5649521,223.890063 20.5931607,205.913364 C20.0639456,196.123671 -0.324480962,161.501052 0.648961949,155.367771 C1.62240486,149.23449 7.13858133,144.66511 11.0323528,141.308142 C14.1831589,138.591713 21.344648,127.541714 21.2560151,124.585302 C21.0945671,119.200096 18.132534,114.204928 16.5946424,110.942525 C15.9848401,109.648923 14.4758674,106.496601 15.0567508,103.82456 C16.0883495,99.0792473 17.2743002,97.8929099 21.7445614,93.1476013 C24.4425,90.2836632 25.7968229,89.2366551 26.2829589,87.178572 C26.9402628,84.3958403 24.5486555,80.2479694 23.362631,72.0644712 C23.0580651,69.9629844 22.7201342,67.7551596 23.362631,64.6831661 C24.0440921,61.4248712 24.3594191,61.1009689 27.2564027,58.3563332 C29.0691593,56.6389068 34.3949841,54.4899325 34.3949841,51.3265189 C34.3949841,48.1631053 27.2564027,43.9452139 26.7447273,40.4303059 C26.2330518,36.9153978 27.837627,34.2502248 28.5543266,32.6975101 C29.8522505,29.8855852 32.1236173,26.0191874 32.4480983,23.5587523 C32.7725793,21.0983173 31.4746554,19.6923545 30.1767315,17.2319195 C28.8788076,14.7714844 28.2298456,12.6625408 28.5543266,8.79614227 C28.8788076,4.92974372 30.5012124,0.360365078 30.5012124,0.360365078 C30.5012124,0.360365078 29.2525479,4.92974472 28.8788076,10.2021051 C28.5050672,15.4744655 32.8915266,19.6923558 33.2160075,22.1527895 C33.5404885,24.6132232 31.4746554,28.4796207 30.1767315,31.2915472 C28.8788076,34.1034738 27.6578449,37.2668886 28.1060858,39.7273244 C28.5543266,42.1877603 30.1767315,43.2422324 31.1501744,44.2967046 C32.4398567,45.6937398 33.8369838,46.4710729 35.0439461,47.8116118 C35.5750057,48.4014447 37.3153129,49.5690653 36.666351,52.3809911 C36.017389,55.1929168 34.7194651,55.5444075 31.7991363,58.3563332 C28.8788076,61.168259 26.7447273,62.5870209 26.7447273,66.4406197 C26.7447273,70.6585083 28.7117549,78.1999237 28.8788067,78.7427948 C30.1767315,82.9606834 30.8929779,87.3495123 30.3412177,88.9360255 C29.8522496,90.3419884 29.9988023,90.4348945 28.1060866,92.5544371 C26.744107,94.0796391 22.8454905,98.2844512 21.7445613,99.3758293 C19.2324116,101.866185 19.3572348,105.052767 20.5931607,107.383545 C24.8393576,115.391261 26.4739779,119.42604 26.7447266,124.585305 C27.1356692,132.034929 19.0168692,141.308142 16.5946422,144.120068 C14.1724152,146.931994 6.70805539,152.081968 7.78754363,157.476715 C9.36861034,165.378103 15.5289735,174.34827 18.1709342,179.26914 C19.5983707,181.927858 25.5270893,189.11088 29.4785098,202.373846 C33.4299302,215.636812 33.2160077,226.708036 33.2160077,226.708036 L20.5931607,226.708036 Z" id="algue-l1"></path>
                    <path d="M45.0378486,234.390662 C45.0378486,234.390662 43.7840856,217.600122 42.1209973,210.25426 C41.482825,207.435453 31.4871617,174.073283 31.1535287,172.611749 C29.6634592,166.084254 27.1911956,157.233859 27.5587646,151.801161 C27.7915342,148.360807 28.104978,146.909407 28.9046524,144.811397 C29.7907925,142.486537 30.713199,141.073187 33.2479677,139.334477 C38.0701732,136.026713 43.9966704,133.256012 45.037849,127.139564 C45.5809721,123.948964 43.1329074,121.609055 42.1209967,120.235482 C40.8734521,118.542059 39.6479953,117.130589 38.2458554,112.515639 C37.7453776,110.868386 37.3311509,108.430702 37.7494799,105.410905 C38.2079499,102.101343 39.3760403,101.055221 40.7485187,100.40951 C42.1209972,99.7637978 45.3418886,99.2823848 49.1766453,99.7637978 C55.8154847,100.597234 58.2927462,100.51227 59.0152438,98.2933534 C59.7377414,96.0744368 56.9442003,93.2000619 54.7303358,90.4429348 C53.8866558,89.3922232 51.6953106,86.7470712 51.6953106,82.3531098 C51.6953106,77.9591485 59.6932804,71.8883387 61.2821154,68.2970269 C62.8093733,64.8449004 60.4035535,57.0695124 58.148907,51.7932724 C55.2911729,45.105709 52.1521373,34.8234247 53.028575,30.0373871 C53.4882645,27.5271219 55.3159947,22.8789383 56.0762983,18.5068002 C56.81272,14.271996 56.4079016,10.2706665 56.4079016,10.2706665 C56.4079016,10.2706665 56.9456376,13.9769267 56.4079016,18.0949935 C55.8701656,22.2130604 53.8438777,27.934608 53.6495196,29.6255804 C53.3655245,32.0964206 53.5674031,34.2885451 54.2175097,37.4499075 C55.1301212,41.8877882 56.9886727,46.9577219 59.0152438,51.0689445 C61.4481019,56.0043851 64.735486,66.0283215 62.563939,69.5354509 C60.1964868,73.3589745 56.0145362,77.6314592 54.7303358,79.9401558 C52.2682018,84.3665058 54.8694854,87.2684845 56.9456387,89.516914 C59.6611948,92.4578029 62.5587078,96.2322578 62.9173949,98.2933534 C63.2760819,100.354449 62.7593546,101.591104 61.2821159,102.427028 C59.1210983,103.649881 55.4896309,103.826512 51.0321664,103.355993 C48.2692881,103.064351 44.0578739,102.744799 42.6733556,104.18367 C41.5732246,105.326989 41.1696687,107.998257 41.6442553,109.735378 C42.6733556,113.502178 43.7346734,115.052083 46.8557884,118.659333 C48.5877511,120.661061 49.9612548,123.080193 49.9612548,127.772026 C49.9612548,129.638499 49.5642164,132.06941 48.4490446,133.887002 C46.7238147,136.698912 41.9216266,140.340588 40.7485187,141.190347 C34.9309319,145.404404 34.3866862,146.236941 33.2479675,150.28494 C32.1092487,154.332938 36.8369305,170.376728 38.2458553,174.049659 C41.2018866,181.755746 42.9135144,186.117859 45.3973836,191.364903 C48.1254151,197.127726 48.4490442,196.611947 53.0285756,210.778965 C57.6081069,224.945983 57.716258,234.390662 57.716258,234.390662 L45.0378486,234.390662 Z" id="algue-l2"></path>
                    <path d="M80.6016233,226.39429 C80.6016233,226.39429 79.6930888,184.859969 79.6930888,181.926669 C79.6930888,174.532253 75.9185243,170.813047 73.0740821,167.701429 C70.2296399,164.58981 67.0548421,160.508066 64.1674235,157.292095 C61.2800049,154.076124 55.1617656,145.050494 55.1617656,140.902745 C55.1617656,136.754997 57.718956,134.465086 59.8332075,133.695444 C64.2603774,132.083838 72.2672806,131.174646 73.0740823,127.422627 C73.8808839,123.670609 69.3116596,122.545003 66.1608233,120.173551 C63.0099871,117.802099 59.7754591,115.117139 58.1943272,113.183213 C57.3316357,112.128031 54.9526978,108.354362 55.5873124,104.814502 C56.221927,101.274642 57.9894055,98.7355069 60.4573222,96.9387349 C63.3468266,94.8350249 67.5079593,93.2265731 69.3116599,92.2600432 C70.271509,91.745699 73.2836929,90.633824 75.9185239,89.6572376 C82.8755042,87.0786691 85.0587463,84.6083776 85.6927432,81.3625037 C86.32674,78.1166299 82.4181674,74.818432 78.7617033,71.4081654 C73.9811922,66.9495363 69.8652108,62.858288 72.4061425,57.7842876 C73.8653505,54.8703871 76.6168454,52.5070991 78.5243957,50.5357155 C80.4319461,48.5643318 81.2061714,46.7179451 81.7692055,44.7368578 C82.8191759,41.0424398 82.0936865,35.6761427 82.0936865,35.6761427 C82.0936865,35.6761427 83.3658359,43.4087677 81.1202435,47.6362866 C79.3875955,50.8981441 78.7617036,50.8981441 77.2364658,52.7102871 C75.711228,54.5224301 73.2188344,57.1459867 72.6837382,59.5964306 C72.0092853,62.6850506 75.5244309,67.0953469 79.2836003,70.2185048 C85.6927437,75.5432892 87.4980746,78.6624353 87.4980746,80.8947605 C87.4980746,83.1270857 85.8460116,86.1795454 84.7800409,86.9691276 C78.7617033,91.4270104 73.540261,93.0523081 69.8652114,94.7975319 C65.7542679,97.0537744 60.4531315,99.2948894 59.8332074,104.814502 C59.4552187,108.179997 62.3716653,111.838215 66.1608232,114.220684 C69.9499811,116.603153 74.6782448,119.235232 77.2364668,121.546878 C78.9439388,123.089774 79.2836003,125.09839 79.2836003,126.896967 C79.2836003,135.860859 67.2253078,135.57288 64.1674235,137.672689 C61.1095392,139.772497 63.2567807,143.563339 63.7140833,144.435136 C64.4000816,145.742916 66.0499313,147.47318 68.0467547,149.681867 C73.540261,155.758237 70.2701266,149.681869 72.4061419,149.681871 C74.3104453,149.681873 71.1222411,152.238516 73.5402612,154.892314 C75.9582812,157.546112 81.57368,163.904015 84.2372989,166.6542 C88.5925144,171.150956 89.8685372,177.935113 89.8685372,184.059213 C89.8685372,211.097136 92.9608569,226.394287 92.9608569,226.394287 L80.6016233,226.39429 Z" id="algue-l3"></path>
                    <path d="M161.709346,212.615396 C165.179141,207.682572 167.743774,204.176737 166.901041,198.561158 C165.927598,192.074586 154.616536,186.385507 154.616536,180.182539 C154.616536,174.596497 160.762724,165.558634 160.875296,160.722825 C161.038687,153.703913 157.912805,153.688777 154.616535,151.713698 C149.101236,148.409006 143.382251,145.47649 145.160816,142.704571 C146.514103,140.595453 152.111705,138.324806 153.885936,136.40511 C155.660167,134.485414 155.427259,133.268348 151.000354,129.010698 C149.226124,127.304301 147.710969,126.141623 146.922614,123.431962 C146.134259,120.722301 149.557348,119.280841 154.616535,116.39792 C156.064072,115.573058 160.875296,114.23573 161.709346,109.911349 C162.543395,105.586968 155.864258,100.347875 154.616535,98.0193011 C152.299397,93.6949201 156.51765,89.3705392 156.059542,84.3254281 C155.801063,81.478822 151.591765,78.919952 148.545019,75.3163012 C145.498273,71.7126504 144.162744,69.9471395 143.677804,67.7486346 C142.564968,62.7035235 146.922614,52.2529362 146.922614,52.2529362 C146.922614,52.2529362 141.777108,64.3058546 142.889449,68.1089996 C144.365039,73.1541107 147.432183,76.0370313 149.054588,77.8388567 C150.54429,79.4933044 154.256188,82.8839678 154.616536,84.6857932 C154.976883,86.4876186 150.914208,95.0033238 152.299397,98.0193011 C154.616535,103.064412 160.875296,107.028428 159.437979,109.911349 C158.127148,112.540567 154.227042,113.223093 152.299397,114.23573 C145.439525,117.83938 143.677804,119.641206 144.365039,123.965587 C145.052274,128.289968 151.000355,131.460174 151.000355,133.961753 C151.000355,136.463332 146.134259,137.65946 144.365039,139.194475 C142.59582,140.729491 141.413859,143.064936 142.889449,145.947856 C144.365039,148.830777 145.897175,149.331796 149.054588,151.713698 C154.061195,155.490603 158.922644,156.571698 156.842131,162.164285 C154.761617,167.756872 150.02803,173.695967 150.02803,181.623999 C150.02803,187.297836 160.875296,194.957507 160.875296,199.642253 C160.875296,204.326999 156.017909,210.09284 149.054588,217.300142 C145.224895,221.264019 138.671196,226.136014 138.671196,226.136014 L151.000355,226.136014 C151.000355,226.136014 157.580527,218.485117 161.709346,212.615396 Z" id="algue-l6"></path>
                    <path d="M94.8087046,216.365578 C94.8087046,216.365578 105.633048,201.173938 105.633048,195.408096 C105.633048,188.879875 102.388238,185.678239 98.818947,179.552033 C97.0136327,176.453454 94.2762131,170.171637 93.6272511,166.218525 C92.9782892,162.265413 93.9377457,160.959181 94.8087045,159.687621 C95.7738369,158.278573 96.7784684,157.421971 99.539191,156.368176 C104.791257,154.36341 111.901622,152.628052 113.035614,148.921001 C113.627152,146.987246 110.305292,145.625172 109.203178,144.792678 C107.844425,143.76633 106.509729,142.910868 104.982599,140.113844 C104.437508,139.115479 103.986357,137.63805 104.441976,135.807815 C104.941315,133.801959 106.213531,133.167927 107.708355,132.776575 C109.203178,132.385222 112.711186,132.093448 116.88778,132.385222 C124.118418,132.89035 126.816507,132.838855 127.603409,131.494017 C128.390312,130.149178 125.347749,128.407081 122.936537,126.736044 C122.017649,126.09923 119.630964,124.496059 119.630964,121.832972 C119.630964,119.169885 128.341887,115.490495 130.072354,113.313877 C131.735754,111.221616 129.115475,106.509117 126.659846,103.3113 C123.547368,99.2581087 122.936536,95.5999249 122.936536,95.5999249 C122.936536,95.5999249 123.823851,98.6055728 127.603409,102.8723 C130.253137,105.863566 133.833564,111.938862 131.468442,114.064459 C128.88995,116.381816 124.335213,118.971279 122.936537,120.370531 C120.254923,123.053249 123.08809,124.812077 125.349316,126.174802 C128.306941,127.957213 131.462744,130.24483 131.853405,131.494017 C132.244066,132.743203 131.681277,133.492714 130.072354,133.99935 C127.7187,134.740495 123.763517,134.847547 118.908706,134.562376 C115.899539,134.385618 111.312712,134.191944 109.804775,135.064014 C108.606577,135.756955 108.167047,137.375954 108.683939,138.428787 C109.804775,140.711764 110.960701,141.651129 114.360038,143.837407 C116.246391,145.050612 118.449143,146.516797 118.449143,149.360418 C118.449143,150.491648 117.3099,151.964972 116.09532,153.066576 C114.2163,154.770815 108.986036,156.977958 107.708355,157.492979 C101.372178,160.04703 101.509214,160.357156 99.5391912,162.265412 C97.569168,164.173669 97.5210228,169.101446 105.633048,180.633128 C109.048936,185.488998 111.01099,190.169117 111.473704,195.408096 C111.951124,200.813573 108.70291,202.615398 106.60649,209.462334 C104.510069,216.309271 105.633048,216.365578 105.633048,216.365578 L94.8087046,216.365578 Z" id="algue-l5"></path>
                </g>
                <g id="fish-right" transform="translate(408.745266, 72.768539) rotate(16.000000) translate(-408.745266, -72.768539) translate(363.406954, 45.006742)">
                    <path d="M31.9283883,54.9730674 C49.5619502,54.9730674 63.8567766,44.4009509 63.8567766,31.3595843 C63.8567766,18.3182177 49.5619502,7.74610114 31.9283883,7.74610114 C14.2948264,7.74610114 4.35692187e-13,31.3595843 4.35692187e-13,31.3595843 C4.35692187e-13,31.3595843 14.2948264,54.9730674 31.9283883,54.9730674 Z" id="Oval-17" fill="#01080F"></path>
                    <path d="M67.9968428,47.3146405 C80.3879944,47.3146405 90.4330075,39.8855856 90.4330075,30.721382 C90.4330075,21.5571785 80.3879944,14.1281236 67.9968428,14.1281236 C55.6056911,14.1281236 74.978345,14.1281236 74.978346,30.721382 C74.9783471,47.3146405 55.6056911,47.3146405 67.9968428,47.3146405 Z" id="Oval-17" fill="#01080F" transform="translate(77.144892, 30.721382) scale(-1, 1) translate(-77.144892, -30.721382) "></path>
                    <path d="M23.70136,54.9730674 C44.1944185,54.9730674 60.8073248,42.6865536 60.8073248,27.5303708 C60.8073248,16.0424971 56.4979037,4.99961426 42.9538726,0.909733515 C38.6289911,-0.396247686 28.6613737,0.0876741695 23.70136,0.0876741695 C3.20830153,0.0876741695 35.2476906,0.0876741695 35.2476923,27.5303708 C35.247694,54.9730674 3.20830153,54.9730674 23.70136,54.9730674 Z" id="Oval-17" fill="#01080F" transform="translate(38.830826, 27.486534) scale(-1, 1) translate(-38.830826, -27.486534) "></path>
                    <ellipse id="Oval-18" fill="#FFFFFF" cx="17.8798974" cy="31.3595843" rx="6.38567766" ry="6.38202247"></ellipse>
                    <ellipse id="Oval-19" fill="#01080F" cx="17.8798974" cy="31.3595843" rx="3.19283883" ry="3.19101124"></ellipse>
                </g>
                <g id="algues-center" transform="translate(321.343349, 105.635955)" fill="#01080F">
                    <path d="M29.6823861,76.5139517 C29.5523699,76.9374444 29.43159,77.282985 29.3741172,77.5415722 C29.1915648,78.36293 27.3752502,81.9912308 27.0981657,82.328089 C26.5594011,82.9830779 26.1044855,83.8108084 25.2234267,85.1999991 C24.7816811,85.8965121 23.0194154,88.5094694 22.5238209,89.0292126 C21.5225943,90.0792258 21.7614305,90.3056171 19.2836603,92.8584261 C16.80589,95.4112351 16.80589,94.7730328 14.8999134,97.9640441 C12.9939368,101.155055 12.4520667,103.340842 12.4520711,105.30337 C12.452104,119.982022 14.8999136,125.542355 14.8999136,125.542355 L7.50745748,125.542356 C7.50745748,125.542356 7.50745697,120.069191 7.50745697,104.026965 C7.50745697,101.458159 10.3699548,95.6269772 12.9939368,92.8584261 C14.081571,91.7108684 16.80589,90.3056171 18.199181,87.7528081 C19.592472,85.1999991 19.7650531,85.1608279 19.8963072,83.9235946 C20.0452988,82.5191627 20.1892336,79.3069645 20.2366485,79.1370778 C21.2984668,75.3326057 19.5087199,86.6780538 24.5848587,79.1370778 C25.2804485,78.1037281 25.5670236,77.2310517 25.7688346,76.5295604 C24.5576413,76.665655 23.2901931,76.8658941 22.0305882,77.00577 C20.900013,77.1313175 16.6059886,77.5207579 11.2813991,77.00577 C5.95680966,76.4907821 4.78925835,75.6269663 2.23498728,74.6696629 C-3.36743482,72.5699573 3.8314067,74.9887642 6.06639388,75.6269663 C8.30138106,76.2651683 11.8135038,76.5842695 13.0906382,76.5842696 C14.3677727,76.5842698 18.1991816,76.9033708 22.0305882,76.2651685 C23.453899,76.0280858 24.8148461,75.8524847 26.0028805,75.7352821 C26.0558212,75.5787932 26.1128703,75.4362422 26.1812783,75.3078643 C26.4569062,74.7906069 26.8417774,72.6820716 25.7639818,72.147832 C24.8308817,71.6853148 23.7091567,71.4889627 22.5238211,71.1916293 C20.9823453,70.8049605 17.4496658,69.5425459 17.4496658,69.5425459 C17.4496658,69.5425459 12.993937,68.2876396 12.993937,65.0966283 C12.993937,62.7114623 19.2836604,60.9483137 23.6270072,59.033707 C25.2224876,58.3303974 28.0560173,57.7573025 28.4162656,54.8853924 C28.8159011,51.6994862 17.7588797,46.6438645 13.5657296,44.2267154 C10.4810232,42.4485308 9.65621988,41.7195536 9.2592335,39.636942 C8.92457363,37.8812985 11.3346473,35.3564932 14.559572,32.8674149 C17.037342,30.9550094 19.8963072,29.6202192 19.8963072,27.4426958 C19.8963072,25.2089879 14.9396516,24.1340607 14.559572,23.9325834 C13.8380354,23.5501023 13.6016098,22.9293122 13.5657295,22.4252934 C13.3751318,19.7479257 13.9599274,20.1822262 13.7563272,17.4530392 C13.6056716,15.4335561 12.2315456,14.584431 11.6597525,13.0545067 C10.9328349,11.1095216 13.2245224,0.679288576 14.5595727,0.310367397 C16.4242403,-0.204905619 13.3649069,5.95109535 12.9939364,11.7158221 C12.866844,13.6907848 13.9469249,13.8194689 14.8999133,15.7318743 C16.078086,18.0961672 15.6117328,18.4347028 15.2811087,19.7479257 C15.1276766,20.3573507 14.6552276,21.9826529 15.4717064,22.6165339 C16.4441879,23.3715291 20.2630233,23.1064425 21.5708326,26.1662913 C22.8786419,29.22614 19.0110598,31.5682998 17.4496658,32.8674149 C15.1624935,34.7703938 11.6597529,38.1098406 11.6597529,39.6369424 C11.6597529,41.1640441 12.6255977,41.380133 16.8058902,43.7168531 C18.5184651,44.6741564 20.4942107,45.6453886 21.0727362,45.9505609 C22.1598725,46.5240255 23.4818488,46.9945863 25.2234267,48.2427661 C26.7109029,49.3088325 31.2898205,51.37528 30.6512528,55.8426958 C30.2177726,58.8753198 25.2619913,60.6379029 24.5848587,60.9483137 C21.9573446,62.1528175 17.5682811,63.9244886 16.8058903,64.3069697 C16.0489703,64.6867062 14.8441585,66.2932959 20.2366488,67.7492995 C21.7860438,68.1676451 24.4297976,68.5142617 27.0981657,69.4704644 C28.3724789,69.9271112 29.6934011,70.5213474 30.012685,72.1478302 C30.278366,73.5012518 30.1447027,74.6726708 29.9287572,75.6093051 C29.9594709,75.6147788 29.9874721,75.6206666 30.0126852,75.6269663 C31.2898208,75.9460674 32.5669563,77.00577 33.8440916,78.4988764 C35.4591874,80.3870943 36.1717609,81.6495116 36.7176465,83.9235958 C37.1772407,85.8382019 35.7597948,89.0292131 35.7597948,89.0292131 C35.7597948,89.0292131 35.4405109,89.6674154 34.4826593,91.9011233 C33.5683287,94.03334 32.1558432,96.2148742 32.8862398,98.2831469 C33.6166364,100.35142 34.8019431,102.519962 37.6754982,104.434569 C38.8777353,105.235602 39.766092,107.330786 39.5912015,108.813484 C39.4515156,109.997722 37.068682,112.978517 36.3983627,113.600001 C35.1178996,114.787177 32.2476725,117.412384 33.2055241,120.939324 C34.1633757,124.466264 38.314066,125.649335 38.314066,125.649335 L30.0126852,125.649333 L30.0126852,123.492133 C30.0126852,122.224454 28.4162646,121.563189 30.0126847,117.441677 C30.9136456,115.115646 32.3534838,114.122693 34.482659,112.323596 C35.3546685,111.586772 37.0369305,109.770787 37.3562144,108.175282 C37.703606,106.439318 35.7597949,105.303372 35.7597949,105.303372 C35.7597949,105.303372 33.524808,103.707866 32.2476724,101.155057 C31.3718674,99.4044497 30.7260846,96.706027 31.2898208,95.3404986 C32.8740998,91.5029272 33.6361822,90.0375265 34.482659,88.3910109 C35.7763968,85.8745099 35.7597948,83.9235958 34.8019432,82.008989 C33.8440918,80.0943823 32.2545309,77.1266615 30.0126851,76.5842696 C29.9043118,76.5580498 29.7941816,76.5346699 29.6823861,76.5139517 Z M74.9533117,125.330424 C74.9533117,125.330424 77.4007064,123.352734 77.5479433,120.437616 C77.6594866,118.229191 75.8763634,115.113914 74.9533111,113.10639 C73.2450941,109.39123 69.308693,106.068952 67.8578022,103.545198 C64.7079918,98.0662568 64.0253293,95.9288635 63.544976,94.8110514 C61.987844,91.1875085 61.4661174,91.5123403 61.0468291,90.0874823 C59.9653582,86.4123442 54.7870904,70.6362595 59.6276856,83.7125696 C65.7575028,100.271564 64.2346346,84.5268049 66.0133626,87.6989539 C66.2729045,88.1618159 64.4525114,93.0448157 66.0133631,95.990635 C67.8578022,99.4716728 68.7960347,102.64648 72.1803192,106.045031 C73.4768917,107.34707 76.0834691,111.579961 78.2875357,114.860823 C81.8364743,120.143593 86.7668154,125.649335 86.7668154,125.649335 L74.9533117,125.330424 Z M70.6029835,125.469358 C70.6029835,125.469358 62.585167,113.591567 59.1681435,110.268116 C55.75112,106.944665 51.9449692,103.485347 51.535035,100.519401 C50.5474047,93.3737212 47.2540148,85.8382022 45.0190273,79.7752809 C42.7840398,73.7123596 41.1876208,68.6067416 41.1876208,63.1820225 C41.1876208,59.9910112 45.9768793,56.8 47.6792248,55.3998624 C48.9899933,54.3217874 54.6627098,49.6783652 56.5132473,48.7090226 C60.6453979,46.5445326 60.6639377,42.1213483 60.6639377,42.1213483 C60.6639377,42.1213483 60.1711739,45.7281359 55.75112,48.1842697 C53.2499415,49.5741235 47.679225,53.9280899 45.5243703,55.3998626 C43.3695155,56.8716354 39.1745742,59.9521086 38.9526337,63.5011236 C38.6333498,68.6067416 39.5912015,71.4786517 40.8683369,76.2651685 C42.1454722,81.0516854 46.586478,93.2304124 46.6811504,93.4124717 C47.6162422,95.2106951 47.305042,101.761284 47.6792249,102.904484 C48.3762128,105.033913 52.8486273,109.196098 54.8637353,114.039679 C57.0440594,119.28038 55.7511195,125.469358 55.7511195,125.469358 L70.6029835,125.469358 Z" id="Combined-Shape"></path>
                </g>
                <g id="fish_left" transform="translate(260.875894, 127.973034) scale(-1, 1) rotate(25.000000) translate(-260.875894, -127.973034) translate(228.308938, 108.188764)">
                    <path d="M22.9884396,39.5685393 C35.6846042,39.5685393 45.9768791,31.8537516 45.9768791,22.3370787 C45.9768791,12.8204057 35.6846042,5.10561798 22.9884396,5.10561798 C10.292275,5.10561798 6.17230598e-13,22.3370787 6.17230598e-13,22.3370787 C6.17230598e-13,22.3370787 10.292275,39.5685393 22.9884396,39.5685393 Z" id="Oval-17" fill="#01080F"></path>
                    <path d="M48.9611768,33.8247191 C57.8931319,33.8247191 65.1339121,28.5386608 65.1339121,22.0179775 C65.1339121,15.4972942 57.8931319,10.211236 48.9611768,10.211236 C40.0292218,10.211236 53.9936763,10.211236 53.993677,22.0179775 C53.9936778,33.8247191 40.0292218,33.8247191 48.9611768,33.8247191 Z" id="Oval-17" fill="#01080F" transform="translate(55.555396, 22.017978) scale(-1, 1) translate(-55.555396, -22.017978) "></path>
                    <path d="M17.0071404,39.5685393 C31.5960004,39.5685393 43.4226081,30.7249469 43.4226081,19.8158227 C43.4226081,11.5470758 40.3547624,3.59862461 30.7128648,0.654808401 C27.6340129,-0.285211339 20.5381383,0.0631061534 17.0071404,0.0631061534 C2.41828052,0.0631061534 25.2268896,0.0631061534 25.2268908,19.8158227 C25.226892,39.5685393 2.41828052,39.5685393 17.0071404,39.5685393 Z" id="Oval-17" fill="#01080F" transform="translate(27.777698, 19.784270) scale(-1, 1) translate(-27.777698, -19.784270) "></path>
                    <ellipse id="Oval-18" fill="#FFFFFF" cx="13.0906392" cy="22.6561798" rx="4.78925824" ry="4.78651685"></ellipse>
                    <ellipse id="Oval-19" fill="#01080F" cx="12.4520714" cy="22.6561798" rx="2.23498718" ry="2.23370787"></ellipse>
                </g>
                <g id="algues-left" transform="translate(24.000000, 30.966292)" fill="#01080F">
                    <path d="M20.2633277,200.748612 C20.2633277,200.748612 21.2195543,198.253313 20.2633277,182.335054 C19.7425889,173.666339 -0.319283871,143.008217 0.638567767,137.577233 C1.5964194,132.146249 7.02424532,128.100091 10.8556517,125.127516 C13.9559925,122.722134 21.0027787,112.937426 20.9155654,110.31954 C20.7567032,105.550973 17.842112,101.127782 16.3288522,98.2389436 C15.7288169,97.0934661 14.2440128,94.3021041 14.8155924,91.9360281 C15.8306683,87.7340817 16.9976242,86.683587 21.3962868,82.4816445 C24.0510136,79.9456445 25.3836448,79.0185251 25.8619945,77.1961048 C26.5087706,74.7320125 24.1554688,71.0590976 22.9884404,63.8126588 C22.6887526,61.9518048 22.3562342,59.9967891 22.9884404,57.2765573 C23.6589868,54.3913566 23.9692633,54.104543 26.819847,51.6741845 C28.6035693,50.1534136 33.8440924,48.2505098 33.8440924,45.4493259 C33.8440924,42.6481421 26.819847,38.9132244 26.3163669,35.8007944 C25.8128868,32.6883643 27.391762,30.3283695 28.0969826,28.9534499 C29.3741181,26.4635072 31.6091053,23.039835 31.9283891,20.8611345 C32.247673,18.682434 30.9705375,17.4374623 29.693402,15.2587617 C28.4162664,13.0800612 27.7776987,11.2126043 28.0969826,7.78893144 C28.4162664,4.36525862 30.0126858,0.319101124 30.0126858,0.319101124 C30.0126858,0.319101124 28.7840207,4.36525951 28.4162664,9.03390316 C28.0485122,13.7025468 32.3647152,17.4374634 32.6839991,19.6161628 C33.003283,21.7948621 30.9705375,25.218534 29.693402,27.7084782 C28.4162664,30.1984224 27.2148595,32.9996072 27.655921,35.1783085 C28.0969826,37.3570098 29.693402,38.2907385 30.6512536,39.2244673 C31.9202795,40.4615337 33.2950294,41.1498575 34.4826602,42.3368966 C35.0052141,42.8591902 36.7176474,43.8931113 36.0790796,46.3830547 C35.4405119,48.8729982 34.1633763,49.1842411 31.2898214,51.6741845 C28.4162664,54.164128 26.3163669,55.4204332 26.3163669,58.8327719 C26.3163669,62.5676871 28.2518894,69.2455654 28.4162656,69.7262744 C29.693402,73.4611896 30.3981765,77.3474714 29.8552537,78.7523194 C29.3741172,79.9972911 29.5183226,80.0795589 27.6559218,81.9564012 C26.3157566,83.3069585 22.4795827,87.0302945 21.3962868,87.9967033 C18.9243732,90.2018985 19.0471972,93.0235976 20.2633277,95.0874879 C24.4415148,102.178272 26.049954,105.751045 26.3163663,110.319544 C26.7010472,116.916141 18.7122831,125.127516 16.328852,127.617459 C13.9454209,130.107403 6.60061496,134.667674 7.66281344,139.444691 C9.21855679,146.441322 15.2802517,154.384351 17.8798971,158.741752 C19.2844709,161.096032 25.1182314,167.456554 29.0063634,179.200832 C32.8944954,190.945109 32.6839992,200.748612 32.6839992,200.748612 L20.2633277,200.748612 Z" id="algue-l1"></path>
                    <path d="M34.4766604,200.470791 C34.4766604,200.470791 33.2429785,187.460123 31.6065272,181.767956 C30.9785763,179.583716 21.1430098,153.732008 20.8147205,152.599493 C19.3485169,147.541463 16.9158506,140.683461 17.2775323,136.473767 C17.5065738,133.807903 17.8149973,132.683241 18.6018636,131.057533 C19.4738107,129.256044 20.3814434,128.160866 22.8756137,126.813572 C27.6205836,124.250449 33.4521583,122.103486 34.4766608,117.363967 C35.0110849,114.891632 32.60223,113.078482 31.6065266,112.014127 C30.3789635,110.701925 29.1731344,109.608204 27.793452,106.032168 C27.3009902,104.755743 26.8933981,102.866828 27.3050268,100.526845 C27.7561536,97.9623288 28.9055352,97.1517094 30.2560311,96.6513596 C31.6065271,96.1510099 34.7758307,95.7779722 38.5491675,96.1510099 C45.0816751,96.7968234 47.5192592,96.7309866 48.2301849,95.0115906 C48.9411105,93.2921946 46.1923125,91.0648965 44.0139066,88.9284514 C43.1837396,88.1142751 41.0274923,86.0645974 41.0274923,82.6598008 C41.0274923,79.2550043 48.8973616,74.5508499 50.4607488,71.7680111 C51.9635451,69.0930243 49.5962585,63.0680248 47.3777239,58.9795674 C44.565761,53.7975025 41.4770021,45.829957 42.3394023,42.1213481 C42.7917291,40.1761915 44.5901852,36.574403 45.3383114,33.1865169 C46.062938,29.905048 45.6646035,26.8044944 45.6646035,26.8044944 C45.6646035,26.8044944 46.1937268,29.6764045 45.6646035,32.8674157 C45.1354802,36.058427 43.1416466,40.4919447 42.9504014,41.8022469 C42.670955,43.7168537 42.8696002,45.4154891 43.5092943,47.8651683 C44.4072888,51.3039972 46.2360726,55.2325918 48.2301849,58.4182995 C50.6240768,62.242678 53.858808,70.0100347 51.7220419,72.7276421 C49.3925083,75.6904174 45.2775385,79.0010841 44.0139066,80.7900489 C41.5912077,84.2199428 44.1508275,86.4686306 46.1937278,88.2108956 C48.8657899,90.4897342 51.7168945,93.4144871 52.0698366,95.0115906 C52.4227786,96.6086942 51.9143276,97.5669546 50.4607493,98.2146958 C48.3343439,99.1622611 44.7610404,99.2991291 40.3749695,98.9345332 C37.6563431,98.7085451 33.5123816,98.460931 32.1500386,99.5758844 C31.067528,100.461821 30.6704357,102.531734 31.137421,103.877797 C32.1500386,106.796618 33.1943576,107.997609 36.2654829,110.792799 C37.9697054,112.3439 39.3212102,114.218438 39.3212102,117.85405 C39.3212102,119.300345 38.9305311,121.184011 37.8332205,122.592428 C36.135623,124.771324 31.4103497,127.593189 30.2560311,128.25165 C24.5316224,131.517042 23.9960937,132.16216 22.8756134,135.298876 C21.7551331,138.435593 26.4070933,150.867619 27.793452,153.713702 C30.7021376,159.685002 32.3863509,163.06512 34.8304369,167.130954 C37.5147744,171.596456 37.8332201,171.196788 42.3394028,182.174539 C46.8455856,193.15229 46.9520044,200.470791 46.9520044,200.470791 L34.4766604,200.470791 Z" id="algue-l2"></path>
                    <path d="M79.310657,200.470791 C79.310657,200.470791 78.4166742,163.692399 78.4166742,161.094978 C78.4166742,154.547267 74.7025655,151.253933 71.9036817,148.498613 C69.1047979,145.743294 65.9808496,142.128934 63.1396777,139.281211 C60.2985058,136.433488 54.2782601,128.441346 54.2782601,124.768539 C54.2782601,121.095733 56.7944929,119.068031 58.8748812,118.386517 C63.2311428,116.95945 71.1098024,116.154365 71.9036818,112.831975 C72.6975612,109.509585 68.2015205,108.512868 65.10115,106.412962 C62.0007795,104.313055 58.8180577,101.935539 57.2622502,100.223059 C56.4133762,99.2887016 54.0725409,95.9471402 54.6969911,92.8126152 C55.3214413,89.6780902 57.0606108,87.4297016 59.4889997,85.8386707 C62.332224,83.9758481 66.4267094,82.5515736 68.2015208,81.6957172 C69.1459964,81.2402685 72.1099352,80.2557098 74.7025651,79.3909484 C81.548118,77.1076414 83.696392,74.920213 84.3202343,72.0460111 C84.9440767,69.1718092 81.0981062,66.2512746 77.5002063,63.2315039 C72.7962629,59.2834145 68.7462057,55.6606386 71.2464402,51.1676415 C72.6822766,48.5874001 75.3897018,46.4947226 77.2666997,44.7490742 C79.1436975,43.0034258 79.9055223,41.3684614 80.4595385,39.6142204 C81.4926919,36.3428353 80.7788224,31.5910112 80.7788224,31.5910112 C80.7788224,31.5910112 82.0305963,38.4382045 79.8209707,42.1816473 C78.1160739,45.0700026 77.5002067,45.0700026 75.999398,46.6746444 C74.4985894,48.2792862 72.0461155,50.6024299 71.5195898,52.7722833 C70.8559394,55.5072379 74.3147841,59.4125289 78.0137443,62.1780666 C84.3202349,66.8931314 86.0966504,69.6551166 86.0966504,71.6318272 C86.0966504,73.6085378 84.4710479,76.3114727 83.4221505,77.010643 C77.5002063,80.9580717 72.362394,82.397263 68.7462063,83.9426483 C64.7011062,85.9405375 59.4848761,87.9250315 58.8748812,92.8126152 C58.5029465,95.7927409 61.3726815,99.0320713 65.1011498,101.141733 C68.8296182,103.251395 73.4821511,105.582085 75.999399,107.629034 C77.679523,108.99526 78.0137443,110.773877 78.0137443,112.366506 C78.0137443,120.303979 66.148585,120.048976 63.1396777,121.908344 C60.1307704,123.767711 62.2436204,127.124479 62.6935985,127.89645 C63.3686094,129.054482 64.992034,130.58662 66.9568751,132.5424 C72.362394,137.922989 69.1446361,132.542401 71.2464396,132.542403 C73.1202425,132.542405 69.9831026,134.806297 72.3623941,137.156219 C74.7416856,139.506141 80.2671447,145.136027 82.8881014,147.571299 C87.1735609,151.55315 88.4291462,157.560479 88.4291462,162.983333 C88.4291462,186.925253 91.4719374,200.470789 91.4719374,200.470789 L79.310657,200.470791 Z" id="algue-l3"></path>
                    <path d="M117.921559,200.346342 C117.921559,200.346342 116.438729,174.830341 116.438729,172.999901 C116.438729,168.385632 112.769691,165.868846 110.176824,164.123057 C107.583957,162.377269 104.482328,159.634251 101.750688,157.627419 C99.0190483,155.620586 99.6509774,156.094875 95.7732177,152.878483 C94.0462181,151.44603 93.2308938,149.309429 93.2308938,146.721149 C93.2308938,144.132868 96.2405644,142.53014 98.2407502,142.049867 C102.42907,141.044192 109.41355,141.329592 110.176824,138.988255 C110.940098,136.646918 106.617388,135.944517 103.636542,134.464682 C100.655696,132.984847 97.5956742,131.309376 96.0998458,130.102567 C95.2836974,129.444111 93.0331054,127.089264 93.633482,124.880318 C94.2338585,122.671372 95.9059799,121.0869 98.2407501,119.965677 C100.974363,118.652919 104.910999,117.649212 106.617388,117.046077 C107.525452,116.725116 110.375126,116.031283 112.867805,115.421873 C119.44945,113.812793 121.514904,112.27128 122.114696,110.245788 C122.714489,108.220296 119.164234,105.87218 115.557593,104.034075 C111.012793,101.717843 106.458898,98.3981718 109.54492,95.650439 C110.9761,94.3761449 112.310009,93.7695099 114.114645,92.5393258 C115.919281,91.3091418 113.820747,93.0139369 111.808965,94.3633911 C109.797183,95.7128453 109.327295,96.4521776 109.217705,96.771413 C108.3801,99.2113533 112.486533,101.534214 116.051333,103.291703 C122.445415,106.444061 123.882147,108.852772 123.882147,110.245789 C123.882147,111.638806 122.336336,113.745486 121.327875,114.238201 C115.634233,117.020012 110.617852,117.540467 107.141075,118.629522 C103.251921,120.037464 98.2367855,121.435966 97.650307,124.880318 C97.2927111,126.980456 100.051813,129.26326 103.636542,130.74997 C107.221271,132.23668 111.694441,133.879151 114.114644,135.321666 C115.729996,136.284465 116.051333,137.537883 116.051333,138.660232 C116.051333,144.253885 104.643597,144.074181 101.750688,145.384505 C98.8577795,146.694828 100.889175,149.060392 101.321806,149.604411 C101.970794,150.420493 103.531633,151.500213 105.420726,152.87848 C110.617852,156.67026 107.524145,152.87848 109.54492,152.878482 C111.346484,152.878483 108.330287,154.473881 110.617852,156.129906 C112.905418,157.78593 118.217861,161.753393 120.737775,163.469565 C124.858022,166.275634 126.065203,170.509087 126.065203,174.330652 C126.065203,191.202874 128.990689,200.748612 128.990689,200.748612 L117.921559,200.346342 Z" id="algue-l4"></path>
                    <path d="M178.798974,188.269663 C182.213196,183.901677 184.736752,180.797281 183.907517,175.824719 C182.949665,170.080899 171.819768,165.043253 171.819768,159.550562 C171.819768,154.604156 177.867515,146.601182 177.978283,142.319101 C178.139058,136.103897 175.063242,136.090494 171.819767,134.341573 C166.392805,131.415289 160.765418,128.818563 162.515496,126.364045 C163.847108,124.496434 169.355056,122.48579 171.10087,120.78591 C172.846683,119.086031 172.617506,118.008326 168.261505,114.238202 C166.515692,112.727198 165.024805,111.697654 164.249077,109.298265 C163.473348,106.898876 166.841611,105.622472 171.819767,103.069663 C173.244119,102.339252 177.978283,101.155056 178.798974,97.3258427 C179.619665,93.4966292 173.047505,88.8574435 171.819767,86.7955056 C169.539742,82.9662921 173.690433,79.1370787 173.239661,74.6696629 C172.985322,72.1490102 168.843444,69.8831461 165.845496,66.6921348 C162.847548,63.5011236 161.533411,61.9377743 161.056238,59.9910112 C159.961226,55.5235955 164.249077,46.2696629 164.249077,46.2696629 C164.249077,46.2696629 159.185984,56.9424502 160.280509,60.3101124 C161.732465,64.7775281 164.750484,67.3303371 166.346903,68.9258427 C167.812746,70.3908463 171.465192,73.3932584 171.819767,74.988764 C172.174343,76.5842697 168.176738,84.1248758 169.539742,86.7955056 C171.819767,91.2629213 177.978283,94.7730337 176.563987,97.3258427 C175.274152,99.6539996 171.436512,100.258372 169.539742,101.155056 C162.789742,104.346067 161.056238,105.941573 161.732465,109.770787 C162.408693,113.6 168.261505,116.407199 168.261505,118.622332 C168.261505,120.837465 163.473348,121.896629 161.732465,123.255877 C159.991583,124.615124 158.828553,126.683146 160.280509,129.235955 C161.732465,131.788764 163.240061,132.232413 166.346903,134.341573 C171.273322,137.686 176.056907,138.643303 174.009716,143.595506 C171.962526,148.547708 167.304755,153.806742 167.304755,160.826966 C167.304755,165.851115 177.978283,172.633708 177.978283,176.782022 C177.978283,180.930337 173.198696,186.035955 166.346903,192.417978 C162.578549,195.927967 156.129819,200.24209 156.129819,200.24209 L168.261505,200.24209 C168.261505,200.24209 174.736286,193.467266 178.798974,188.269663 Z" id="algue-l6"></path>
                    <path d="M122.80969,200.445367 C122.80969,200.445367 133.460664,186.99326 133.460664,181.887642 C133.460664,176.106941 130.267824,173.271912 126.755702,167.847193 C124.979303,165.10342 122.285727,159.540908 121.647159,156.040451 C121.008592,152.539994 121.952681,151.383333 122.80969,150.257375 C123.759364,149.009671 124.747905,148.251155 127.46441,147.318026 C132.632355,145.542818 139.628837,144.006168 140.744665,140.723597 C141.326729,139.011269 138.058075,137.80516 136.973612,137.067992 C135.636622,136.159167 134.323303,135.40166 132.820633,132.924912 C132.284273,132.040866 131.840347,130.732611 132.288669,129.111949 C132.78001,127.335776 134.03185,126.774344 135.502731,126.427804 C136.973613,126.081264 140.425434,125.822899 144.535133,126.081264 C151.64996,126.528552 154.304835,126.482953 155.079134,125.292107 C155.853433,124.10126 152.859602,122.558643 150.487009,121.07895 C149.582839,120.515055 147.23438,119.095457 147.23438,116.737309 C147.23438,114.379161 155.805784,111.121084 157.508534,109.193701 C159.145293,107.341017 156.566982,103.168127 154.150683,100.336479 C151.088057,96.7474027 150.487009,93.5081028 150.487009,93.5081028 C150.487009,93.5081028 151.360112,96.169586 155.079134,99.9477473 C157.686422,102.596496 161.209503,107.976134 158.882261,109.858338 C156.345069,111.910344 151.863283,114.203297 150.487009,115.442327 C147.848346,117.817857 150.636135,119.375289 152.861143,120.581974 C155.771398,122.160288 158.876655,124.18596 159.261059,125.292107 C159.645463,126.398254 159.091688,127.061941 157.508535,127.510564 C155.192578,128.166844 151.300744,128.261638 146.52369,128.00912 C143.562721,127.852602 139.049359,127.681105 137.565574,128.453318 C136.386566,129.066913 135.954077,130.500527 136.46269,131.432804 C137.565574,133.454367 138.702986,134.286169 142.047877,136.222105 C143.904017,137.296391 146.071488,138.594689 146.071488,141.112698 C146.071488,142.114396 144.950492,143.419015 143.755365,144.394479 C141.906441,145.903573 136.759948,147.857985 135.502731,148.314032 C129.268038,150.575629 129.40288,150.850244 127.46441,152.539994 C125.52594,154.229744 125.478566,158.59326 133.460664,168.804496 C136.821841,173.10434 138.752469,177.248557 139.207773,181.887642 C139.677546,186.674159 136.481357,188.269665 134.418514,194.332586 C132.355672,200.395508 133.460664,200.445367 133.460664,200.445367 L122.80969,200.445367 Z" id="algue-l5"></path>
                </g>
            </g>
        </g>
    </g>
</svg>