<?xml version="1.0" encoding="UTF-8" standalone="no"?>
<svg width="768px" height="61px" viewBox="0 0 768 61" version="1.1" xmlns="http://www.w3.org/2000/svg" xmlns:xlink="http://www.w3.org/1999/xlink">
    <!-- Generator: Sketch 3.7.2 (28276) - http://www.bohemiancoding.com/sketch -->
    <title>rocks</title>
    <desc>Created with Sketch.</desc>
    <defs></defs>
    <g id="General-page" stroke="none" stroke-width="1" fill="none" fill-rule="evenodd">
        <g id="footer-slices" transform="translate(0.000000, -323.000000)">
            <g id="footer" transform="translate(0.000000, 12.000000)">
                <g id="rocks" transform="translate(384.000000, 341.786517) scale(-1, 1) translate(-384.000000, -341.786517) translate(0.000000, 310.786517)">
                    <path d="M0,61.2134842 L0,12.9042372 C0,12.9042372 43.0046948,12.9042377 60.258216,12.9042377 C69.0372133,12.9042377 79.8122066,0.985880337 91.8896714,0.985880337 C103.967136,0.985880337 112.746134,12.904238 121.220657,12.9042377 C138.474178,12.9042371 139.049296,0.985880337 152.276995,0.985880337 C165.504695,0.985880337 167.230047,12.9042377 183.333333,12.9042377 C199.43662,12.9042377 199.43662,0.985880337 213.239437,0.985880337 C227.042254,0.985880337 227.042254,12.9042377 244.295775,12.9042377 C261.549296,12.9042377 260.974178,0.985880337 275.352113,0.985880337 C289.730047,0.985880337 291.455399,12.9042377 306.983568,12.9042377 C322.511737,12.9042377 323.661972,0.985880394 336.314554,0.985880337 C348.967136,0.98588028 348.967136,12.9042382 366.220657,12.9042377 C383.474178,12.9042371 384.624413,0.985879027 397.852113,0.985880337 C411.079812,0.985881646 408.779343,12.9042371 427.183099,12.9042371 C445.586854,12.9042371 768,12.9042372 768,12.9042372 L768,61.2134842 L0,61.2134842 Z" id="rock" fill="#01080F"></path>
                    <text id="©---Site-réalisé-par" transform="translate(613.687059, 35.929213) scale(-1, 1) translate(-613.687059, -35.929213) " font-family="HelveticaNeueLT-Light, HelveticaNeue LT 45 Light" font-size="7.6692" font-weight="normal" fill="#8F98A2">
                        <tspan x="528.687059" y="38.4292135">© - Site réalisé par Antoine NOUVENE - Mars 2016</tspan>
                    </text>
                </g>
            </g>
        </g>
    </g>
</svg>