<?xml version="1.0" encoding="UTF-8" standalone="no"?>
<svg width="126px" height="41px" viewBox="0 0 126 41" version="1.1" xmlns="http://www.w3.org/2000/svg" xmlns:xlink="http://www.w3.org/1999/xlink">
    <!-- Generator: Sketch 39.1 (31720) - http://www.bohemiancoding.com/sketch -->
    <title>CENTRES D'INTERETS</title>
    <desc>Created with Sketch.</desc>
    <defs></defs>
    <g id="Page-1" stroke="none" stroke-width="1" fill="none" fill-rule="evenodd">
        <g id="Artboard" transform="translate(-98.000000, -105.000000)" stroke="#FFFFFF" fill="#FFFFFF">
            <g id="Boostrap-3-Grid" transform="translate(-98.000000, -89.000000)">
                <g id="[SM]-iPad-(768px-to-991px)-(SM-up-to-MD)">
                    <g id="Sidebar" transform="translate(264.500000, 276.500000) rotate(270.000000) translate(-264.500000, -276.500000) translate(-11.500000, 12.500000)">
                        <g id="ARTICLES-RÉCENTS" transform="translate(276.037526, 264.162104) rotate(257.000000) translate(-276.037526, -264.162104) translate(59.537526, 31.162104)">
                            <g id="label" transform="translate(216.569650, 233.212814) rotate(-59.000000) translate(-216.569650, -233.212814) translate(29.569650, 93.212814)">
                                <g id="ARTICLES-RÉCENTS" transform="translate(0.994669, 0.610834)">
                                    <path d="M156.360913,218.662626 C156.69242,218.878369 157.072466,219.033947 157.501092,219.1294 C158.206948,219.285352 158.904224,219.295498 159.593149,219.160771 C160.28221,219.025712 160.934709,218.784987 161.550791,218.439258 C162.167172,218.094092 162.736557,217.665531 163.259021,217.153952 C163.781857,216.643463 164.230845,216.092895 164.605955,215.502205 C164.981375,214.91257 165.254517,214.326989 165.425269,213.745037 C165.59617,213.163599 165.637446,212.627332 165.548959,212.135599 C165.460433,211.643555 165.226981,211.21481 164.848498,210.848753 C164.469849,210.481588 163.925823,210.215464 163.216414,210.050033 C162.684257,209.924939 162.149101,209.890893 161.611024,209.948332 C161.072982,210.005476 160.54704,210.146627 160.03327,210.372198 C159.519652,210.598018 159.025578,210.901172 158.551104,211.281994 C158.07688,211.663499 157.641424,212.115934 157.24476,212.639504 L158.105598,212.845738 C158.393456,212.465062 158.719688,212.124406 159.084301,211.823702 C159.449066,211.523416 159.833479,211.277144 160.237514,211.084705 C160.641652,210.892453 161.061034,210.764366 161.495623,210.700189 C161.930245,210.635864 162.354453,210.652236 162.768194,210.74902 C163.367604,210.888318 163.81292,211.115519 164.104155,211.430929 C164.395279,211.745625 164.563183,212.112343 164.607945,212.531527 C164.652695,212.950571 164.596198,213.399932 164.438547,213.880021 C164.281009,214.360499 164.050622,214.839243 163.747449,215.316493 C163.449613,215.786325 163.090625,216.236611 162.670513,216.667434 C162.250656,217.09901 161.790298,217.466955 161.289396,217.771048 C160.788707,218.075587 160.25517,218.291983 159.688686,218.419786 C159.122306,218.547428 158.540765,218.545342 157.94389,218.412805 C157.615985,218.339526 157.332032,218.221867 157.092009,218.059828 C156.851934,217.897453 156.66376,217.697255 156.527491,217.459307 C156.391181,217.221132 156.319429,216.948266 156.312267,216.640858 C156.305109,216.33343 156.368036,216.002376 156.501101,215.647877 L155.641631,215.445444 C155.415566,215.920019 155.30485,216.360867 155.309359,216.767592 C155.313881,217.174297 155.407412,217.537926 155.589893,217.8582 C155.7723,218.178067 156.02931,218.446261 156.360913,218.662626 Z M157.042754,208.860843 L154.524649,212.197529 L149.813664,210.408736 L149.298761,211.102557 L154.008283,212.888484 L151.717916,215.981354 L146.695615,214.08472 L146.183899,214.787336 L152.006509,216.975139 L158.367245,208.479493 L152.462988,206.224659 L151.945034,206.909401 L157.042754,208.860843 Z M146.253244,202.569055 L145.408448,202.113445 L138.37315,210.344032 L139.127328,210.75007 L145.07433,203.773026 L143.752325,213.192694 L144.591284,213.626888 L151.641472,205.410755 L150.888971,205.020665 L144.920652,211.956461 L146.253244,202.569055 Z M141.859297,199.012598 L134.670402,206.091087 L132.156791,204.233677 L131.525103,204.868319 L137.22749,209.04687 L137.859247,208.409999 L135.355485,206.592853 L142.544385,199.511444 L141.859297,199.012598 Z M132.250852,196.77924 C131.9396,196.518597 131.769835,196.249167 131.741653,195.971294 C131.713468,195.693386 131.770506,195.414328 131.912822,195.134277 C132.055211,194.854408 132.261904,194.575124 132.532945,194.29651 C132.804105,194.018205 133.079149,193.750695 133.358081,193.493955 C133.438528,193.415359 133.536276,193.324981 133.651332,193.222835 C133.766405,193.120735 133.878843,193.012735 133.988648,192.898836 C134.098473,192.784988 134.199753,192.6702 134.292489,192.554464 C134.385242,192.438774 134.452564,192.330806 134.494451,192.230538 L133.800778,191.584919 C133.766094,191.733769 133.676141,191.904307 133.530943,192.096608 C133.38579,192.289032 133.218069,192.481423 133.027785,192.673808 C132.837558,192.866343 132.643189,193.051618 132.444671,193.22963 C132.246208,193.407782 132.079271,193.559518 131.943836,193.684789 C131.704498,193.90894 131.496821,194.131288 131.320783,194.351803 C131.14481,194.572484 131.019116,194.794682 130.943673,195.018342 C130.868264,195.242083 130.848543,195.465278 130.884479,195.687844 C130.920408,195.910372 131.026664,196.138828 131.203206,196.37307 C130.64442,196.090949 130.072633,196.006215 129.464577,196.139811 C128.856598,196.273433 128.286379,196.568976 127.754138,197.027123 C127.378672,197.351077 127.106349,197.68395 126.937096,198.025604 C126.767952,198.367521 126.686741,198.700333 126.693387,199.023851 C126.700044,199.347368 126.782436,199.660629 126.940503,199.963456 C127.098498,200.26603 127.313172,200.543788 127.584498,200.796621 L130.6013,203.587101 L138.990455,196.364855 L138.365741,195.795717 L134.628941,198.970584 L132.250852,196.77924 Z M128.548532,197.475215 C128.806781,197.252695 129.074337,197.091681 129.351164,196.99205 C129.628027,196.892477 129.901757,196.842616 130.172329,196.842364 C130.442889,196.842037 130.701697,196.890247 130.948734,196.986917 C131.195724,197.083404 131.414669,197.220182 131.605566,197.397237 L133.947194,199.556433 L130.653153,202.416338 L128.309235,200.247042 C127.834474,199.804856 127.626475,199.34333 127.685562,198.863513 C127.744727,198.38385 128.032309,197.92091 128.548532,197.475215 Z M132.033806,190.171894 L128.46287,192.714918 L125.229584,188.821632 L124.495115,189.343675 L127.730092,193.242073 L124.477655,195.60392 L121.014311,191.414286 L120.282936,191.943566 L124.300307,196.802608 L133.318666,190.306085 L129.28633,185.476037 L128.548462,185.989412 L132.033806,190.171894 Z M128.009022,182.870281 C127.88579,182.411712 127.676558,181.95893 127.381216,181.511608 C127.08567,181.063602 126.780707,180.709047 126.466363,180.448103 C126.151875,180.186703 125.837765,179.996235 125.524075,179.876853 C125.210303,179.757227 124.909167,179.69441 124.620702,179.688536 C124.332216,179.682597 124.06482,179.704062 123.818529,179.752991 C123.572244,179.801937 123.353686,179.869592 123.162858,179.955987 C122.97205,180.042436 122.822963,180.117042 122.715587,180.179786 C122.32195,180.410054 122.020853,180.658931 121.812266,180.926361 C121.603773,181.194029 121.463833,181.476668 121.392409,181.774188 C121.321032,182.071812 121.299863,182.37992 121.328866,182.698418 C121.357868,183.016883 121.417568,183.339591 121.507943,183.666478 L122.164951,185.885657 C122.224135,186.07007 122.261847,186.254864 122.278098,186.440073 C122.294348,186.625272 122.282219,186.805109 122.241722,186.979624 C122.201241,187.154174 122.118811,187.321671 121.994443,187.482157 C121.87011,187.642727 121.696927,187.790513 121.474896,187.925534 C121.119736,188.14178 120.787014,188.269316 120.476635,188.30793 C120.166257,188.346523 119.880033,188.322492 119.617915,188.235731 C119.355745,188.14881 119.114539,188.008522 118.894271,187.814806 C118.673925,187.62086 118.480871,187.39737 118.315111,187.144348 C118.135065,186.869405 118.009869,186.578581 117.939561,186.271984 C117.86923,185.965294 117.861118,185.658855 117.915273,185.352789 C117.969472,185.046808 118.094305,184.754081 118.289816,184.474708 C118.485426,184.195569 118.761093,183.939458 119.116846,183.706418 L118.632955,182.965982 C118.142749,183.258493 117.762772,183.591949 117.492995,183.966307 C117.223399,184.341091 117.050872,184.736556 116.975336,185.152513 C116.899881,185.56863 116.914016,185.989007 117.017642,186.413397 C117.121219,186.8376 117.298725,187.241857 117.550085,187.625965 C117.905513,188.168705 118.29203,188.554614 118.709738,188.783986 C119.127251,189.012781 119.538269,189.141494 119.942909,189.170421 C120.347495,189.199159 120.728514,189.154177 121.086054,189.035685 C121.443642,188.917288 121.737805,188.787654 121.96855,188.646793 C122.341392,188.419482 122.624879,188.179435 122.81899,187.926583 C123.013186,187.673938 123.147481,187.415425 123.221847,187.150953 C123.296256,186.886575 123.318662,186.618784 123.289032,186.347475 C123.259399,186.076135 123.2049,185.804743 123.125516,185.533242 L122.522985,183.512549 C122.458561,183.30111 122.407376,183.076752 122.369436,182.839488 C122.331489,182.602186 122.328715,182.366532 122.361133,182.132578 C122.393572,181.898664 122.476194,181.675189 122.609025,181.462211 C122.741906,181.249357 122.94247,181.064252 123.210727,180.90691 C123.559548,180.702591 123.901815,180.596877 124.237451,180.589522 C124.573066,180.582101 124.886278,180.634778 125.177058,180.747445 C125.467768,180.859899 125.726481,181.013048 125.953198,181.206875 C126.179839,181.400458 126.35888,181.596934 126.490355,181.796388 C126.720339,182.145108 126.893667,182.497052 127.010399,182.852392 C127.127078,183.207531 127.160947,183.554686 127.112078,183.894081 C127.063251,184.233563 126.915937,184.56507 126.670197,184.888806 C126.42459,185.212884 126.054385,185.517883 125.559617,185.803921 L126.037701,186.526956 C126.630654,186.200951 127.090901,185.839212 127.418419,185.441653 C127.746149,185.044649 127.957311,184.631445 128.051819,184.201764 C128.146416,183.772285 128.132189,183.32858 128.009022,182.870281 Z M112.741542,172.397342 C112.955898,171.958386 113.304921,171.553883 113.788686,171.184031 C114.272715,170.814876 114.897486,170.468432 115.663027,170.144794 C116.428842,169.822002 117.115099,169.61455 117.72161,169.52186 C118.328116,169.429253 118.867781,169.454791 119.340498,169.598105 C119.813046,169.741007 120.226592,170.000303 120.581103,170.375819 C120.935383,170.750677 121.248486,171.243499 121.520415,171.854217 L122.287251,173.575128 L113.741703,177.293971 L112.962005,175.541554 C112.685488,174.919718 112.526001,174.349904 112.483737,173.832609 C112.44148,173.315253 112.52737,172.836716 112.741542,172.397342 Z M115.297902,169.322506 C113.603281,170.036811 112.485109,170.910976 111.943136,171.94378 C111.402239,172.979043 111.405221,174.163248 111.950486,175.492269 L113.280467,178.481383 L123.476433,174.023515 L122.17258,171.098514 C121.562457,169.829973 120.688445,169.039816 119.550677,168.729069 C118.411985,168.416122 116.99385,168.612345 115.297902,169.322506 Z M111.542932,167.537717 C111.693131,167.512965 111.843001,167.504689 111.99254,167.512874 C112.142072,167.521044 112.283173,167.545909 112.415846,167.587456 C112.548504,167.628972 112.651765,167.698542 112.725635,167.796166 L113.364232,167.591465 C113.244298,167.415534 113.09327,167.279728 112.911141,167.184048 C112.728974,167.088279 112.531736,167.022889 112.319429,166.987904 C112.107096,166.952869 111.887147,166.945916 111.659591,166.967084 C111.432027,166.988252 111.209267,167.033639 110.991319,167.103282 L109.401695,167.612801 L109.736987,168.689602 L111.310179,168.181246 L111.143376,167.64482 C111.259548,167.598174 111.392733,167.562477 111.542932,167.537717 Z M108.736241,164.986242 L119.484575,162.060114 L119.261768,161.193134 L108.504897,164.098857 L108.736241,164.986242 Z M117.50245,152.992078 L117.288677,152.005799 L106.367579,154.391682 L106.567664,155.294811 L115.798478,153.253155 L107.793696,160.832058 L108.015888,161.83617 L118.864635,159.278919 L118.674545,158.401383 L109.489104,160.541374 L117.50245,152.992078 Z M117.261769,146.841056 L107.038,148.010422 L106.703502,144.634258 L105.796029,144.733264 L106.562695,152.41741 L107.463948,152.303922 L107.129362,148.931866 L117.345073,147.742549 L117.261769,146.841056 Z M116.414229,141.742494 L111.987109,141.882947 L111.988585,136.509925 L111.073282,136.528686 L111.075799,141.912115 L107.018829,142.04308 L106.996946,136.245423 L106.079741,136.264169 L106.110817,143.002524 L117.320314,142.621672 L117.350387,135.975394 L116.436498,135.992621 L116.414229,141.742494 Z M105.197432,140.075177 L102.9599,138.323224 L102.967494,139.396074 L105.201268,140.773598 L105.197432,140.075177 Z M113.339879,130.040175 C113.364246,129.609759 113.484254,129.278286 113.699923,129.045866 C113.91566,128.813671 114.185824,128.64395 114.51038,128.536655 C114.83495,128.429527 115.199473,128.370245 115.603908,128.358717 C116.008283,128.347237 116.406119,128.346521 116.797422,128.356542 C116.914136,128.355928 117.051642,128.359034 117.209939,128.365855 C117.368224,128.372677 117.529856,128.373045 117.694843,128.366967 C117.859821,128.360898 118.020263,128.34783 118.176178,128.327769 C118.332088,128.307726 118.465561,128.274965 118.576606,128.22949 L118.687378,127.236099 C118.539752,127.323148 118.339113,127.386326 118.085436,127.425628 C117.831748,127.464985 117.563978,127.487755 117.282103,127.493912 C117.000199,127.500091 116.721875,127.497617 116.447118,127.486474 C116.172325,127.475332 115.939635,127.467271 115.749056,127.462292 C115.409992,127.455422 115.092428,127.470315 114.796375,127.507009 C114.500304,127.543765 114.234649,127.61873 113.999432,127.731955 C113.764236,127.845302 113.564549,127.999559 113.400382,128.194745 C113.236261,128.390074 113.111292,128.642336 113.025476,128.951522 C112.911614,128.321952 112.623407,127.832723 112.128989,127.481242 C111.634218,127.129088 111.027628,126.926229 110.309264,126.87312 C109.802017,126.835595 109.352611,126.881718 108.961149,127.011694 C108.569707,127.141912 108.241512,127.331543 107.976606,127.580631 C107.711787,127.83001 107.503286,128.129225 107.351103,128.478242 C107.199017,128.827495 107.10309,129.201364 107.063286,129.599747 L106.623118,134.046449 L117.863355,134.7065 L117.961958,133.802576 L112.975801,133.502376 L113.339879,130.040175 Z M110.43602,127.805935 C110.784398,127.831044 111.087284,127.909377 111.344675,128.040851 C111.601988,128.172198 111.815678,128.338687 111.985764,128.540319 C112.15579,128.741816 112.27767,128.971387 112.351434,129.229085 C112.425178,129.48671 112.447461,129.754274 112.41832,130.031872 L112.062201,133.447012 L107.630133,133.176987 L107.974921,129.730235 C108.045077,129.034404 108.298493,128.52686 108.735179,128.207859 C109.172026,127.889477 109.739072,127.755673 110.43602,127.805935 Z M118.769881,124.89505 L114.367778,124.175671 L115.566113,118.95061 L114.656226,118.791677 L113.460785,124.026576 L109.419495,123.358789 L110.682471,117.72332 L109.769204,117.561796 L108.309364,124.11404 L119.467398,125.927565 L120.986731,119.460652 L120.079939,119.303109 L118.769881,124.89505 Z M107.808642,122.178283 L106.463118,120.731654 L108.322183,119.860749 L108.514707,118.996412 L105.95756,120.131795 L105.7552,121.054852 L107.638056,122.952014 L107.808642,122.178283 Z M122.842254,115.316833 L112.745057,112.68115 L113.841819,109.496811 L112.943617,109.25448 L110.46295,116.528424 L111.357937,116.757831 L112.446633,113.5535 L122.539678,116.171441 L122.842254,115.316833 Z M125.447763,109.901218 C125.798517,109.517224 126.094394,109.072924 126.335421,108.568247 C126.576622,108.064133 126.726183,107.612578 126.784019,107.213226 C126.841905,106.813979 126.834618,106.459601 126.762104,106.149929 C126.68957,105.840164 126.572097,105.575131 126.409657,105.354787 C126.247162,105.1343 126.071754,104.946473 125.883429,104.791328 C125.695051,104.636072 125.505681,104.513083 125.315325,104.422396 C125.124929,104.331652 124.969707,104.265014 124.849675,104.22251 C124.409441,104.066535 124.006296,103.991526 123.64032,103.997688 C123.274283,104.003926 122.934707,104.071292 122.621635,104.199896 C122.308574,104.328722 122.015304,104.50239 121.741847,104.720961 C121.468444,104.939826 121.209058,105.185097 120.963695,105.456801 L119.322464,107.346103 C119.188667,107.507545 119.042113,107.652813 118.882792,107.781911 C118.723491,107.911109 118.552713,108.015107 118.370444,108.093891 C118.18818,108.172751 117.988183,108.214728 117.770428,108.219784 C117.552652,108.224866 117.318378,108.183922 117.067571,108.096886 C116.666153,107.957494 116.35828,107.779208 116.143994,107.562016 C115.929627,107.344652 115.785944,107.106606 115.712991,106.847945 C115.640016,106.589212 115.627448,106.313503 115.675324,106.020913 C115.723233,105.728388 115.813647,105.438988 115.94659,105.152785 C116.090995,104.842245 116.281645,104.564882 116.518543,104.32074 C116.755507,104.07687 117.028562,103.88167 117.337686,103.735109 C117.646831,103.588786 117.985308,103.505258 118.353067,103.484421 C118.720773,103.463683 119.114451,103.518513 119.534033,103.648731 L119.923867,102.823852 C119.371078,102.626494 118.845769,102.53813 118.348071,102.559111 C117.850268,102.580261 117.390763,102.688832 116.969647,102.885028 C116.548571,103.08166 116.176156,103.35071 115.852458,103.692249 C115.528887,104.034306 115.266455,104.422281 115.06516,104.856093 C114.780542,105.470651 114.65557,106.013151 114.690041,106.48298 C114.724521,106.952757 114.84557,107.354916 115.053104,107.689311 C115.260532,108.023444 115.521054,108.292438 115.834655,108.496332 C116.148123,108.700005 116.435239,108.846861 116.696064,108.93702 C117.117259,109.082516 117.498713,109.150138 117.840526,109.140073 C118.18229,109.130072 118.495053,109.069898 118.778867,108.959626 C119.062691,108.849522 119.319766,108.697242 119.550125,108.502818 C119.780529,108.308608 119.996657,108.095485 120.198522,107.863445 L121.693507,106.137016 C121.849066,105.956288 122.02409,105.777818 122.218584,105.601626 C122.413113,105.425599 122.626601,105.27755 122.859039,105.157458 C123.091492,105.037512 123.343673,104.962205 123.61556,104.931477 C123.887424,104.900822 124.173406,104.938468 124.473467,105.044293 C124.863421,105.181725 125.159335,105.374774 125.361264,105.623417 C125.563113,105.871862 125.696746,106.140598 125.762213,106.429721 C125.827664,106.718765 125.83708,107.009205 125.790497,107.301153 C125.743942,107.593164 125.66709,107.851357 125.559942,108.075776 C125.372517,108.468776 125.149301,108.821671 124.890282,109.134504 C124.631358,109.447722 124.332151,109.6936 123.99261,109.872093 C123.653105,110.050898 123.26454,110.149842 122.82682,110.168781 C122.389024,110.187834 121.897432,110.099195 121.351874,109.902525 L120.964231,110.730766 C121.601866,110.976871 122.196467,111.097441 122.748248,111.09296 C123.299896,111.08861 123.800012,110.984841 124.248744,110.781912 C124.697517,110.57946 125.097159,110.285857 125.447763,109.901218 Z" id="CENTRES-D'INTERETS"></path>
                                </g>
                            </g>
                        </g>
                    </g>
                </g>
            </g>
        </g>
    </g>
</svg>