<?xml version="1.0" encoding="UTF-8" standalone="no"?>
<svg width="95px" height="30px" viewBox="0 0 95 30" version="1.1" xmlns="http://www.w3.org/2000/svg" xmlns:xlink="http://www.w3.org/1999/xlink">
    <!-- Generator: Sketch 39.1 (31720) - http://www.bohemiancoding.com/sketch -->
    <title>COMPÉTENCES</title>
    <desc>Created with Sketch.</desc>
    <defs></defs>
    <g id="Page-1" stroke="none" stroke-width="1" fill="none" fill-rule="evenodd">
        <g id="Artboard" transform="translate(-117.000000, -45.000000)" stroke="#FFFFFF" fill="#FFFFFF">
            <g id="Boostrap-3-Grid" transform="translate(-98.000000, -89.000000)">
                <g id="[SM]-iPad-(768px-to-991px)-(SM-up-to-MD)">
                    <g id="Sidebar" transform="translate(264.500000, 276.500000) rotate(270.000000) translate(-264.500000, -276.500000) translate(-11.500000, 12.500000)">
                        <g id="ARTICLES-RÉCENTS" transform="translate(276.037526, 264.162104) rotate(257.000000) translate(-276.037526, -264.162104) translate(59.537526, 31.162104)">
                            <g id="label" transform="translate(216.569650, 233.212814) rotate(-59.000000) translate(-216.569650, -233.212814) translate(29.569650, 93.212814)">
                                <g id="ARTICLES-RÉCENTS" transform="translate(0.994669, 0.610834)">
                                    <path d="M89.0869784,220.807024 C89.6411022,220.366282 90.09461,219.900546 90.4476162,219.409268 C90.8003082,218.919792 91.0129279,218.434913 91.0856908,217.9535 C91.1584183,217.472397 91.0707957,217.006808 90.8230523,216.555481 C90.5755825,216.10281 90.1361801,215.692644 89.5050215,215.323917 C89.0319979,215.045563 88.5268572,214.849571 87.9894648,214.736537 C87.4522087,214.622753 86.8994859,214.590014 86.3311407,214.639057 C85.7627466,214.688333 85.1880026,214.815629 84.6067576,215.021692 C84.0252855,215.228981 83.4578634,215.515364 82.9043638,215.881501 L83.6680336,216.344503 C84.0699089,216.07765 84.4956135,215.860768 84.9452034,215.693591 C85.3946528,215.527176 85.845399,215.417446 86.2975292,215.363984 C86.7496172,215.310735 87.1955934,215.321683 87.6355594,215.396357 C88.075601,215.470613 88.4795716,215.616005 88.8475608,215.832145 C89.3810872,216.143661 89.7377099,216.488808 89.9172843,216.868456 C90.0970274,217.247281 90.1410518,217.637188 90.0491944,218.039069 C89.9572866,218.441304 89.7576578,218.842043 89.4501719,219.241991 C89.1424623,219.643222 88.7646561,220.022078 88.31669,220.378842 C87.8760313,220.731168 87.3822943,221.047855 86.8354718,221.328865 C86.288377,221.611412 85.7225833,221.822401 85.1381848,221.961218 C84.5536623,222.100747 83.9660451,222.146775 83.3754816,222.098384 C82.7850155,222.049483 82.222488,221.871707 81.6880903,221.563932 C81.3947073,221.39402 81.1585307,221.194863 80.9795386,220.966546 C80.8006396,220.737744 80.6844678,220.488652 80.6309807,220.21949 C80.5775347,219.950141 80.5979691,219.667768 80.692224,219.372705 C80.7864394,219.077912 80.9561323,218.78276 81.2012442,218.487592 L80.4370072,218.027042 C80.0623783,218.407229 79.8101599,218.792266 79.6804758,219.181441 C79.5507194,219.571108 79.5212195,219.947754 79.5920847,220.31077 C79.6630233,220.673454 79.8232664,221.009689 80.0728947,221.319047 C80.3226976,221.62749 80.6394318,221.892781 81.0231207,222.114836 C81.6555004,222.478315 82.3277131,222.698434 83.0395154,222.776622 C83.7514908,222.853903 84.4626233,222.81905 85.1726952,222.673381 C85.8826217,222.528565 86.574001,222.29118 87.2466745,221.96222 C87.9189625,221.63544 88.5324065,221.250289 89.0869784,220.807024 Z M74.6051228,210.098944 C73.9966767,210.503925 73.4797285,210.955282 73.0543304,211.452723 C72.6285724,211.952339 72.3383922,212.467515 72.1839722,212.997216 C72.0294476,213.527694 72.0318883,214.05674 72.1915274,214.583027 C72.3513725,215.108306 72.7085262,215.601354 73.2632397,216.060754 C73.8184799,216.517238 74.4341916,216.826719 75.1101747,216.990367 C75.7863939,217.152654 76.4794424,217.195796 77.1891061,217.121116 C77.8986929,217.046837 78.6053197,216.872132 79.3088089,216.598137 C80.0119556,216.326059 80.6678978,215.985627 81.2765738,215.57732 C81.884798,215.171571 82.3998854,214.728731 82.8219182,214.248454 C83.2435875,213.770281 83.5287053,213.282477 83.6774726,212.784001 C83.8261327,212.286248 83.8163179,211.788408 83.6482671,211.289164 C83.4804278,210.788906 83.1186272,210.313328 82.5630932,209.861043 C82.0080891,209.405914 81.3965422,209.085952 80.7282092,208.902268 C80.0601059,208.717225 79.3742877,208.644962 78.6705011,208.686738 C77.9666333,208.728832 77.2652718,208.873224 76.5661967,209.121062 C75.866776,209.370747 75.2131177,209.696528 74.6051228,210.098944 Z M75.2757439,210.671433 C75.7671897,210.345697 76.2968382,210.073133 76.8647442,209.853466 C77.4324071,209.635111 78.0080069,209.496344 78.5916828,209.436453 C79.1752779,209.376928 79.7471536,209.415485 80.3074934,209.551217 C80.8679743,209.686104 81.379383,209.943651 81.8419047,210.32301 C82.3114096,210.705766 82.6031124,211.105067 82.7168317,211.522014 C82.8306755,211.938377 82.8106616,212.352314 82.6566219,212.764749 C82.5024838,213.177819 82.2440259,213.57814 81.8811238,213.966349 C81.5179676,214.356025 81.0906145,214.714727 80.5990208,215.042612 C80.1154715,215.366568 79.5864575,215.647083 79.0119917,215.88398 C78.4372799,216.122254 77.8560951,216.282638 77.2685454,216.364414 C76.6809173,216.446605 76.105161,216.42933 75.5414248,216.311658 C74.9778308,216.19316 74.4613057,215.941504 73.9920102,215.555748 C73.5296931,215.173389 73.2434412,214.763348 73.1330647,214.326686 C73.0228124,213.889433 73.0467943,213.452946 73.2048453,213.018158 C73.3627996,212.584039 73.6266972,212.164204 73.9964263,211.759294 C74.3658985,211.35592 74.7923404,210.993281 75.2757439,210.671433 Z M63.2292356,204.300359 L64.0587055,205.312502 L74.5421784,203.274618 L68.1715688,210.169904 L69.0106089,211.128462 L78.6378957,205.956671 L78.0649891,205.321994 L69.7530231,209.746165 L75.9903155,202.982585 L75.4543652,202.367686 L65.1204451,204.29704 L73.4004955,199.970542 L72.834491,199.298471 L63.2292356,204.300359 Z M60.5857326,195.025468 C60.2873165,195.280049 60.0718689,195.563977 59.9394429,195.876958 C59.8069597,196.190343 59.7604467,196.521808 59.7999796,196.870923 C59.8395581,197.219853 59.9633514,197.577212 60.1714407,197.942536 L62.2408602,201.517327 L72.4793715,197.527253 L72.0301291,196.795423 L67.6545763,198.437366 L66.0217685,195.682704 C65.8125847,195.325153 65.5587963,195.024378 65.2603769,194.780423 C64.9620815,194.535729 64.6258484,194.354679 64.2516142,194.237527 C63.8774328,194.119984 63.4766628,194.071704 63.0492133,194.09312 C62.6217113,194.114725 62.1789141,194.211609 61.7207171,194.384321 C61.2623456,194.557949 60.8840119,194.771692 60.5857326,195.025468 Z M61.1024936,197.782533 C60.794415,197.244085 60.7174386,196.73924 60.87125,196.269836 C61.0249713,195.801115 61.4554514,195.431155 62.1624607,195.161078 C62.8690558,194.893187 63.4894224,194.861789 64.023999,195.064498 C64.558721,195.266203 64.9806264,195.632448 65.2898639,196.162673 L66.8234221,198.757959 L62.6303121,200.418193 L61.1024936,197.782533 Z M58.7879722,192.279979 L56.6293496,187.06068 L55.7704271,187.290632 L58.2734091,193.355483 L68.8501551,190.434781 L66.2824059,184.573402 L65.4293794,184.775235 L67.6418505,189.864228 L63.4734407,190.969986 L61.4373174,186.180695 L60.5810374,186.39819 L62.6145942,191.204758 L58.7879722,192.279979 Z M53.5641518,189.91782 L53.9578364,190.892524 L56.5855629,191.58672 L56.3265899,190.959035 L53.5641518,189.91782 Z M56.6430569,185.985273 L55.7114638,182.796195 L65.6130082,181.24286 L65.3537882,180.404781 L55.4582059,181.919558 L54.5350614,178.688597 L53.6592985,178.821755 L55.7629319,186.147387 L56.6430569,185.985273 Z M54.3865867,176.164373 L53.3523586,170.505463 L52.4677078,170.542058 L53.6645161,177.127638 L64.5818483,176.43445 L63.3191531,170.118139 L62.4388291,170.139903 L63.5240841,175.622387 L59.2200742,175.859911 L58.2320823,170.682526 L57.349254,170.713481 L58.3337499,175.912729 L54.3865867,176.164373 Z M52.5253416,167.35353 L52.6072191,168.377721 L63.5652452,168.921004 L63.4838917,168.053047 L54.2237504,167.545742 L62.9895743,162.696777 L62.9007654,161.719074 L52.0095989,160.776613 L52.0809434,161.699683 L61.3039173,162.450242 L52.5253416,167.35353 Z M57.9382633,159.393406 C58.6808257,159.530324 59.3983801,159.571731 60.0907957,159.518585 C60.7828872,159.466616 61.3963064,159.311242 61.9310244,159.052971 C62.4653555,158.796556 62.8956649,158.43061 63.2220377,157.954994 C63.5481196,157.481053 63.722184,156.891346 63.7445045,156.184601 C63.7612887,155.654542 63.6754686,155.151468 63.4871486,154.674682 C63.2990086,154.196989 63.0208226,153.756086 62.6526037,153.351678 C62.2845932,152.945985 61.8365695,152.581 61.3084705,152.256777 C60.7805149,151.931353 60.1845643,151.662688 59.5204736,151.451269 L59.4894523,152.32865 C59.9728519,152.479529 60.4214763,152.678483 60.8354118,152.925196 C61.2494297,153.171202 61.6089091,153.45168 61.9138956,153.766557 C62.2190112,154.08062 62.4569458,154.428471 62.627703,154.810245 C62.7985843,155.191374 62.8773666,155.588755 62.8639763,156.002884 C62.8446143,156.602951 62.6912283,157.09106 62.4036195,157.468119 C62.1157999,157.846372 61.7415662,158.130007 61.2808665,158.319061 C60.8199022,158.509352 60.3027321,158.617031 59.7293841,158.641702 C59.1558293,158.667084 58.5691701,158.623391 57.9694844,158.510037 C57.3798858,158.39854 56.800292,158.220909 56.2307945,157.976551 C55.6613653,157.731346 55.1558122,157.422331 54.7142144,157.049129 C54.2728107,156.674586 53.9236652,156.234442 53.6667921,155.728755 C53.4101458,155.221819 53.2942265,154.652972 53.3188976,154.023152 C53.3324703,153.677206 53.4037376,153.359145 53.5326487,153.069233 C53.6615045,152.779693 53.8424368,152.528597 54.0754135,152.316091 C54.3082847,152.10416 54.5926392,151.944193 54.9284704,151.836182 C55.2641756,151.72874 55.6408102,151.681874 56.0584077,151.695369 L56.0921639,150.802656 C55.5239816,150.735285 55.0180575,150.768883 54.5743145,150.903987 C54.1303547,151.040061 53.7522086,151.249911 53.439885,151.533592 C53.1273718,151.818306 52.8865148,152.160058 52.7173758,152.558581 C52.5481394,152.957769 52.4544248,153.3848 52.4363212,153.839197 C52.4065595,154.58765 52.535393,155.275963 52.8230173,155.902811 C53.1109665,156.527902 53.5097033,157.076528 54.0192201,157.548521 C54.5290361,158.018512 55.1239952,158.409452 55.8039847,158.721832 C56.4840994,159.032857 57.19558,159.256398 57.9382633,159.393406 Z M54.6467581,147.159644 L55.5267651,141.748759 L54.6622845,141.43166 L53.6359813,147.739618 L64.339087,151.23614 L65.3106129,145.203505 L64.4467463,144.897688 L63.603541,150.12707 L59.38042,148.740373 L60.1815614,143.792741 L59.3170646,143.482734 L58.5116922,148.452376 L54.6467581,147.159644 Z M65.9344716,137.665453 C65.7365394,137.490083 65.5432456,137.346905 65.3545656,137.236015 C65.1658965,137.125002 65.0133547,137.041843 64.8969281,136.986605 C64.4700401,136.7838 64.0905486,136.666369 63.7583788,136.634747 C63.4261392,136.603296 63.1279898,136.636486 62.8638998,136.734508 C62.5997109,136.832956 62.3607031,136.979006 62.1468677,137.172725 C61.9329316,137.366954 61.7358526,137.589524 61.5556319,137.840438 L60.3561052,139.596216 C60.2590625,139.747226 60.147685,139.880736 60.0219645,139.996763 C59.8962097,140.112967 59.7558744,140.202674 59.6009547,140.26587 C59.4460011,140.329217 59.2689228,140.353647 59.0697213,140.339096 C58.8704957,140.324609 58.6489401,140.261955 58.4050697,140.150987 C58.0148868,139.973164 57.7047615,139.764014 57.4747248,139.523456 C57.2447539,139.28246 57.0765973,139.026545 56.9702413,138.755822 C56.8639397,138.484821 56.8104375,138.201864 56.8097054,137.907131 C56.8089905,137.612369 56.8475774,137.324737 56.925435,137.0444 C57.0099366,136.740264 57.1415754,136.474623 57.3203162,136.247633 C57.4989741,136.0211 57.7178196,135.848151 57.9768451,135.728785 C58.2357691,135.60988 58.5309906,135.55836 58.862537,135.574042 C59.1940063,135.589945 59.5609561,135.685705 59.9634547,135.860936 L60.1875474,135.059806 C59.6539716,134.801342 59.1627606,134.656869 58.7137799,134.627158 C58.2646621,134.597819 57.8637585,134.662243 57.5110194,134.820785 C57.1580931,134.980174 56.8601987,135.219167 56.6173507,135.537785 C56.374347,135.857271 56.1937008,136.230136 56.0754788,136.65609 C55.9080818,137.259656 55.8754546,137.804247 55.9777759,138.288774 C56.080218,138.772769 56.2519736,139.19495 56.4930536,139.555164 C56.7342618,139.914623 57.0145795,140.21193 57.3339664,140.447268 C57.6534167,140.682088 57.9400763,140.8566 58.19391,140.97109 C58.6039599,141.155738 58.9654616,141.257841 59.2783706,141.277804 C59.5912192,141.297929 59.869435,141.264855 60.1130133,141.178716 C60.3565136,141.092917 60.568594,140.96228 60.7492648,140.786828 C60.9298629,140.611755 61.0941747,140.416426 61.2422129,140.200817 L62.3326397,138.59982 C62.4454573,138.432515 62.5763389,138.269478 62.7252762,138.110758 C62.8741599,137.952317 63.0448198,137.824126 63.237256,137.726177 C63.429632,137.628502 63.6472668,137.577977 63.890176,137.57451 C64.1330371,137.571197 64.4000973,137.638195 64.691406,137.775246 C65.0701175,137.953125 65.3725446,138.177148 65.5987492,138.447189 C65.825036,138.716726 65.9926144,138.999441 66.1014766,139.29548 C66.2104039,139.591201 66.268375,139.882549 66.2753574,140.169736 C66.2823593,140.456878 66.2558165,140.707218 66.1957009,140.92089 C66.0904578,141.295109 65.9453363,141.625974 65.7602921,141.913651 C65.575143,142.201914 65.3413311,142.419505 65.058831,142.566436 C64.7762018,142.713957 64.4348548,142.777577 64.0347988,142.757067 C63.6346392,142.736841 63.1671736,142.604127 62.6324896,142.358204 L62.4102266,143.154621 C63.0387052,143.456785 63.6072492,143.6293 64.1157169,143.673208 C64.6240363,143.717476 65.0680763,143.658397 65.4478038,143.496401 C65.8273209,143.335337 66.1457619,143.079582 66.4031537,142.729194 C66.6603582,142.379819 66.856376,141.965613 66.9912892,141.486268 C67.1261168,141.00754 67.1856779,140.572234 67.1700691,140.179793 C67.1545011,139.787245 67.0870288,139.432732 66.9676768,139.116046 C66.848401,138.798988 66.6958618,138.521838 66.5100445,138.28459 C66.3242895,138.046971 66.1324402,137.840565 65.9344716,137.665453 Z" id="COMPÉTENCES"></path>
                                </g>
                            </g>
                        </g>
                    </g>
                </g>
            </g>
        </g>
    </g>
</svg>