<?xml version="1.0" encoding="UTF-8" standalone="no"?>
<svg width="209px" height="100px" viewBox="0 0 209 100" version="1.1" xmlns="http://www.w3.org/2000/svg" xmlns:xlink="http://www.w3.org/1999/xlink">
    <defs>
        <path d="M127.054971,209.297914 L119.475229,208.345696 L119.364328,209.228478 L125.909085,210.050673 L125.369878,214.342817 L119.312172,213.581808 L119.201271,214.464589 L125.258977,215.225598 L124.765659,219.152452 L118.297004,218.339817 L118.186103,219.222598 L125.689744,220.165255 L127.054971,209.297914 Z M114.322285,212.635787 L119.365567,207.948031 L118.210902,207.699162 L113.893759,211.711735 L111.657805,206.286749 L110.428163,206.021719 L113.114102,212.343998 L108.330406,216.773858 L109.470075,217.019495 L113.570552,213.2113 L115.633284,218.347875 L116.832936,218.60644 L114.322285,212.635787 Z M109.621489,205.374192 L108.623874,205.069457 L107.252565,209.558725 L103.599534,208.442856 C103.130066,208.29945 102.68445,208.235509 102.262674,208.25103 C101.840899,208.26655 101.453503,208.362076 101.100474,208.537608 C100.747446,208.71314 100.440817,208.964327 100.180579,209.291175 C99.9203408,209.618023 99.7185219,210.016175 99.5751163,210.485643 C99.4317107,210.955112 99.3765985,211.398077 99.4097779,211.814554 C99.4429573,212.231031 99.5568876,212.610683 99.7515723,212.953522 C99.9462569,213.29636 100.21415,213.592053 100.55526,213.840608 C100.896371,214.089163 101.301654,214.28514 101.771122,214.428546 L106.421768,215.84915 L109.621489,205.374192 Z M105.684075,214.693508 L102.251105,213.64486 C101.556684,213.432739 101.048084,213.084906 100.725293,212.601349 C100.402501,212.117793 100.351648,211.514142 100.572731,210.790379 C100.793815,210.066615 101.173301,209.594418 101.711201,209.373771 C102.249101,209.153125 102.865253,209.148863 103.559675,209.360984 L106.992644,210.409632 L105.684075,214.693508 Z M100.549703,202.032226 L93.4791397,199.139761 L93.1422663,199.96324 L99.2473707,202.46075 L97.609469,206.464562 L91.9586979,204.152914 L91.6218245,204.976393 L97.2725956,207.288042 L95.7740898,210.951104 L89.7399749,208.482635 L89.4031015,209.306115 L96.4026748,212.169539 L100.549703,202.032226 Z M90.3117835,212.959486 L91.419221,213.412522 L93.7289532,212.020473 L93.0048594,211.724257 L90.3117835,212.959486 Z M92.3238356,198.145599 L91.395532,197.669834 L89.1776304,201.997368 L85.6555373,200.192261 C85.2093576,199.986573 84.9031121,199.737688 84.7367918,199.445599 C84.5704714,199.153509 84.4901294,198.839412 84.4957632,198.503297 C84.501397,198.167182 84.5723587,197.815715 84.7086504,197.448885 C84.844942,197.082055 84.9902756,196.725611 85.1446556,196.379543 C85.1868627,196.274767 85.240673,196.152957 85.3060882,196.014109 C85.3715034,195.875261 85.4312579,195.730641 85.4853537,195.580246 C85.5394495,195.429851 85.5843866,195.28051 85.6201664,195.132219 C85.6559462,194.983928 85.6698546,194.850287 85.661892,194.73129 L84.6380277,194.20655 C84.6775025,194.376172 84.6720119,194.583076 84.6215559,194.82727 C84.5710998,195.071463 84.4977215,195.321142 84.4014186,195.576313 C84.3051157,195.831484 84.2008794,196.079712 84.0887066,196.321004 C83.9765338,196.562296 83.8830199,196.767181 83.8081621,196.935664 C83.6771041,197.236227 83.5770198,197.526803 83.5079062,197.8074 C83.4387927,198.087998 83.4212429,198.357671 83.4552563,198.616427 C83.4892697,198.875182 83.5794527,199.119629 83.725808,199.349774 C83.8721632,199.579919 84.0929452,199.799368 84.3881604,200.008126 L84.3741674,200.035429 C83.6808928,199.841002 83.0583868,199.889688 82.5066307,200.181487 C81.9548745,200.473287 81.520414,200.928616 81.2032362,201.547488 C80.979346,201.984339 80.8642441,202.405116 80.8579272,202.80983 C80.8516103,203.214544 80.930217,203.588082 81.0937498,203.930456 C81.2572825,204.272829 81.4931372,204.586188 81.801321,204.870542 C82.1095047,205.154897 82.4638146,205.399687 82.8642613,205.60492 L87.3283096,207.892787 L92.3238356,198.145599 Z M86.805805,206.625234 L83.338318,204.848114 C82.6375363,204.488957 82.2005798,204.046675 82.0274353,203.521257 C81.8542909,202.995838 81.9216422,202.432801 82.2294913,201.832131 C82.3834158,201.531796 82.5767277,201.294746 82.8094326,201.120974 C83.0421376,200.947202 83.2960268,200.827384 83.571108,200.761517 C83.8461891,200.695649 84.133296,200.684787 84.4324373,200.72893 C84.7315787,200.773072 85.0222114,200.86744 85.3043443,201.012036 L88.7718314,202.789156 L86.805805,206.625234 Z M83.4492697,192.916479 L82.5711489,192.353449 L76.6593306,201.573717 L77.5374515,202.136748 L83.4492697,192.916479 Z M80.6944232,191.041867 L74.4007027,186.711937 L73.8964136,187.444941 L79.3307506,191.183635 L76.8788626,194.747549 L71.8489414,191.287083 L71.3446523,192.020087 L76.3745735,195.480553 L74.1313568,198.741155 L68.7602098,195.045934 L68.2559208,195.778937 L74.4864513,200.065394 L80.6944232,191.041867 Z M73.504459,185.500799 L72.6997159,184.837107 L66.8045646,191.98512 L66.7808957,191.965599 L67.7529122,180.75735 L66.8534934,180.015576 L59.8847218,188.465379 L60.689465,189.129072 L66.5846163,181.981059 L66.6082852,182.000579 L65.6362687,193.208829 L66.5356875,193.950603 L73.504459,185.500799 Z M53.8194432,177.029955 C53.4615468,177.482742 53.2209762,177.959943 53.0977243,178.461574 C52.9744723,178.963205 52.9470477,179.463771 53.0154498,179.963287 C53.0838519,180.462804 53.2373736,180.943093 53.4760196,181.40417 C53.7146655,181.865247 54.0169337,182.281618 54.3828332,182.653297 C54.9854912,183.265474 55.6257402,183.693533 56.3035995,183.937487 C56.9814587,184.181442 57.658704,184.271718 58.3353557,184.20832 C59.0120074,184.144922 59.6716195,183.947608 60.3142118,183.616374 C60.9568041,183.285139 61.5440968,182.857659 62.0761076,182.33392 C62.6081184,181.810182 63.0447489,181.22966 63.3860122,180.592337 C63.7272755,179.955014 63.9349009,179.298575 64.0088946,178.623 C64.0828883,177.947424 64.0032352,177.268848 63.769933,176.587249 C63.5366307,175.90565 63.1186569,175.258772 62.5159989,174.646595 C62.0640054,174.187463 61.5803943,173.841985 61.0651512,173.610152 C60.549908,173.37832 60.0193323,173.258458 59.4734081,173.250565 C58.9274839,173.242672 58.3753089,173.341394 57.8168664,173.546735 C57.258424,173.752076 56.7136022,174.065992 56.1823846,174.488495 L56.91418,175.231849 C57.2998678,174.923912 57.7084983,174.686666 58.1400838,174.520105 C58.5716693,174.353544 59.004447,174.264734 59.4384299,174.253671 C59.8724128,174.242608 60.3002718,174.320084 60.7220198,174.486099 C61.1437678,174.652115 61.5304113,174.91367 61.8819618,175.270774 C62.3913513,175.788209 62.7306051,176.329613 62.8997335,176.895004 C63.0688619,177.460394 63.1078571,178.02114 63.0167204,178.57726 C62.9255837,179.133379 62.7315617,179.668797 62.4346485,180.183531 C62.1377354,180.698264 61.7742936,181.167271 61.3443123,181.590567 C60.9216188,182.006688 60.4487958,182.360942 59.9258293,182.65334 C59.4028628,182.945738 58.862648,183.13314 58.3051688,183.215551 C57.7476896,183.297962 57.1876231,183.250184 56.6249525,183.072217 C56.0622818,182.89425 55.5262598,182.546554 55.0168703,182.029119 C54.7370648,181.744894 54.5117231,181.432174 54.3408382,181.090949 C54.1699534,180.749725 54.0588548,180.392704 54.0075391,180.019874 C53.9562233,179.647044 53.9754536,179.269349 54.0652305,178.886778 C54.1550074,178.504206 54.3170084,178.133054 54.5512385,177.773309 L53.8194432,177.029955 Z M58.5265427,169.961171 L53.7590576,163.992059 L53.0638598,164.547308 L57.1803631,169.701361 L53.8002636,172.401021 L49.9901047,167.630526 L49.294907,168.185775 L53.1050658,172.95627 L50.0126343,175.426172 L45.9439974,170.332051 L45.2487996,170.8873 L49.9684185,176.796481 L58.5265427,169.961171 Z M50.5509163,165.02094 C51.121329,164.678236 51.5506694,164.28507 51.8389503,163.841428 C52.1272313,163.397787 52.2935684,162.927809 52.3379665,162.431481 C52.3823647,161.935153 52.3133286,161.416042 52.130856,160.874133 C51.9483835,160.332225 51.6786939,159.793084 51.321779,159.256696 C50.9648641,158.720307 50.6099863,158.293128 50.2571349,157.975144 C49.9042835,157.657161 49.560583,157.422153 49.2260229,157.270114 C48.8914628,157.118074 48.5767038,157.032709 48.2817364,157.014014 C47.986769,156.99532 47.7165954,157.009265 47.4712076,157.055851 C47.2258197,157.102436 47.0109064,157.171738 46.826461,157.26376 C46.6420156,157.355781 46.4987105,157.435782 46.3965413,157.503766 C46.0219207,157.753039 45.7437195,158.027212 45.5619294,158.326291 C45.3801392,158.62537 45.269952,158.944362 45.2313643,159.283276 C45.1927766,159.62219 45.2066493,159.975327 45.2729829,160.342696 C45.3393165,160.710066 45.4375523,161.083839 45.5676932,161.464028 L46.4971762,164.051609 C46.5792426,164.267246 46.6393268,164.482152 46.6774306,164.696332 C46.7155343,164.910512 46.7238628,165.116863 46.7024163,165.315391 C46.6809697,165.513919 46.6155695,165.701769 46.5062138,165.878948 C46.396858,166.056126 46.2357563,166.215529 46.0229037,166.357162 C45.6823396,166.583774 45.3546321,166.709705 45.0397716,166.734957 C44.7249111,166.760209 44.4278438,166.715276 44.1485609,166.600159 C43.8692779,166.485041 43.6056512,166.310375 43.3576726,166.076157 C43.1096941,165.841938 42.8865652,165.575836 42.6882791,165.277843 C42.4729971,164.954307 42.3123309,164.615932 42.2062756,164.26271 C42.1002203,163.909488 42.0579811,163.559872 42.0795567,163.213852 C42.1011323,162.867832 42.1964363,162.540319 42.3654714,162.231301 C42.5345065,161.922283 42.7878941,161.643125 43.1256417,161.393819 L42.5477824,160.525385 C42.0795067,160.836977 41.7281923,161.199721 41.4938286,161.613628 C41.2594649,162.027535 41.1264796,162.469178 41.0948687,162.938572 C41.0632579,163.407966 41.1238203,163.886651 41.276558,164.374642 C41.4292957,164.862634 41.655792,165.332246 41.9560537,165.783494 C42.3809524,166.422051 42.8208893,166.88476 43.2758777,167.171632 C43.730866,167.458505 44.1682204,167.631195 44.5879537,167.689708 C45.0076871,167.748221 45.3948714,167.720906 45.7495182,167.607761 C46.104165,167.494616 46.3921674,167.364396 46.6135341,167.217098 C46.9711264,166.979155 47.2351323,166.72057 47.4055595,166.441335 C47.5759868,166.162101 47.6840213,165.872179 47.7296665,165.571563 C47.7753116,165.270946 47.7670718,164.963196 47.7049469,164.648303 C47.642822,164.333411 47.5551723,164.017082 47.441995,163.699308 L46.5888966,161.337285 C46.4983483,161.090441 46.4198683,160.829429 46.3534541,160.554242 C46.2870399,160.279055 46.2567868,160.007449 46.2626941,159.739416 C46.2686014,159.471383 46.3269684,159.217581 46.4377969,158.978004 C46.5486254,158.738427 46.7317485,158.533661 46.9871716,158.363702 C47.3192217,158.142755 47.6561311,158.035268 47.9979099,158.04124 C48.3396887,158.047212 48.6658024,158.121951 48.9762607,158.26546 C49.286719,158.408969 49.5694781,158.598542 49.8245463,158.834185 C50.0796145,159.069828 50.28646,159.306843 50.4450888,159.545238 C50.7226892,159.962429 50.9428485,160.380982 51.105573,160.800909 C51.2682976,161.220836 51.3452323,161.627209 51.3363795,162.02004 C51.3275266,162.412871 51.2165788,162.790717 51.0035326,163.153587 C50.7904865,163.516458 50.4469981,163.849427 49.973057,164.152505 L50.5509163,165.02094 Z M46.4515969,150.429329 L45.9933293,149.492265 L41.7765384,151.554469 L40.0984703,148.123159 C39.8828139,147.682185 39.6253671,147.312884 39.3261224,147.015247 C39.0268777,146.717609 38.6926334,146.499706 38.3233796,146.361531 C37.9541257,146.223357 37.5612562,146.170732 37.1447593,146.203656 C36.7282624,146.23658 36.2995335,146.360868 35.8585597,146.576524 C35.4175859,146.792181 35.0562486,147.054271 34.7745369,147.362804 C34.4928253,147.671336 34.2931451,148.013744 34.1754904,148.390039 C34.0578357,148.766335 34.0246073,149.163948 34.0758043,149.582893 C34.1270012,150.001838 34.2604259,150.43179 34.4760823,150.872764 L36.6124181,155.241139 L46.4515969,150.429329 Z M36.9534115,153.913199 L35.3764318,150.688594 C35.05744,150.03632 34.9644682,149.427209 35.0975135,148.86124 C35.2305588,148.295272 35.6369927,147.846059 36.3168273,147.513589 C36.9966619,147.181119 37.6007779,147.136126 38.1291933,147.37861 C38.6576087,147.621093 39.0813059,148.068465 39.4002977,148.720739 L40.9772774,151.945344 L36.9534115,153.913199 Z M42.6991318,141.518255 L42.3285145,140.543195 L37.7830138,142.270926 L36.3768481,138.571433 C36.1833201,138.119846 36.1226313,137.729914 36.1947797,137.401625 C36.2669282,137.073337 36.4176591,136.786296 36.6469772,136.540495 C36.8762952,136.294694 37.1644042,136.081251 37.5113128,135.90016 C37.8582215,135.719068 38.2048871,135.551746 38.5513201,135.398186 C38.6528406,135.348658 38.7743866,135.294254 38.9159618,135.234971 C39.0575369,135.175689 39.1987747,135.108329 39.3396793,135.032891 C39.4805839,134.957452 39.6139816,134.876662 39.7398764,134.790518 C39.8657713,134.704374 39.9656139,134.614457 40.0394074,134.520765 L39.6306383,133.445331 C39.546334,133.597721 39.4036694,133.747676 39.2026399,133.8952 C39.0016105,134.042724 38.7798865,134.178968 38.5374614,134.303934 C38.2950363,134.428901 38.0513711,134.543398 37.8064587,134.647429 C37.5615462,134.75146 37.3548747,134.840956 37.186438,134.915919 C36.8878023,135.05131 36.6188549,135.200033 36.3795876,135.362091 C36.1403203,135.52415 35.9466583,135.712634 35.7985957,135.92755 C35.6505331,136.142466 35.5537624,136.384381 35.5082806,136.653301 C35.4627989,136.922221 35.4797458,137.233051 35.5591217,137.585799 L35.5304435,137.5967 C35.1458981,136.987966 34.6510596,136.607153 34.0459134,136.454248 C33.4407671,136.301343 32.8131817,136.348429 32.1631385,136.595509 C31.7042844,136.769918 31.3369757,137.005259 31.0612015,137.30154 C30.7854273,137.59782 30.5935936,137.927835 30.4856946,138.291593 C30.3777956,138.655351 30.3430317,139.046008 30.3814017,139.463576 C30.4197717,139.881143 30.5188927,140.300229 30.6787677,140.720845 L32.461001,145.409737 L42.6991318,141.518255 Z M32.9220526,144.118562 L31.5376878,140.476426 C31.2579067,139.740347 31.229701,139.119261 31.4530699,138.613148 C31.6764388,138.107035 32.1035791,137.734078 32.7345034,137.494265 C33.0499656,137.374359 33.3522848,137.327826 33.6414701,137.354664 C33.9306553,137.381503 34.199431,137.462594 34.4478053,137.597939 C34.6961795,137.733284 34.9166401,137.917527 35.1091935,138.150674 C35.301747,138.38382 35.454341,138.648561 35.5669802,138.944904 L36.951345,142.58704 L32.9220526,144.118562 Z M34.5013847,133.753689 C35.2216229,133.557234 35.8864618,133.264589 36.4959213,132.875744 C37.1053808,132.486899 37.6076453,132.015995 38.0027301,131.463017 C38.3978148,130.910038 38.6603698,130.279264 38.7904028,129.570675 C38.9204359,128.862087 38.8724245,128.09342 38.6463674,127.264653 C38.4203103,126.435885 38.0720548,125.751764 37.6015905,125.212269 C37.1311262,124.672774 36.5853313,124.265138 35.9641894,123.989349 C35.3430475,123.713559 34.6712426,123.562898 33.9487546,123.537359 C33.2262666,123.51182 32.5049143,123.597277 31.784676,123.793731 C31.0644377,123.990186 30.3995988,124.282831 29.7901393,124.671676 C29.1806799,125.060521 28.6784153,125.531425 28.2833306,126.084403 C27.8882458,126.637382 27.6250181,127.265689 27.4936394,127.969345 C27.3622608,128.673001 27.4095994,129.439201 27.6356565,130.267968 C27.8617136,131.096735 28.2106419,131.783323 28.6824518,132.327751 C29.1542617,132.87218 29.7007294,133.282282 30.3218712,133.558071 C30.9430131,133.83386 31.614818,133.984522 32.337306,134.010061 C33.059794,134.0356 33.7811464,133.950143 34.5013847,133.753689 L34.5013847,133.753689 Z M34.2268881,132.747333 C33.654644,132.903421 33.0689519,132.981024 32.4697943,132.980147 C31.8706367,132.97927 31.3078103,132.878385 30.7812984,132.677487 C30.2547864,132.47659 29.7897182,132.160886 29.3860798,131.730367 C28.9824413,131.299848 28.6850905,130.734344 28.4940184,130.033839 C28.3056374,129.343199 28.2760177,128.709968 28.4051582,128.134127 C28.5342987,127.558285 28.7746588,127.050167 29.1262456,126.609757 C29.4778323,126.169346 29.9114851,125.796658 30.4272169,125.49168 C30.9429487,125.186702 31.4869284,124.956174 32.0591725,124.800086 C32.6412829,124.641308 33.2294415,124.563032 33.823666,124.565254 C34.4178905,124.567477 34.9782503,124.669035 35.5047622,124.869933 C36.0312742,125.07083 36.4963424,125.386534 36.8999809,125.817053 C37.3036193,126.247572 37.5996246,126.808143 37.7880055,127.498782 C37.9790776,128.199288 38.010043,128.837452 37.8809024,129.413293 C37.7517619,129.989135 37.5114019,130.497253 37.1598151,130.937663 C36.8082283,131.378074 36.3770421,131.750089 35.8662434,132.053722 C35.3554448,132.357354 34.8089985,132.588555 34.2268881,132.747333 L34.2268881,132.747333 Z M37.3534607,120.626475 L37.1887399,119.596443 L32.0385787,120.420047 L31.2101299,115.239591 L30.331573,115.380088 L31.1600218,120.560544 L27.2519583,121.185515 L26.3193478,115.353714 L25.4407909,115.494212 L26.5381222,122.356044 L37.3534607,120.626475 Z M36.4587013,112.445234 L35.8461987,104.830508 L34.9593431,104.901843 L35.4882108,111.476808 L31.1762575,111.823646 L30.6867474,105.737982 L29.7998918,105.809317 L30.2894019,111.894982 L26.3444233,112.212303 L25.8217053,105.713791 L24.9348497,105.785127 L25.5412026,113.3234 L36.4587013,112.445234 Z M32.6110191,103.874425 C33.2755364,103.909537 33.8513645,103.823893 34.3385207,103.617489 C34.825677,103.411085 35.2264987,103.114624 35.540998,102.728097 C35.8554972,102.34157 36.0887266,101.872693 36.2406931,101.321451 C36.3926596,100.77021 36.4707897,100.172463 36.4750858,99.5281945 C36.4793819,98.8839256 36.4242628,98.3313113 36.3097268,97.870335 C36.1951908,97.4093587 36.0418134,97.0222746 35.8495899,96.7090709 C35.6573665,96.3958673 35.44425,96.1490032 35.2102341,95.9684712 C34.9762181,95.7879392 34.7444895,95.6483323 34.5150413,95.5496463 C34.2855931,95.4509604 34.0686926,95.3881533 33.8643333,95.3612232 C33.6599739,95.3342931 33.4964378,95.3204192 33.3737199,95.3196008 C32.9237543,95.3166004 32.5397723,95.3881842 32.2217623,95.5343543 C31.9037523,95.6805245 31.6339471,95.8832612 31.4123387,96.1425706 C31.1907302,96.40188 31.0046445,96.7023295 30.854076,97.0439281 C30.7035074,97.3855268 30.575797,97.750283 30.4709408,98.1382077 L29.7935374,100.80291 C29.7409047,101.027552 29.670462,101.239288 29.582207,101.438125 C29.4939521,101.636962 29.3853993,101.81265 29.2565453,101.965195 C29.1276913,102.11774 28.9683818,102.236843 28.7786121,102.322506 C28.5888424,102.40817 28.3661297,102.450149 28.1104675,102.448444 C27.7014078,102.445716 27.359337,102.366734 27.0842446,102.211496 C26.8091522,102.056257 26.5880762,101.852804 26.4210098,101.60113 C26.2539434,101.349455 26.1331708,101.057187 26.0586884,100.724314 C25.9842059,100.391442 25.9481586,100.046047 25.9505454,99.68812 C25.9531367,99.2995134 26.0092969,98.9291667 26.1190276,98.5770687 C26.2287584,98.2249708 26.3893635,97.9115679 26.6008478,97.6368506 C26.812332,97.3621333 27.0745697,97.1440059 27.3875687,96.982462 C27.7005678,96.820918 28.0667731,96.7313188 28.4861955,96.7136617 L28.4931511,95.6705648 C27.9306941,95.6668143 27.4365574,95.7709006 27.010726,95.9828269 C26.5848946,96.1947533 26.2275689,96.4863908 25.9387381,96.8577483 C25.6499074,97.2291059 25.4322732,97.6597366 25.2858291,98.1496534 C25.139385,98.6395703 25.064357,99.155523 25.0607428,99.697527 C25.0556284,100.464514 25.1613678,101.094167 25.3779641,101.586504 C25.5945605,102.078842 25.8604276,102.466676 26.1755735,102.750019 C26.4907194,103.033361 26.82691,103.227355 27.1841552,103.332007 C27.5414005,103.436658 27.8529628,103.48987 28.1188516,103.491643 C28.5483642,103.494507 28.9118594,103.4279 29.2093482,103.29182 C29.5068371,103.15574 29.7585927,102.975893 29.9646227,102.752274 C30.1706528,102.528655 30.3360131,102.268975 30.4607085,101.973225 C30.585404,101.677475 30.6897472,101.366253 30.7737412,101.039551 L31.3882517,98.6045347 C31.4513154,98.3492816 31.5323084,98.0890385 31.6312331,97.8237976 C31.7301577,97.5585566 31.8570499,97.3165165 32.0119134,97.0976698 C32.1667769,96.8788232 32.3571575,96.7011238 32.5830608,96.5645664 C32.8089642,96.428009 33.0753093,96.3607542 33.382104,96.3628 C33.7809371,96.3654594 34.120315,96.464877 34.4002479,96.6610556 C34.6801807,96.8572342 34.9086538,97.101644 35.0856739,97.3942924 C35.262694,97.6869407 35.3909829,98.00227 35.4705445,98.3402897 C35.5501061,98.6783095 35.5889316,98.9904855 35.5870222,99.2768272 C35.5836808,99.7779253 35.5319689,100.248013 35.431885,100.687104 C35.3318011,101.126195 35.1681961,101.506052 34.9410653,101.826687 C34.7139344,102.147321 34.4105698,102.398411 34.0309622,102.579965 C33.6513545,102.761519 33.1803634,102.845306 32.6179746,102.831329 L32.6110191,103.874425 Z M33.1912554,93.8942156 C33.8496766,93.9906403 34.4309579,93.9586229 34.9351168,93.7981623 C35.4392756,93.6377017 35.8657998,93.3795848 36.2147019,93.023804 C36.5636041,92.6680231 36.8392016,92.2227279 37.0415026,91.687905 C37.2438037,91.1530822 37.3768863,90.5651247 37.4407544,89.9240149 C37.5046225,89.2829051 37.5008526,88.7275616 37.4294447,88.2579675 C37.3580368,87.7883735 37.2411194,87.3887623 37.0786891,87.059122 C36.9162588,86.7294816 36.7268891,86.463964 36.5105743,86.262561 C36.2942595,86.061158 36.0764369,85.9007163 35.8571,85.781231 C35.6377631,85.6617457 35.4276016,85.579146 35.2266092,85.5334296 C35.0256167,85.4877131 34.8640648,85.4587727 34.7419487,85.4466073 C34.2941895,85.402001 33.9052324,85.4377623 33.5750659,85.5538922 C33.2448994,85.670022 32.9574991,85.8469346 32.7128563,86.0846351 C32.4682135,86.3223357 32.2551359,86.6042856 32.0736173,86.9304934 C31.8920987,87.2567012 31.7311983,87.6080815 31.5909112,87.9846448 L30.6699452,90.5752694 C30.5967603,90.7940801 30.5070354,90.9983932 30.4007678,91.1882148 C30.2945002,91.3780364 30.1701627,91.5429312 30.0277517,91.6829042 C29.8853407,91.8228771 29.715698,91.926734 29.5188185,91.994478 C29.3219389,92.0622221 29.0962982,92.0834215 28.8418896,92.0580771 C28.4348358,92.0175259 28.1015365,91.9072433 27.8419819,91.7272261 C27.5824273,91.5472089 27.3811169,91.3241797 27.2380448,91.0581319 C27.0949727,90.7920841 27.0017506,90.4898974 26.9583758,90.1515628 C26.9150011,89.8132283 26.9110549,89.4659801 26.9465372,89.109808 C26.9850608,88.7231069 27.0752347,88.3595422 27.2170617,88.0191029 C27.3588887,87.6786637 27.547793,87.3814591 27.7837801,87.1274802 C28.0197672,86.8735014 28.3010561,86.6805642 28.6276551,86.5486629 C28.9542541,86.4167617 29.3271768,86.361418 29.7464346,86.3826302 L29.8498395,85.3446482 C29.2901405,85.2888903 28.7884947,85.3468262 28.344887,85.5184577 C27.9012793,85.6900891 27.5185108,85.9474263 27.1965702,86.2904771 C26.8746296,86.6335279 26.618098,87.042183 26.4269678,87.5164547 C26.2358376,87.9907264 26.1134091,88.4975278 26.0596788,89.0368741 C25.9836454,89.8001001 26.030693,90.4368339 26.200823,90.9470947 C26.3709531,91.4573556 26.5998086,91.8681182 26.8873963,92.1793948 C27.1749841,92.4906715 27.4917904,92.7149293 27.8378247,92.852175 C28.183859,92.9894208 28.4891641,93.0712215 28.7537491,93.0975798 C29.1811556,93.1401585 29.5492534,93.1074578 29.8580534,92.9994767 C30.1668535,92.8914957 30.4341645,92.7357055 30.6599945,92.5321014 C30.8858246,92.3284974 31.0744947,92.0852247 31.2260104,91.802276 C31.3775262,91.5193274 31.5102079,91.2190911 31.6240596,90.9015583 L32.4611579,88.5338178 C32.5475605,88.2854918 32.652277,88.0338556 32.7753105,87.7789015 C32.898344,87.5239474 33.0470793,87.2946814 33.2215207,87.0910967 C33.3959622,86.8875119 33.6019626,86.7281832 33.8395282,86.6131056 C34.0770939,86.4980281 34.3485178,86.4556967 34.6538082,86.4861101 C35.0506856,86.5256474 35.3794133,86.6560289 35.640001,86.8772584 C35.9005887,87.0984879 36.1054761,87.3629822 36.2546695,87.6707492 C36.4038628,87.9785162 36.5024361,88.3043596 36.5503921,88.6482892 C36.5983482,88.9922189 36.6081331,89.3066478 36.5797473,89.5915855 C36.5300721,90.0902264 36.4351021,90.5535159 36.2948343,90.9814679 C36.1545665,91.4094198 35.9565288,91.7725162 35.7007151,92.070768 C35.4449015,92.3690197 35.1196131,92.5909745 34.7248403,92.7366389 C34.3300675,92.8823033 33.8533456,92.9221678 33.2946604,92.8562336 L33.1912554,93.8942156 Z M38.3498688,84.0908799 L38.5488994,83.0669238 L27.79736,80.9771026 L27.5983294,82.0010587 L38.3498688,84.0908799 Z M33.6041733,80.198831 C34.3319782,80.3650764 35.0562669,80.420374 35.7770612,80.3647256 C36.4978556,80.3090771 37.1627925,80.1305284 37.7718919,79.8290741 C38.3809914,79.5276197 38.9098799,79.0950831 39.3585736,78.5314513 C39.8072672,77.9678194 40.1272572,77.2672769 40.3185533,76.4298028 C40.5098494,75.5923286 40.5251918,74.8248209 40.364581,74.1272566 C40.2039702,73.4296923 39.9147675,72.8129095 39.4969641,72.2768898 C39.0791608,71.74087 38.5576938,71.2913225 37.9325475,70.9282339 C37.3074013,70.5651453 36.6309358,70.3004822 35.9031309,70.1342368 C35.175326,69.9679914 34.4510373,69.9126938 33.730243,69.9683422 C33.0094487,70.0239907 32.3445118,70.2025394 31.7354123,70.5039937 C31.1263129,70.8054481 30.5979936,71.2354923 30.1504387,71.7941391 C29.7028837,72.352786 29.383463,73.0508361 29.1921669,73.8883102 C29.0008708,74.7257844 28.9849591,75.4957845 29.1444312,76.1983338 C29.3039033,76.900883 29.5925368,77.5201583 30.0103401,78.0561781 C30.4281435,78.5921978 30.9496104,79.0417453 31.5747567,79.4048339 C32.199903,79.7679225 32.8763684,80.0325856 33.6041733,80.198831 L33.6041733,80.198831 Z M33.8364603,79.1819032 C33.2582043,79.0498178 32.7050834,78.8421765 32.1770811,78.5589732 C31.6490787,78.2757699 31.20026,77.9214915 30.8306115,77.4961274 C30.460963,77.0707633 30.1996206,76.5731115 30.0465765,76.003157 C29.8935325,75.4332025 29.8978558,74.7943024 30.0595465,74.0864373 C30.2189599,73.3885422 30.4913286,72.816114 30.8766608,72.3691356 C31.261993,71.9221572 31.7134899,71.5873324 32.2311652,71.364651 C32.7488404,71.1419697 33.3069696,71.0176986 33.9055693,70.9918341 C34.504169,70.9659696 35.092588,71.0190792 35.670844,71.1511646 C36.2590699,71.2855274 36.8146832,71.4937379 37.3377006,71.7758026 C37.860718,72.0578672 38.3070442,72.4115763 38.6766928,72.8369404 C39.0463413,73.2623045 39.3076837,73.7599563 39.4607277,74.3299108 C39.6137718,74.8998653 39.6105871,75.5337806 39.4511737,76.2316757 C39.289483,76.9395407 39.0159756,77.5169538 38.6306435,77.9639322 C38.2453113,78.4109106 37.7938143,78.7457354 37.2761391,78.9684168 C36.7584638,79.1910981 36.2028271,79.3159385 35.6092124,79.3429417 C35.0155976,79.3699449 34.4246861,79.3162659 33.8364603,79.1819032 L33.8364603,79.1819032 Z M42.3164217,69.9614516 L42.6577232,68.9757475 L33.9023512,65.9441871 L33.9123895,65.9151958 L44.7557236,62.9165662 L45.1371783,61.8148969 L34.7872849,58.2312311 L34.4459834,59.2169352 L43.2013554,62.2484956 L43.1913171,62.2774869 L32.3479829,65.2761165 L31.9665283,66.3777858 L42.3164217,69.9614516 Z M46.4687851,59.9944126 L46.9086615,59.0485753 L38.507401,55.1414381 L38.5203386,55.1136194 L49.6126074,53.234458 L50.1042339,52.1773458 L40.1729426,47.5586439 L39.7330663,48.5044811 L48.1343267,52.4116183 L48.1213891,52.439437 L37.0291203,54.3185985 L36.5374938,55.3757107 L46.4687851,59.9944126 Z M51.612965,50.4906634 L55.518576,43.925192 L54.7539227,43.4703217 L51.381608,49.139303 L47.663811,46.9276919 L50.7851628,41.6805883 L50.0205095,41.225718 L46.8991577,46.4728216 L43.4977689,44.4494327 L46.8308707,38.8463698 L46.0662174,38.3914995 L42.1998194,44.8910524 L51.612965,50.4906634 Z M56.6690304,42.9442579 L60.8583833,37.1142419 L60.1358599,36.5950486 L56.5552165,41.5779683 L48.3832281,35.705713 L47.7745187,36.5528093 L56.6690304,42.9442579 Z M61.8115191,36.4951353 L66.7451992,30.662639 L66.0659124,30.0880337 L61.8059076,35.1241249 L58.5031688,32.3303542 L62.44615,27.669042 L61.7668633,27.0944367 L57.823882,31.7557489 L54.8022274,29.199746 L59.0126973,24.2222141 L58.3334105,23.6476088 L53.4492655,29.4215458 L61.8115191,36.4951353 Z M65.1168371,27.7151256 C65.5632339,28.2086294 66.0319042,28.5539717 66.5228619,28.7511628 C67.0138195,28.9483539 67.5070712,29.0208107 68.0026315,28.9685354 C68.4981918,28.91626 68.9942024,28.748286 69.4906782,28.4646083 C69.9871539,28.1809306 70.4640725,27.8122117 70.9214483,27.3584405 C71.378824,26.9046693 71.7294395,26.4739844 71.9733052,26.0663729 C72.217171,25.6587614 72.3813895,25.2761506 72.4659658,24.918529 C72.5505421,24.5609074 72.5735231,24.2355885 72.5349094,23.9425625 C72.4962958,23.6495365 72.430444,23.3871403 72.3373522,23.155366 C72.2442605,22.9235917 72.134764,22.7261047 72.0088594,22.5628993 C71.8829549,22.3996939 71.776788,22.2745334 71.6903553,22.1874142 C71.3734358,21.8679772 71.0507042,21.6479527 70.722151,21.5273342 C70.3935977,21.4067157 70.0593327,21.3601975 69.719346,21.3877782 C69.3793593,21.415359 69.0355475,21.4971591 68.6879004,21.6331811 C68.3402533,21.7692031 67.9924826,21.9377636 67.644578,22.1388675 L65.2851721,23.550504 C65.08944,23.6726642 64.890181,23.7731145 64.6873892,23.8518581 C64.4845975,23.9306016 64.2837381,23.9786185 64.0848051,23.9959101 C63.8858722,24.0132017 63.6889288,23.9853051 63.4939691,23.9122194 C63.2990094,23.8391338 63.1114984,23.7118437 62.9314305,23.5303454 C62.6433218,23.2399481 62.4564831,22.9427244 62.3709087,22.6386655 C62.2853343,22.3346065 62.2720591,22.0344538 62.3310826,21.7381983 C62.3901061,21.4419429 62.5105798,21.1495506 62.6925072,20.8610128 C62.8744346,20.572475 63.0924439,20.3021626 63.3465415,20.0500675 C63.622419,19.7763642 63.9234013,19.5533837 64.2494975,19.3811193 C64.5755937,19.2088548 64.9104737,19.0999019 65.2541476,19.0542571 C65.5978215,19.0086124 65.9375742,19.0388818 66.273416,19.1450662 C66.6092578,19.2512507 66.9320895,19.4459659 67.2419208,19.7292177 L67.9824302,18.9945442 C67.5862808,18.5952479 67.1625267,18.3205888 66.7111554,18.1705587 C66.259784,18.0205285 65.8007734,17.9753247 65.3341098,18.0349458 C64.8674462,18.0945668 64.4094638,18.2464208 63.960149,18.4905121 C63.5108342,18.7346035 63.0937948,19.0475165 62.7090184,19.4292605 C62.1645235,19.9694643 61.7954723,20.4904679 61.601854,20.9922869 C61.4082357,21.4941059 61.3232458,21.9565748 61.3468819,22.3797074 C61.370518,22.80284 61.4720824,23.1774632 61.6515782,23.503588 C61.831074,23.8297128 62.0144544,24.0871505 62.2017251,24.2759087 C62.5042392,24.5808259 62.8089356,24.789932 63.1158235,24.9032334 C63.4227114,25.0165347 63.7280372,25.0665541 64.0318101,25.053293 C64.335583,25.0400318 64.6359502,24.9725225 64.9329209,24.8507629 C65.2298915,24.7290033 65.5233422,24.5819219 65.8132818,24.4095144 L67.966124,23.1163789 C68.1908386,22.9798705 68.4317843,22.8524676 68.6889684,22.7341663 C68.9461524,22.615865 69.2068052,22.5337359 69.4709345,22.4877765 C69.7350638,22.441817 69.995359,22.4500781 70.2518279,22.5125599 C70.5082968,22.5750418 70.7445684,22.7151796 70.9606499,22.9329776 C71.2415559,23.2161149 71.4120744,23.5259289 71.4722104,23.8624286 C71.5323464,24.1989284 71.5219843,24.5333364 71.4411237,24.8656627 C71.3602632,25.197989 71.2288569,25.5120319 71.0469009,25.8078011 C70.8649448,26.1035702 70.6723306,26.3522891 70.4690525,26.5539652 C70.1133158,26.9068983 69.7451515,27.2037342 69.3645486,27.4444817 C68.9839457,27.6852292 68.6000762,27.8391841 68.2129285,27.9063512 C67.8257809,27.9735183 67.4336232,27.9376181 67.0364439,27.7986495 C66.6392646,27.6596809 66.2462361,27.3869512 65.8573465,26.9804522 L65.1168371,27.7151256 Z" id="path-1"></path>
        <filter x="-50%" y="-50%" width="200%" height="200%" filterUnits="objectBoundingBox" id="filter-2">
            <feOffset dx="0" dy="1" in="SourceAlpha" result="shadowOffsetOuter1"></feOffset>
            <feGaussianBlur stdDeviation="0.5" in="shadowOffsetOuter1" result="shadowBlurOuter1"></feGaussianBlur>
            <feColorMatrix values="0 0 0 0 0   0 0 0 0 0   0 0 0 0 0  0 0 0 0.5 0" type="matrix" in="shadowBlurOuter1"></feColorMatrix>
        </filter>
    </defs>
    <g id="Page-1" stroke="none" stroke-width="1" fill="none" fill-rule="evenodd">
        <g id="Boostrap-3-Grid" transform="translate(-102.000000, -101.000000)">
            <g id="[SM]-iPad-(768px-to-991px)-(SM-up-to-MD)">
                <g id="Sidebar" transform="translate(198.000000, 199.500000) rotate(270.000000) translate(-198.000000, -199.500000) translate(-1.000000, 2.000000)">
                    <g id="ARTICLES-RÉCENTS" transform="translate(199.157633, 197.439385) rotate(257.000000) translate(-199.157633, -197.439385) translate(35.657633, 31.439385)">
                        <g id="label" transform="translate(163.432366, 165.897530) rotate(-59.000000) translate(-163.432366, -165.897530) translate(39.432366, 50.397530)">
                            <g id="ARTICLES-RÉCENTS" transform="translate(0.107348, 0.699086)">
                                <g id="EXPÉRIENCES-PROFESSI" transform="translate(75.994910, 119.087384) scale(-1, -1) rotate(165.000000) translate(-75.994910, -119.087384) ">
                                    <use fill="black" fill-opacity="1" filter="url(#filter-2)" xlink:href="#path-1"></use>
                                    <use fill="#000000" fill-rule="evenodd" xlink:href="#path-1"></use>
                                </g>
                            </g>
                        </g>
                    </g>
                </g>
            </g>
        </g>
    </g>
</svg>