<?xml version="1.0" encoding="UTF-8" standalone="no"?>
<svg width="86px" height="23px" viewBox="0 0 86 23" version="1.1" xmlns="http://www.w3.org/2000/svg" xmlns:xlink="http://www.w3.org/1999/xlink">
    <!-- Generator: Sketch 39.1 (31720) - http://www.bohemiancoding.com/sketch -->
    <title>FORMATIONS</title>
    <desc>Created with Sketch.</desc>
    <defs></defs>
    <g id="Page-1" stroke="none" stroke-width="1" fill="none" fill-rule="evenodd">
        <g id="Artboard" transform="translate(-110.000000, -25.000000)" stroke="#FFFFFF" fill="#FFFFFF">
            <g id="Boostrap-3-Grid" transform="translate(-98.000000, -89.000000)">
                <g id="[SM]-iPad-(768px-to-991px)-(SM-up-to-MD)">
                    <g id="Sidebar" transform="translate(264.500000, 276.500000) rotate(270.000000) translate(-264.500000, -276.500000) translate(-11.500000, 12.500000)">
                        <g id="ARTICLES-RÉCENTS" transform="translate(276.037526, 264.162104) rotate(257.000000) translate(-276.037526, -264.162104) translate(59.537526, 31.162104)">
                            <g id="label" transform="translate(216.569650, 233.212814) rotate(-59.000000) translate(-216.569650, -233.212814) translate(29.569650, 93.212814)">
                                <g id="ARTICLES-RÉCENTS" transform="translate(0.994669, 0.610834)">
                                    <path d="M63.7334768,235.200485 L60.7954757,237.64732 L56.8338677,234.020191 L56.1722163,234.570109 L60.8356985,238.837867 L68.9514507,232.068059 L68.2497038,231.428381 L64.3928384,234.650591 L60.8729261,231.430186 L60.2135265,231.979822 L63.7334768,235.200485 Z M59.4061481,222.377237 C58.7714598,222.127814 58.1171248,222.010194 57.4429506,222.024393 C56.7687737,222.038573 56.0947159,222.170117 55.4206061,222.41905 C54.7462926,222.667993 54.1141767,223.003933 53.5241704,223.426897 C52.933869,223.849894 52.4301359,224.328053 52.0129936,224.861396 C51.595607,225.39478 51.3074451,225.952907 51.1486319,226.535785 C50.989752,227.118695 50.9807009,227.71183 51.1216543,228.315186 C51.2627755,228.918548 51.5927006,229.504529 52.1116411,230.073107 C52.631017,230.641637 53.2111866,231.052267 53.8520114,231.305007 C54.4930624,231.557697 55.1528635,231.676679 55.8312632,231.661976 C56.5096609,231.647244 57.1876919,231.515055 57.8652301,231.265429 C58.5425706,231.01581 59.1767057,230.679255 59.7675851,230.255777 C60.358174,229.832336 60.8609574,229.353909 61.2759841,228.820491 C61.6907643,228.287119 61.9754652,227.729216 62.1302252,227.146751 C62.2849107,226.564319 62.2881319,225.970123 62.1400682,225.364118 C61.9921692,224.758111 61.6580648,224.171178 61.1379493,223.603259 C60.6182724,223.035288 60.0410641,222.626616 59.4061481,222.377237 Z M52.0254192,228.105119 C51.929771,227.603342 51.9621774,227.11346 52.1225154,226.635472 C52.2827894,226.157508 52.5439444,225.70233 52.9059063,225.269928 C53.2676945,224.837554 53.6831006,224.453319 54.1521285,224.117205 C54.6290523,223.775317 55.1414041,223.494588 55.6892348,223.275 C56.23692,223.055419 56.7904565,222.926667 57.3499541,222.888723 C57.9094307,222.850769 58.4554227,222.926058 58.9880705,223.114581 C59.5208624,223.303074 60.0037129,223.633989 60.436757,224.107332 C60.8762984,224.5874 61.1453193,225.078048 61.2436664,225.579323 C61.3421109,226.0806 61.3126442,226.57006 61.1551411,227.047736 C60.9975697,227.525436 60.7407035,227.97903 60.3844569,228.408537 C60.0280386,228.838075 59.6111933,229.223939 59.1338942,229.566135 C58.6644995,229.902554 58.1528873,230.182231 57.5990709,230.405163 C57.0451096,230.628102 56.4869177,230.758741 55.9245719,230.797069 C55.362206,230.83538 54.8134953,230.760329 54.2785443,230.571901 C53.7437346,230.383438 53.2567667,230.04896 52.8177528,229.568457 C52.3852269,229.094687 52.1211688,228.606903 52.0254192,228.105119 Z M50.7019634,215.873971 C50.8825469,215.619198 51.125883,215.37989 51.4319548,215.156041 C51.7379433,214.9322 52.0460034,214.720077 52.3561494,214.519664 C52.4462345,214.457101 52.5549312,214.386341 52.6822385,214.307383 C52.8095335,214.228426 52.9350823,214.1427 53.0588875,214.050203 C53.1826787,213.957707 53.2982296,213.862207 53.4055445,213.763699 C53.5128467,213.665192 53.5941707,213.568785 53.6495241,213.474473 L53.0654024,212.646973 C53.0100232,212.79311 52.8975383,212.949038 52.7279248,213.114763 C52.5582775,213.280493 52.3665342,213.440878 52.1526836,213.595923 C51.9387923,213.750972 51.721841,213.897412 51.5018257,214.035247 C51.281773,214.173085 51.0963459,214.290851 50.9455535,214.388545 C50.6785858,214.563863 50.4427371,214.744446 50.2380093,214.930299 C50.0332362,215.116158 49.8773509,215.315137 49.7703655,215.527244 C49.663357,215.739356 49.6109133,215.963917 49.6130577,216.200933 C49.6152122,216.437952 49.6854161,216.697783 49.8237141,216.980429 C49.3179725,216.55805 48.7704553,216.336057 48.1548666,216.329512 C47.5392908,216.322953 46.9361009,216.490364 46.3450846,216.831775 C45.9277486,217.072782 45.6099206,217.346821 45.3916283,217.653902 C45.1732634,217.960995 45.0424555,218.279622 44.9992553,218.609791 C44.9560556,218.939968 44.9888326,219.278077 45.0976409,219.624123 C45.2065214,219.970172 45.3750651,220.305152 45.6033117,220.629067 L48.1557027,224.239622 L57.4691065,218.857701 L56.9349199,218.107705 L52.8084316,220.496167 L50.7911805,217.648987 C50.5242489,217.305856 50.3975261,216.98793 50.4109064,216.695211 C50.4242957,216.402498 50.5213287,216.128753 50.7019634,215.873971 Z M48.7431967,217.216635 C49.008538,217.28079 49.2551541,217.392036 49.4830741,217.550375 C49.711048,217.708709 49.9056061,217.901926 50.0667578,218.130034 L52.0521305,220.933291 L48.3823505,223.05155 L46.400194,220.247197 C46.0006724,219.680388 45.8667012,219.159845 45.9979717,218.68558 C46.1291989,218.211336 46.4818423,217.80851 47.0557719,217.477086 C47.34265,217.31138 47.6292661,217.210509 47.9156632,217.174464 C48.2020481,217.138417 48.4778805,217.152475 48.7431967,217.216635 Z M40.3603323,207.894819 L48.7693374,203.916634 L48.3349647,203.120125 L38.5888527,207.69626 L39.2227676,208.868443 L49.3511744,207.737159 L42.3672343,214.647738 L43.0089229,215.820056 L52.7900146,211.237477 L52.3501157,210.440994 L43.9040569,214.400213 L50.7572544,207.547812 L50.3458177,206.79815 L40.3603323,207.894819 Z M45.6232577,194.102528 L36.7332856,201.102 L37.0814454,202.044868 L48.6196728,202.087493 L48.2776693,201.182251 L44.7086635,201.21299 L43.2037321,197.182548 L45.9605474,195.007527 L45.6232577,194.102528 Z M43.7830471,201.239216 L37.8935376,201.274515 L42.4834621,197.754265 L43.7830471,201.239216 Z M34.8631921,190.327997 L34.0205709,190.554693 L35.9118204,197.777659 L36.7582773,197.55075 L35.9206191,194.372779 L45.457337,191.808516 L45.2243967,190.941089 L35.692937,193.505025 L34.8631921,190.327997 Z M44.3988103,185.866915 L33.9015257,187.912299 L34.0456661,188.79828 L44.549381,186.752651 L44.3988103,185.866915 Z M43.1668618,178.099597 C42.7978399,177.598814 42.3383494,177.206839 41.7883173,176.923655 C41.2385529,176.640485 40.6225487,176.46205 39.9401518,176.388345 C39.2578437,176.314654 38.5602298,176.337164 37.8471322,176.455875 C37.1339139,176.574604 36.4587754,176.780588 35.8215876,177.073836 C35.1841346,177.367102 34.6358915,177.739084 34.1768378,178.189795 C33.7175144,178.640529 33.3719248,179.165915 33.1401658,179.765978 C32.9082809,180.366073 32.8370233,181.033107 32.9266617,181.767112 C33.0165353,182.501165 33.2454269,183.120842 33.6134304,183.626147 C33.9817837,184.131476 34.442029,184.525764 34.9941158,184.809013 C35.5464659,185.092273 36.1661949,185.270735 36.8531893,185.3444 C37.5402704,185.418073 38.2427641,185.395496 38.9605382,185.276672 C39.6781947,185.15786 40.3568525,184.951762 40.9964251,184.658378 C41.6357373,184.365012 42.1842801,183.992918 42.6420641,183.542088 C43.0995788,183.091285 43.441558,182.563647 43.6681147,181.959165 C43.8945383,181.354715 43.959783,180.685536 43.8641179,179.951612 C43.7686761,179.217727 43.5362294,178.600401 43.1668618,178.099597 Z M33.9828292,179.97364 C34.1927657,179.484107 34.4981788,179.061172 34.8990113,178.704817 C35.2996548,178.348477 35.7679506,178.056648 36.303925,177.829317 C36.8397263,177.602 37.3910955,177.441176 37.958122,177.346841 C38.5348469,177.250889 39.1053286,177.225086 39.6696773,177.269431 C40.2340714,177.313784 40.7517379,177.441744 41.2227859,177.653312 C41.6940039,177.864889 42.0902053,178.171498 42.4114535,178.573152 C42.7329401,178.974819 42.9332971,179.481431 43.0124688,180.093015 C43.0929305,180.713365 43.0299094,181.268302 42.8232053,181.757841 C42.6163972,182.247401 42.3131573,182.670373 41.9134129,183.026764 C41.5134798,183.383172 41.0473135,183.67466 40.5149149,183.901234 C39.9823478,184.127819 39.4262061,184.289119 38.8465414,184.385135 C38.2766264,184.479532 37.7054234,184.504977 37.1330043,184.461468 C36.5606296,184.417966 36.0379527,184.29041 35.5650503,184.078798 C35.0923157,183.867193 34.6956763,183.56051 34.375173,183.158746 C34.0549082,182.756997 33.8566411,182.245904 33.780312,181.625463 C33.7052218,181.013794 33.7727926,180.463194 33.9828292,179.97364 Z M43.554468,166.646126 L33.105049,167.367209 L33.10225,168.270124 L41.9488279,167.659846 L41.9489354,167.686405 L33.0895925,173.822015 L33.0881277,174.831748 L43.5991068,174.110721 L43.5930239,173.2073 L34.708271,173.816961 L34.7082788,173.79039 L43.559752,167.655317 L43.554468,166.646126 Z M44.7462984,159.980704 C44.6784713,159.57877 44.5675943,159.240241 44.4136689,158.965102 C44.2598321,158.689972 44.0805356,158.472011 43.8757541,158.311211 C43.6710347,158.150417 43.464908,158.025163 43.257347,157.935445 C43.04982,157.845731 42.8509582,157.787363 42.6607372,157.760338 C42.4705257,157.733316 42.3176313,157.718351 42.2020428,157.715441 C41.7782254,157.704781 41.4098839,157.759995 41.0969552,157.881081 C40.7839681,158.002173 40.5112369,158.173189 40.2787421,158.394135 C40.0461739,158.615086 39.8432931,158.872357 39.6701009,159.165957 C39.4968453,159.459565 39.3429893,159.773673 39.2085406,160.108293 L38.3242781,162.407846 C38.253872,162.601804 38.1677819,162.784252 38.0659991,162.955194 C37.964195,163.126139 37.8452805,163.276641 37.7092494,163.406704 C37.5731936,163.536769 37.4113539,163.637278 37.2237289,163.708235 C37.0360839,163.779194 36.8212613,163.811667 36.5792725,163.805656 C36.1920979,163.796044 35.87549,163.721463 35.6294797,163.581909 C35.3835322,163.442361 35.1933085,163.261942 35.0588024,163.040644 C34.9243584,162.819354 34.8376,162.563668 34.7985084,162.273579 C34.7594575,161.983498 34.7579658,161.683239 34.7940078,161.372793 C34.8331465,161.035746 34.9211714,160.715489 35.0580457,160.41201 C35.1948751,160.108539 35.3760358,159.839531 35.6015123,159.604976 C35.8269156,159.370428 36.0948203,159.185858 36.405242,159.051262 C36.7156002,158.916671 37.0693776,158.845422 37.4666311,158.837515 L37.5700567,157.932999 C37.0402891,157.919825 36.5648329,158.001388 36.1435755,158.177686 C35.7222049,158.353993 35.357791,158.600641 35.0503063,158.917638 C34.7426863,159.234644 34.4964954,159.604315 34.3117654,160.026667 C34.1269527,160.449033 34.0070519,160.895248 33.9521327,161.36533 C33.8744431,162.030573 33.9146966,162.57866 34.072993,163.009593 C34.2314513,163.440547 34.44659,163.78172 34.7183924,164.033115 C34.9903251,164.284522 35.2906936,164.458785 35.6194521,164.555907 C35.9482676,164.653037 36.2386172,164.704728 36.4904698,164.71098 C36.8973168,164.721086 37.2480007,164.669745 37.5424875,164.556953 C37.8369245,164.444165 38.0919855,164.29259 38.3076722,164.102225 C38.5233011,163.911863 38.7036439,163.689492 38.8487159,163.435104 C38.9937432,163.180723 39.1208711,162.91256 39.2301134,162.63061 L40.0324526,160.529144 C40.1151812,160.308852 40.2152747,160.084556 40.3327261,159.856249 C40.4501455,159.627947 40.5918287,159.420272 40.7577718,159.233217 C40.9236718,159.046166 41.1193239,158.895443 41.3447368,158.781041 C41.5701106,158.666644 41.827371,158.613081 42.1165589,158.620354 C42.4925109,158.629816 42.8037803,158.72214 43.0504304,158.897328 C43.2971612,159.072524 43.4911427,159.288634 43.6323775,159.545665 C43.7736885,159.802704 43.8670564,160.078546 43.9124585,160.373197 C43.9579027,160.667856 43.9671586,160.939367 43.9401972,161.187737 C43.8930217,161.622395 43.8028212,162.02929 43.6695482,162.408433 C43.5362246,162.787587 43.3479201,163.114211 43.1045982,163.388314 C42.8611846,163.662424 42.5516082,163.874825 42.1758645,164.025524 C41.8000354,164.17623 41.3462495,164.240469 40.8145757,164.218246 L40.7144421,165.12327 C41.3414797,165.165672 41.8951805,165.101706 42.3754302,164.931366 C42.8555567,164.761038 43.2616356,164.511017 43.5936568,164.181296 C43.9255246,163.851588 44.1874602,163.448969 44.3795124,162.973431 C44.5714652,162.497911 44.6975252,161.980727 44.7577816,161.421867 C44.8180522,160.863031 44.8142076,160.382651 44.7462984,159.980704 Z" id="FORMATIONS"></path>
                                </g>
                            </g>
                        </g>
                    </g>
                </g>
            </g>
        </g>
    </g>
</svg>