<?xml version="1.0" encoding="UTF-8" standalone="no"?>
<svg width="209px" height="75px" viewBox="0 0 209 75" version="1.1" xmlns="http://www.w3.org/2000/svg" xmlns:xlink="http://www.w3.org/1999/xlink">
    <!-- Generator: Sketch 39.1 (31720) - http://www.bohemiancoding.com/sketch -->
    <title>EXPÉRIENCES PROFESSI</title>
    <desc>Created with Sketch.</desc>
    <defs></defs>
    <g id="Page-1" stroke="none" stroke-width="1" fill="none" fill-rule="evenodd">
        <g id="Boostrap-3-Grid" transform="translate(-85.000000, -77.000000)" fill="#FFFFFF" stroke="#FFFFFF">
            <g id="[SM]-iPad-(768px-to-991px)-(SM-up-to-MD)">
                <g id="Sidebar" transform="translate(186.000000, 186.000000) rotate(270.000000) translate(-186.000000, -186.000000) translate(0.500000, 0.500000)">
                    <g id="ARTICLES-RÉCENTS" transform="translate(185.390000, 185.590397) rotate(257.000000) translate(-185.390000, -185.590397) translate(31.390000, 31.090397)">
                        <g id="label" transform="translate(153.869286, 154.449324) rotate(-59.000000) translate(-153.869286, -154.449324) translate(40.869286, 42.949324)">
                            <g id="ARTICLES-RÉCENTS" transform="translate(0.039214, 0.506501)">
                                <path d="M104.144999,209.511218 L96.7159525,208.577932 L96.6072565,209.443162 L103.021895,210.249011 L102.493408,214.455821 L96.5561376,213.709942 L96.4474416,214.575172 L102.384712,215.321051 L101.901202,219.169834 L95.5611523,218.373355 L95.4524564,219.238585 L102.806914,220.162501 L104.144999,209.511218 Z M91.6654567,212.782729 L96.6084705,208.188173 L95.4767623,207.944251 L91.2454501,211.877049 L89.0539504,206.559919 L87.8487545,206.300158 L90.481294,212.496742 L85.7927039,216.83853 L86.9097147,217.079283 L90.9286692,213.3468 L92.9503913,218.381253 L94.1261921,218.634678 L91.6654567,212.782729 Z M87.0581189,205.665505 L86.0803379,205.366828 L84.7362925,209.766843 L81.1558883,208.673159 C80.6957537,208.532605 80.2589979,208.469934 79.8456076,208.485147 C79.4322173,208.500359 79.0525231,208.593985 78.7065135,208.766028 C78.3605038,208.93807 78.0599714,209.184263 77.804907,209.504613 C77.5498427,209.824963 77.3520363,210.215199 77.2114818,210.675334 C77.0709273,211.135468 77.0169108,211.569627 77.0494305,211.977824 C77.0819503,212.38602 77.1936155,212.758124 77.3844296,213.094147 C77.5752436,213.43017 77.8378109,213.719983 78.1721393,213.963597 C78.5064677,214.20721 78.9036932,214.399291 79.3638277,214.539845 L83.922013,215.932206 L87.0581189,205.665505 Z M83.1989856,214.79954 L79.8342684,213.77174 C79.1536527,213.563837 78.6551653,213.222919 78.3387911,212.748976 C78.022417,212.275034 77.9725747,211.683384 78.1892628,210.97401 C78.405951,210.264636 78.7778924,209.801826 79.3050983,209.585567 C79.8323042,209.369308 80.4362059,209.36513 81.1168216,209.573033 L84.4815388,210.600833 L83.1989856,214.79954 Z M78.1666919,202.389981 L71.2367016,199.555023 L70.9065257,200.36213 L76.8902523,202.809986 L75.2849143,206.734197 L69.7464884,204.468507 L69.4163125,205.275615 L74.9547384,207.541304 L73.486025,211.13154 L67.5718767,208.712148 L67.2417008,209.519255 L74.1021128,212.32575 L78.1666919,202.389981 Z M68.1323168,213.099992 L69.217737,213.544022 L71.4815485,212.179649 L70.7718507,211.889322 L68.1323168,213.099992 Z M70.1043666,198.580626 L69.194519,198.114321 L67.0207123,202.355816 L63.5686433,200.586598 C63.1313343,200.385 62.8311774,200.141063 62.6681637,199.85478 C62.5051501,199.568498 62.4264053,199.260645 62.4319271,198.931213 C62.4374489,198.60178 62.5069998,198.257301 62.6405818,197.897764 C62.7741638,197.538227 62.916608,197.18887 63.0679186,196.849682 C63.1092866,196.746989 63.1620271,196.627601 63.2261418,196.491513 C63.2902564,196.355425 63.3488229,196.213681 63.4018432,196.066276 C63.4548635,195.918871 63.4989072,195.772499 63.5339756,195.627157 C63.5690441,195.481814 63.5826759,195.350829 63.5748717,195.234198 L62.5713632,194.719891 C62.6100532,194.88614 62.6046718,195.088931 62.5552189,195.32827 C62.505766,195.567608 62.4338465,195.812323 62.3394582,196.062421 C62.24507,196.312519 62.142906,196.555812 62.0329634,196.792307 C61.9230207,197.028802 61.831366,197.229613 61.7579965,197.394747 C61.6295441,197.689334 61.5314496,197.974133 61.4637101,198.249151 C61.3959706,198.52417 61.3787698,198.788482 61.4121069,199.042093 C61.4454441,199.295704 61.5338341,199.535291 61.6772797,199.760861 C61.8207252,199.98643 62.0371177,200.201516 62.3264637,200.406124 L62.3127488,200.432884 C61.6332575,200.242322 61.0231278,200.29004 60.4823413,200.576038 C59.9415548,200.862037 59.515732,201.308313 59.2048601,201.914881 C58.9854211,202.343047 58.8726077,202.755458 58.8664163,203.152126 C58.860225,203.548794 58.9372689,203.914906 59.0975505,204.250472 C59.257832,204.586038 59.4889976,204.893167 59.7910542,205.171869 C60.0931108,205.45057 60.4403765,205.690493 60.8328618,205.891646 L65.2081586,208.134027 L70.1043666,198.580626 Z M64.6960421,206.891674 L61.2974935,205.149886 C60.6106443,204.797869 60.1823751,204.364381 60.012673,203.849408 C59.842971,203.334435 59.9089832,202.782593 60.2107119,202.193865 C60.3615762,201.899501 60.5510447,201.667164 60.7791232,201.496847 C61.0072016,201.326529 61.2560432,201.209093 61.5256553,201.144536 C61.7952675,201.079978 62.0766663,201.069332 62.3698603,201.112597 C62.6630543,201.155862 62.9479088,201.248354 63.2244326,201.390075 L66.6229812,203.131863 L64.6960421,206.891674 Z M61.4062394,193.455468 L60.5455768,192.903632 L54.7512937,201.940589 L55.6119563,202.492425 L61.4062394,193.455468 Z M58.706163,191.618127 L52.5375704,187.374282 L52.0433073,188.092712 L57.3696022,191.757076 L54.966461,195.250135 L50.0365416,191.858467 L49.5422786,192.576898 L54.472198,195.968565 L52.2735795,199.164342 L47.0092183,195.542587 L46.5149553,196.261017 L52.6216142,200.462253 L58.706163,191.618127 Z M51.6591453,186.187223 L50.8704016,185.536725 L45.0924541,192.542626 L45.0692557,192.523494 L46.0219472,181.53808 L45.1404101,180.811053 L38.3101874,189.092863 L39.0989312,189.74336 L44.8768786,182.737459 L44.900077,182.756592 L43.9473855,193.742006 L44.8289227,194.469032 L51.6591453,186.187223 Z M32.3654949,177.88479 C32.014714,178.328575 31.7789263,178.796289 31.6581248,179.287947 C31.5373232,179.779604 31.5104439,180.270219 31.577486,180.759804 C31.6445282,181.24939 31.7949977,181.72013 32.028899,182.17204 C32.2628004,182.62395 32.5590591,183.032044 32.917684,183.396333 C33.5083603,183.996339 34.1358803,184.415887 34.8002627,184.654992 C35.4646452,184.894096 36.1284259,184.982577 36.7916248,184.92044 C37.4548237,184.858302 38.1013218,184.664911 38.7311385,184.340262 C39.3609552,184.015613 39.9365717,183.596632 40.4580054,183.083306 C40.9794391,182.56998 41.4073888,182.000999 41.7418673,181.376347 C42.0763458,180.751695 42.2798433,180.108307 42.3523659,179.446163 C42.4248885,178.784019 42.346819,178.118934 42.1181552,177.450886 C41.8894913,176.782838 41.4798273,176.148821 40.889151,175.548815 C40.4461438,175.098811 39.9721476,174.760202 39.4671482,174.532978 C38.9621488,174.305755 38.4421216,174.188277 37.9070512,174.18054 C37.3719807,174.172804 36.8307836,174.269563 36.2834438,174.470822 C35.736104,174.67208 35.202114,174.979756 34.6814578,175.393858 L35.398704,176.122433 C35.7767238,175.820618 36.1772302,175.58809 36.6002352,175.42484 C37.0232402,175.261591 37.4474137,175.174546 37.8727684,175.163703 C38.2981231,175.15286 38.7174757,175.228795 39.1308387,175.39151 C39.5442018,175.554225 39.9231582,175.810581 40.2677194,176.160584 C40.7669815,176.667732 41.0994906,177.198373 41.2652564,177.752522 C41.4310223,178.306672 41.4692423,178.85627 41.3799175,179.401333 C41.2905927,179.946396 41.1004281,180.471169 40.809418,180.975669 C40.5184079,181.480168 40.1621919,181.939851 39.7407592,182.354731 C39.3264694,182.762579 38.8630468,183.10979 38.3504776,183.396375 C37.8379084,183.682959 37.3084338,183.866635 36.7620381,183.947408 C36.2156423,184.028181 35.6667107,183.981353 35.1152268,183.806924 C34.5637428,183.632495 34.0383777,183.291712 33.5391155,182.784564 C33.264873,182.50599 33.0440113,182.199487 32.8765239,181.865047 C32.7090365,181.530607 32.6001467,181.180683 32.5498512,180.815266 C32.4995557,180.449848 32.5184036,180.079663 32.6063956,179.704697 C32.6943876,179.329732 32.8531679,178.965958 33.0827411,178.613365 L32.3654949,177.88479 Z M36.9790108,170.956544 L32.3063098,165.106106 L31.6249336,165.650316 L35.659595,170.701899 L32.3466966,173.347886 L28.612289,168.672235 L27.9309127,169.216445 L31.6653203,173.892096 L28.6343707,176.312893 L24.6466239,171.32005 L23.9652476,171.86426 L28.5910339,177.655958 L36.9790108,170.956544 Z M29.1619509,166.114531 C29.721023,165.778641 30.1418275,165.393291 30.424377,164.95847 C30.7069265,164.523649 30.8699566,164.063015 30.9134721,163.576554 C30.9569875,163.090094 30.8893239,162.581304 30.7104792,162.050169 C30.5316345,161.519034 30.2673066,160.990613 29.9174877,160.464888 C29.5676688,159.939164 29.2198465,159.520477 28.8740103,159.208816 C28.5281741,158.897154 28.1913067,158.666819 27.8633982,158.517802 C27.5354896,158.368786 27.2269884,158.285117 26.9378854,158.266794 C26.6487823,158.248472 26.3839802,158.26214 26.143471,158.307799 C25.9029618,158.353458 25.6923212,158.421383 25.5115429,158.511574 C25.3307646,158.601766 25.1903085,158.680177 25.0901705,158.746809 C24.722998,158.991127 24.4503278,159.259848 24.2721519,159.552982 C24.093976,159.846115 23.9859794,160.158765 23.9481589,160.49094 C23.9103384,160.823116 23.9239353,161.169232 23.9889501,161.529298 C24.0539649,161.889363 24.1502476,162.255706 24.2778011,162.628336 L25.1888047,165.164472 C25.2692395,165.375822 25.3281292,165.586455 25.3654754,165.796377 C25.4028216,166.006299 25.4109845,166.208547 25.3899643,166.403128 C25.3689442,166.597709 25.3048442,166.781825 25.1976626,166.955481 C25.090481,167.129136 24.9325822,167.28537 24.7239614,167.424187 C24.3901682,167.646294 24.068976,167.769721 23.7603754,167.794471 C23.4517747,167.819221 23.1606135,167.775182 22.8868831,167.662353 C22.6131527,167.549524 22.3547672,167.378331 22.1117188,167.148769 C21.8686705,166.919207 21.6499777,166.658395 21.4556338,166.366326 C21.2446319,166.049223 21.08716,165.717576 20.9832132,165.371376 C20.8792664,165.025176 20.837867,164.682511 20.8590137,164.343371 C20.8801603,164.004231 20.9735695,163.683228 21.1392439,163.380354 C21.3049184,163.07748 21.5532683,162.803872 21.884301,162.559523 L21.3179304,161.708354 C20.8589646,162.013752 20.5146348,162.369284 20.2849306,162.774962 C20.0552264,163.180639 19.9248851,163.613502 19.8939026,164.073564 C19.8629202,164.533625 19.9222786,165.002794 20.0719797,165.481083 C20.2216808,165.959372 20.443674,166.419648 20.7379661,166.861924 C21.1544172,167.487787 21.5856075,167.941296 22.0315501,168.222465 C22.4774927,168.503634 22.9061518,168.672891 23.3175403,168.730241 C23.7289288,168.787591 24.1084153,168.760818 24.4560112,168.649923 C24.8036071,168.539027 25.0858836,168.411397 25.3028493,168.267027 C25.6533322,168.033814 25.9120892,167.78037 26.0791281,167.506687 C26.2461671,167.233004 26.3520537,166.948847 26.3967914,166.654207 C26.441529,166.359567 26.4334531,166.057936 26.3725633,165.749303 C26.3116735,165.440671 26.2257664,165.130632 26.1148392,164.819176 L25.2787016,162.504113 C25.1899536,162.262176 25.1130338,162.006353 25.04794,161.736637 C24.9828462,161.466921 24.9531946,161.200715 24.9589845,160.938011 C24.9647743,160.675307 25.0219809,160.426552 25.130606,160.191737 C25.2392311,159.956923 25.4187134,159.756229 25.6690584,159.589648 C25.9945068,159.373094 26.324718,159.267745 26.6597018,159.273598 C26.9946856,159.279451 27.3143157,159.352704 27.6186016,159.49336 C27.9228876,159.634016 28.200025,159.81982 28.4500221,160.050778 C28.7000192,160.281736 28.9027523,160.514039 29.0582273,160.747694 C29.3303087,161.156591 29.5460909,161.566822 29.7055802,161.978401 C29.8650696,162.389979 29.9404748,162.788272 29.9317979,163.173294 C29.9231211,163.558315 29.8143791,163.928648 29.6055686,164.284304 C29.3967581,164.63996 29.0600987,164.96631 28.5955802,165.263362 L29.1619509,166.114531 Z M25.1441316,151.813022 L24.694975,150.894588 L20.5620197,152.915792 L18.917314,149.552701 C18.7059451,149.120495 18.4536168,148.758537 18.1603214,148.466816 C17.8670261,148.175096 17.5394271,147.961525 17.1775145,147.826098 C16.8156019,147.69067 16.4305432,147.639092 16.0223269,147.671361 C15.6141105,147.70363 15.1939053,147.825448 14.7616987,148.036816 C14.329492,148.248185 13.9753386,148.505065 13.6992278,148.807463 C13.423117,149.109862 13.2274067,149.445462 13.1120912,149.814276 C12.9967756,150.18309 12.9642078,150.572799 13.0143869,150.983414 C13.064566,151.39403 13.195338,151.815434 13.4067069,152.247641 L15.5005693,156.529166 L25.1441316,151.813022 Z M15.8347833,155.227628 L14.2891562,152.067133 C13.9765064,151.427827 13.8853829,150.830825 14.0157831,150.276109 C14.1461833,149.721393 14.5445367,149.281111 15.2108553,148.955251 C15.8771738,148.629391 16.4692791,148.585292 16.9871889,148.822955 C17.5050987,149.060618 17.9203722,149.499096 18.233022,150.138401 L19.7786491,153.298896 L15.8347833,155.227628 Z M21.4662707,143.079112 L21.1030218,142.123438 L16.647892,143.816819 L15.2696828,140.190877 C15.0800024,139.748268 15.0205202,139.366089 15.0912342,139.044327 C15.1619482,138.722565 15.3096825,138.441232 15.5344413,138.200317 C15.7592002,137.959403 16.0415812,137.750204 16.3815928,137.572713 C16.7216044,137.395222 17.0613778,137.231226 17.4009233,137.080719 C17.5004254,137.032176 17.6195549,136.978853 17.7583154,136.920749 C17.8970758,136.862645 18.0355056,136.796625 18.1736088,136.722686 C18.311712,136.648747 18.4424576,136.569563 18.5658495,136.485132 C18.6892413,136.4007 18.787099,136.312571 18.8594253,136.220742 L18.4587831,135.166689 C18.376155,135.316049 18.2363266,135.463023 18.039294,135.607614 C17.8422613,135.752205 17.6249455,135.88574 17.3873401,136.008222 C17.1497347,136.130705 16.910914,136.242925 16.6708707,136.344888 C16.4308275,136.446851 16.2282649,136.534567 16.0631769,136.60804 C15.7704785,136.740739 15.5068781,136.886505 15.2723678,137.045342 C15.0378575,137.204178 14.8480457,137.388915 14.7029268,137.599558 C14.5578079,137.810202 14.4629611,138.047307 14.4183837,138.31088 C14.3738062,138.574454 14.3904161,138.879104 14.468214,139.224839 L14.4401059,139.235523 C14.0632058,138.638892 13.5782054,138.26565 12.9850903,138.115785 C12.3919752,137.96592 11.7768671,138.01207 11.1397475,138.254237 C10.6900161,138.425179 10.3300101,138.655841 10.0597186,138.946231 C9.78942717,139.236621 9.60140737,139.560075 9.49565358,139.916601 C9.38989979,140.273127 9.355827,140.656017 9.39343418,141.065283 C9.43104137,141.474549 9.52819171,141.885302 9.68488811,142.297556 L11.4316882,146.893226 L21.4662707,143.079112 Z M11.8835734,145.627722 L10.5267318,142.057996 C10.252513,141.336552 10.2248681,140.727814 10.4437961,140.231763 C10.6627242,139.735712 11.0813723,139.37017 11.699753,139.135125 C12.0089434,139.017603 12.305252,138.971995 12.5886879,138.9983 C12.8721237,139.024605 13.1355558,139.104083 13.378992,139.236738 C13.6224282,139.369392 13.8385057,139.549972 14.027231,139.778483 C14.2159562,140.006994 14.3655165,140.266472 14.4759162,140.556923 L15.8327579,144.126649 L11.8835734,145.627722 Z M13.4315062,135.468916 C14.1374251,135.276368 14.7890461,134.989541 15.3863886,134.608427 C15.9837312,134.227313 16.4760101,133.76577 16.86324,133.223786 C17.2504699,132.681802 17.5078049,132.063568 17.6352527,131.369067 C17.7627005,130.674566 17.7156437,129.921182 17.4940809,129.108891 C17.2725181,128.296601 16.9311864,127.626081 16.4700756,127.097312 C16.0089648,126.568543 15.474021,126.169011 14.8652283,125.898705 C14.2564356,125.628399 13.5979871,125.480733 12.8898632,125.455702 C12.1817392,125.430671 11.4747284,125.514428 10.7688094,125.706977 C10.0628905,125.899525 9.41126949,126.186352 8.81392693,126.567466 C8.21658436,126.948581 7.7243055,127.410123 7.33707559,127.952107 C6.94984568,128.494091 6.69185128,129.109907 6.56308464,129.799573 C6.43431801,130.489239 6.48071539,131.240206 6.70227819,132.052497 C6.92384099,132.864787 7.26583209,133.537724 7.72826175,134.071329 C8.19069141,134.604933 8.72629456,135.006882 9.33508726,135.277188 C9.94387997,135.547494 10.6023284,135.695161 11.3104524,135.720192 C12.0185764,135.745223 12.7255872,135.661465 13.4315062,135.468916 L13.4315062,135.468916 Z M13.162467,134.482569 C12.6015999,134.635553 12.0275521,134.711614 11.4403066,134.710754 C10.8530611,134.709895 10.3014245,134.611015 9.78538036,134.414111 C9.26933621,134.217208 8.81351418,133.907781 8.41790061,133.485821 C8.02228703,133.063862 7.73084796,132.509601 7.54357464,131.823022 C7.35893897,131.146113 7.32990809,130.525472 7.45648113,129.961079 C7.58305417,129.396686 7.81863553,128.89867 8.16323228,128.467016 C8.50782903,128.035361 8.93286018,127.670082 9.43833849,127.371168 C9.9438168,127.072254 10.4769815,126.846308 11.0378486,126.693324 C11.6083858,126.537703 12.184851,126.460982 12.7672615,126.463161 C13.349672,126.465339 13.8988911,126.564878 14.4149352,126.761782 C14.9309794,126.958685 15.3868014,127.268112 15.782415,127.690072 C16.1780285,128.112032 16.4681488,128.661457 16.6527845,129.338366 C16.8400578,130.024945 16.8704075,130.650421 16.7438344,131.214814 C16.6172614,131.779207 16.38168,132.277223 16.0370833,132.708878 C15.6924865,133.140532 15.2698729,133.505152 14.7692296,133.802747 C14.2685864,134.100342 13.7330042,134.326947 13.162467,134.482569 L13.162467,134.482569 Z M16.226879,122.60269 L16.065433,121.593137 L11.0176642,122.400366 L10.2056861,117.322905 L9.34459613,117.460608 L10.1565742,122.53807 L6.32620846,123.150615 L5.41213955,117.434759 L4.55104957,117.572463 L5.62656442,124.297873 L16.226879,122.60269 Z M15.3499086,114.584103 L14.7495835,107.120768 L13.8803598,107.190686 L14.3987128,113.634931 L10.1724871,113.974874 L9.69270921,108.010201 L8.82348549,108.080118 L9.30326342,114.044791 L5.43671654,114.355803 L4.92439086,107.986491 L4.05516714,108.056409 L4.64946494,115.44481 L15.3499086,114.584103 Z M11.5787237,106.183694 C12.2300294,106.218108 12.7944093,106.134166 13.2718802,105.931866 C13.7493511,105.729566 14.142204,105.438999 14.4504505,105.060157 C14.7586971,104.681315 14.9872896,104.221759 15.1362348,103.681477 C15.2851799,103.141195 15.3617567,102.555332 15.3659674,101.923872 C15.3701781,101.292413 15.3161548,100.750785 15.203896,100.298974 C15.0916371,99.8471621 14.941309,99.4677737 14.7529072,99.160797 C14.5645055,98.8538203 14.355626,98.6118642 14.1262627,98.4349215 C13.8968993,98.2579787 13.6697778,98.1211474 13.4448913,98.0244234 C13.2200049,97.9276994 13.0074166,97.866141 12.8071202,97.8397464 C12.6068239,97.8133517 12.446539,97.7997536 12.3262609,97.7989515 C11.8852413,97.7960107 11.5088934,97.8661713 11.1972059,98.0094354 C10.8855183,98.1526995 10.6210773,98.3514055 10.4038747,98.6055595 C10.1866721,98.8597134 10.0042861,99.1541896 9.85671104,99.4889968 C9.709136,99.823804 9.5839646,100.181308 9.48119308,100.561521 L8.81725741,103.173245 C8.76567114,103.393421 8.69662889,103.600947 8.61012861,103.795831 C8.52362832,103.990715 8.41723367,104.16291 8.29094145,104.312422 C8.16464923,104.461934 8.00850705,104.578669 7.82251023,104.662629 C7.63651341,104.74659 7.4182286,104.787734 7.16764926,104.786063 C6.76672231,104.78339 6.43145229,104.705978 6.16182914,104.553826 C5.892206,104.401674 5.67552524,104.202265 5.51178036,103.955595 C5.34803549,103.708924 5.22966401,103.422466 5.15666239,103.096212 C5.08366077,102.769957 5.04833013,102.43143 5.0506694,102.080618 C5.05320918,101.699738 5.10825284,101.336754 5.21580202,100.991656 C5.3233512,100.646559 5.48076325,100.339387 5.68804289,100.070131 C5.89532253,99.8008756 6.15234659,99.5870849 6.45912277,99.4287527 C6.76589895,99.2704204 7.12482356,99.1826025 7.53590735,99.1652965 L7.54272463,98.1429379 C6.99145007,98.1392619 6.50713742,98.2412788 6.08977215,98.4489918 C5.67240688,98.6567047 5.3221853,98.9425441 5.0390969,99.3065185 C4.75600851,99.6704929 4.54270123,100.092562 4.39916865,100.572739 C4.25563607,101.052915 4.18209972,101.55861 4.17855739,102.089838 C4.17354466,102.841576 4.27718179,103.458711 4.48947188,103.94126 C4.70176197,104.42381 4.9623433,104.803933 5.27122368,105.081642 C5.58010407,105.359351 5.90961068,105.549489 6.25975339,105.65206 C6.60989611,105.754631 6.91526415,105.806784 7.17586667,105.808522 C7.59683996,105.811329 7.95310843,105.746046 8.24468276,105.612672 C8.53625709,105.479297 8.78300749,105.303026 8.98494137,105.083853 C9.18687524,104.86468 9.34894792,104.610162 9.47116426,104.320292 C9.5933806,104.030422 9.69564931,103.725388 9.77797346,103.405181 L10.3802666,101.018576 C10.4420765,100.768398 10.5214593,100.513329 10.6184172,100.253361 C10.7153751,99.9933938 10.8397444,99.7561657 10.991529,99.54167 C11.1433136,99.3271743 11.3299092,99.1530079 11.5513213,99.0191654 C11.7727334,98.885323 12.0337831,98.8194053 12.3344784,98.8214104 C12.7253821,98.824017 13.0580127,98.921458 13.3323801,99.1137363 C13.6067475,99.3060146 13.8306782,99.5455652 14.0041789,99.8323953 C14.1776796,100.119225 14.3034179,100.428286 14.3813977,100.759585 C14.4593775,101.090884 14.4974311,101.396854 14.4955597,101.677503 C14.4922847,102.168638 14.441601,102.62938 14.3435068,103.059741 C14.2454127,103.490103 14.0850605,103.862408 13.8624453,104.176667 C13.6398302,104.490927 13.3424968,104.737025 12.9704363,104.914969 C12.5983758,105.092914 12.1367486,105.175035 11.5855409,105.161336 L11.5787237,106.183694 Z M12.1474241,96.401905 C12.7927549,96.4964126 13.3624796,96.4650317 13.8566151,96.3077613 C14.3507506,96.1504909 14.7687948,95.8975057 15.1107603,95.5487983 C15.4527258,95.2000908 15.722844,94.7636487 15.9211231,94.2394589 C16.1194021,93.715269 16.2498389,93.1390009 16.3124371,92.5106373 C16.3750354,91.8822737 16.3713405,91.3379711 16.3013523,90.8777133 C16.2313641,90.4174554 16.1167712,90.0257891 15.9575702,89.7027024 C15.7983693,89.3796158 15.6127645,89.119377 15.4007503,88.9219782 C15.1887361,88.7245794 14.9752442,88.5673275 14.760268,88.4502177 C14.5452919,88.3331079 14.3393086,88.2521505 14.1423122,88.2073429 C13.9453157,88.1625354 13.7869757,88.1341703 13.6672874,88.1222468 C13.2284303,88.0785274 12.8472063,88.1135776 12.5236039,88.2273987 C12.2000016,88.3412197 11.9183151,88.514615 11.6785362,88.7475897 C11.4387572,88.9805645 11.229916,89.2569089 11.0520062,89.5766312 C10.8740964,89.8963535 10.7163949,90.2407479 10.578897,90.6098246 L9.67624103,93.1489439 C9.60451118,93.3634044 9.51657013,93.5636554 9.41241525,93.7497031 C9.30826036,93.9357508 9.18639491,94.0973673 9.04681523,94.2345574 C8.90723555,94.3717475 8.74096557,94.4735396 8.54800029,94.5399368 C8.35503501,94.606334 8.13388036,94.6271119 7.88452972,94.6022713 C7.48556869,94.5625264 7.1588959,94.4544364 6.90450156,94.2779982 C6.65010722,94.10156 6.45279919,93.8829649 6.31257155,93.6222065 C6.1723439,93.3614481 6.08097524,93.0652693 6.03846282,92.7336613 C5.9959504,92.4020533 5.99208267,92.0617089 6.0268595,91.712618 C6.0646172,91.333605 6.15299837,90.9772685 6.29200566,90.6435976 C6.43101296,90.3099268 6.61616151,90.018631 6.84745688,89.7697016 C7.07875225,89.5207722 7.35444868,89.3316709 7.67455445,89.202392 C7.99466022,89.0731131 8.36016877,89.0188698 8.77109108,89.0396603 L8.8724402,88.0223147 C8.32386878,87.9676654 7.83219636,88.0244495 7.39740819,88.1926686 C6.96262002,88.3608878 6.58746157,88.6131088 6.27192158,88.9493393 C5.95638159,89.2855698 5.70495021,89.6861003 5.51761991,90.1509428 C5.33028961,90.6157853 5.21029522,91.1125108 5.15763316,91.6411341 C5.08311138,92.3891861 5.1292236,93.0132607 5.29597122,93.5133769 C5.46271883,94.013493 5.68702434,94.4160891 5.96889449,94.7211772 C6.25076464,95.0262652 6.56127238,95.2460645 6.90042705,95.3805816 C7.23958171,95.5150987 7.53881689,95.5952731 7.79814156,95.6211073 C8.21705065,95.6628395 8.57783011,95.630789 8.88049078,95.5249547 C9.18315145,95.4191205 9.44514797,95.2664276 9.66648821,95.0668715 C9.88782845,94.8673154 10.0727475,94.6288793 10.2212509,94.351556 C10.3697543,94.0742328 10.4997981,93.7799656 10.6113863,93.4687458 L11.431842,91.1480792 C11.5165267,90.9046903 11.6191613,90.658057 11.7397488,90.4081717 C11.8603362,90.1582865 12.0061144,89.9335786 12.1770877,89.7340414 C12.348061,89.5345042 12.5499659,89.3783431 12.7828084,89.2655535 C13.0156508,89.1527639 13.2816785,89.1112741 13.5808993,89.1410828 C13.9698863,89.1798341 14.2920784,89.3076234 14.5474852,89.5244546 C14.8028921,89.7412857 15.0037061,90.0005215 15.1499333,90.3021696 C15.2961604,90.6038178 15.3927739,90.923183 15.4397765,91.2602748 C15.4867791,91.5973667 15.4963696,91.9055443 15.4685481,92.184817 C15.4198605,92.6735443 15.3267786,93.127623 15.1892995,93.5470667 C15.0518205,93.9665103 14.85772,94.3223879 14.6069923,94.61471 C14.3562646,94.9070321 14.0374434,95.124574 13.6505192,95.2673424 C13.263595,95.4101108 12.796351,95.4491827 12.2487733,95.3845594 L12.1474241,96.401905 Z M17.2034771,86.7934732 L17.3985507,85.7898747 L6.86076676,83.741602 L6.66569318,84.7452005 L17.2034771,86.7934732 Z M12.5521326,82.9788035 C13.2654677,83.1417438 13.9753566,83.195942 14.6818205,83.1413999 C15.3882844,83.0868578 16.0400015,82.9118589 16.6369912,82.6163979 C17.2339809,82.3209369 17.7523545,81.8969997 18.1921274,81.3445736 C18.6319004,80.7921475 18.9455286,80.1055328 19.1330214,79.2847088 C19.3205143,78.4638848 19.3355517,77.7116363 19.1781341,77.0279405 C19.0207164,76.3442448 18.7372634,75.7397245 18.3277666,75.2143615 C17.9182697,74.6889985 17.4071702,74.2483887 16.7944528,73.8925188 C16.1817353,73.5366489 15.5187189,73.2772477 14.8053838,73.1143075 C14.0920487,72.9513672 13.3821598,72.897169 12.6756959,72.9517111 C11.9692319,73.0062532 11.3175149,73.1812521 10.7205252,73.4767131 C10.1235355,73.7721741 9.60571995,74.1936684 9.16706302,74.7412086 C8.72840609,75.2887489 8.41533589,75.9729207 8.22784303,76.7937447 C8.04035017,77.6145687 8.02475477,78.3692601 8.18105637,79.0578417 C8.33735798,79.7464234 8.62025296,80.3533865 9.0297498,80.8787495 C9.43924665,81.4041125 9.95034614,81.8447223 10.5630636,82.2005922 C11.1757811,82.5564621 11.8387975,82.8158633 12.5521326,82.9788035 L12.5521326,82.9788035 Z M12.7798014,81.9820937 C12.213042,81.8526343 11.6709179,81.6491213 11.153413,81.3715484 C10.635908,81.0939756 10.1960124,80.7467407 9.83371304,80.3298335 C9.47141364,79.9129262 9.21526712,79.4251684 9.06526579,78.8665454 C8.91526447,78.3079224 8.91950179,77.6817244 9.0779779,76.9879327 C9.23422196,76.3039128 9.5011756,75.7428652 9.87884683,75.3047734 C10.2565181,74.8666815 10.6990386,74.5385135 11.2064218,74.3202593 C11.7138049,74.1020052 12.2608377,73.9802048 12.8475364,73.9548545 C13.4342352,73.9295042 14.0109556,73.981558 14.577715,74.1110173 C15.1542461,74.2427087 15.6988131,74.4467798 16.2114322,74.7232366 C16.7240513,74.9996934 17.161504,75.3463703 17.5238034,75.7632775 C17.8861027,76.1801848 18.1422493,76.6679426 18.2922506,77.2265656 C18.4422519,77.7851886 18.4391306,78.4065008 18.2828866,79.0905208 C18.1244104,79.7843125 17.8563408,80.3502458 17.4786696,80.7883376 C17.1009983,81.2264295 16.6584778,81.5545975 16.1510946,81.7728517 C15.6437115,81.9911058 15.0991216,82.1134642 14.5173087,82.1399305 C13.9354958,82.1663968 13.3563325,82.1137851 12.7798014,81.9820937 L12.7798014,81.9820937 Z M21.0911694,72.9449575 L21.4256854,71.9788505 L12.8443823,69.0075617 L12.854221,68.9791468 L23.4819747,66.0401341 L23.8558454,64.9603675 L13.7117223,61.44795 L13.3772063,62.4140569 L21.9585094,65.3853457 L21.9486707,65.4137607 L11.320917,68.3527733 L10.9470463,69.4325399 L21.0911694,72.9449575 Z M25.1609781,63.176077 L25.5921091,62.2490443 L17.3578774,58.4195864 L17.3705577,58.3923207 L28.2422968,56.5505197 L28.7241492,55.5144243 L18.9903057,50.9875486 L18.5591747,51.9145813 L26.7934064,55.7440392 L26.7807261,55.7713048 L15.9089869,57.6131059 L15.4271346,58.6492013 L25.1609781,63.176077 Z M30.2028846,53.8612755 L34.0308466,47.4263348 L33.2813957,46.9805079 L29.9761273,52.536782 L26.3322452,50.3691408 L29.3915402,45.2263569 L28.6420893,44.78053 L25.5827943,49.9233139 L22.2490299,47.9401529 L25.5158649,42.4484867 L24.766414,42.0026597 L20.9768853,48.3729926 L30.2028846,53.8612755 Z M35.1584284,46.4649031 L39.2644911,40.7507958 L38.5563325,40.2419248 L35.0468772,45.1257771 L27.0373593,39.3702704 L26.4407519,40.2005253 L35.1584284,46.4649031 Z M40.1986773,40.1439979 L45.0342689,34.4274597 L44.3684874,33.8642784 L40.1931773,38.8002451 L36.9561015,36.0620185 L40.8206908,31.4933796 L40.1549093,30.9301982 L36.29032,35.4988371 L33.32874,32.9936511 L37.4554999,28.1150794 L36.7897183,27.551898 L32.0026768,33.2110412 L40.1986773,40.1439979 Z M43.438281,31.538547 C43.8758028,32.0222393 44.3351552,32.3607156 44.816352,32.5539863 C45.2975488,32.747257 45.7809938,32.8182732 46.2667017,32.7670372 C46.7524096,32.7158012 47.2385589,32.5511668 47.725164,32.273129 C48.2117691,31.9950912 48.6792059,31.6337029 49.1274884,31.1889533 C49.5757709,30.7442037 49.9194157,30.3220814 50.158433,29.9225738 C50.3974503,29.5230662 50.558404,29.1480622 50.6412988,28.7975506 C50.7241936,28.447039 50.7467177,28.1281879 50.7088717,27.8409877 C50.6710257,27.5537874 50.6064832,27.296608 50.5152422,27.0694417 C50.4240013,26.8422754 50.3166817,26.6487148 50.1932803,26.4887541 C50.069879,26.3287934 49.9658228,26.2061213 49.8811085,26.1207342 C49.5704898,25.807648 49.2541746,25.5919979 48.9321534,25.4737775 C48.6101322,25.355557 48.2825129,25.3099637 47.9492856,25.3369961 C47.6160583,25.3640285 47.279082,25.4442023 46.9383466,25.57752 C46.5976111,25.7108377 46.2567546,25.876047 45.9157668,26.0731527 L43.6032692,27.4567239 C43.4114285,27.5764553 43.2161311,27.6749085 43.0173711,27.7520866 C42.8186111,27.8292646 42.6217451,27.8763268 42.4267672,27.8932746 C42.2317893,27.9102224 42.0387615,27.8828805 41.8476778,27.8112479 C41.6565942,27.7396152 41.4728112,27.6148559 41.2963233,27.436966 C41.0139426,27.1523422 40.8308184,26.8610277 40.7469454,26.5630139 C40.6630724,26.2650001 40.6500611,25.9708148 40.7079111,25.6804493 C40.7657611,25.3900838 40.8838396,25.1035048 41.0621501,24.8207035 C41.2404605,24.5379022 41.4541355,24.272964 41.7031813,24.0258809 C41.9735739,23.7576192 42.2685723,23.5390719 42.5881853,23.3702323 C42.9077982,23.2013927 43.2360204,23.0946058 43.5728615,23.0498686 C43.9097027,23.0051313 44.2427007,23.0347989 44.5718655,23.1388723 C44.9010303,23.2429457 45.2174437,23.4337897 45.5211151,23.71141 L46.2469021,22.9913429 C45.8586287,22.5999851 45.4432994,22.3307866 45.000902,22.1837393 C44.5585045,22.036692 44.1086197,21.9923868 43.651234,22.0508225 C43.1938483,22.1092583 42.7449712,22.2580931 42.3045894,22.4973316 C41.8642076,22.7365701 41.4554596,23.043262 41.078333,23.4174164 C40.5446634,23.9468802 40.1829495,24.4575255 39.9931806,24.9493677 C39.8034117,25.4412098 39.7201115,25.8944841 39.7432777,26.3092043 C39.7664439,26.7239245 39.865989,27.0910996 40.0419162,27.4107406 C40.2178433,27.7303816 40.397578,27.982701 40.5811254,28.1677065 C40.8776251,28.4665615 41.1762638,28.6715103 41.4770503,28.7825591 C41.7778369,28.8936078 42.0770924,28.9426328 42.3748258,28.9296353 C42.6725592,28.9166378 42.9669548,28.8504706 43.2580212,28.7311318 C43.5490877,28.6117929 43.8367042,28.4676357 44.1208794,28.2986559 L46.23092,27.0312297 C46.451167,26.8974353 46.6873224,26.7725654 46.9393933,26.6566161 C47.1914642,26.5406668 47.4469348,26.4601705 47.7058129,26.4151248 C47.9646909,26.3700791 48.2198111,26.3781759 48.471181,26.4394156 C48.7225509,26.5006552 48.9541252,26.6380068 49.1659107,26.8514747 C49.4412319,27.1289829 49.6083602,27.4326373 49.6673006,27.762447 C49.726241,28.0922567 49.7160849,28.4200162 49.636832,28.7457354 C49.5575791,29.0714545 49.4287853,29.3792539 49.2504468,29.6691427 C49.0721083,29.9590316 48.8833236,30.2028056 48.6840869,30.400472 C48.3354228,30.7463884 47.9745781,31.0373227 47.6015421,31.2732838 C47.2285061,31.5092449 46.8522684,31.6601391 46.4728178,31.7259708 C46.0933671,31.7918025 45.7090062,31.756616 45.3197233,31.6204103 C44.9304405,31.4842046 44.5452259,31.2168971 44.164068,30.8184799 L43.438281,31.538547 Z" id="EXPÉRIENCES-PROFESSI" transform="translate(54.100083, 121.094198) scale(-1, -1) rotate(178.000000) translate(-54.100083, -121.094198) "></path>
                            </g>
                        </g>
                    </g>
                </g>
            </g>
        </g>
    </g>
</svg>