<?xml version="1.0" encoding="UTF-8" standalone="no"?>
<svg width="74px" height="19px" viewBox="0 0 74 19" version="1.1" xmlns="http://www.w3.org/2000/svg" xmlns:xlink="http://www.w3.org/1999/xlink">
    <!-- Generator: Sketch 39.1 (31720) - http://www.bohemiancoding.com/sketch -->
    <title>LANGUES</title>
    <desc>Created with Sketch.</desc>
    <defs></defs>
    <g id="Page-1" stroke="none" stroke-width="1" fill="none" fill-rule="evenodd">
        <g id="Artboard" transform="translate(-128.000000, -143.000000)" stroke="#FFFFFF" fill="#FFFFFF">
            <g id="Boostrap-3-Grid" transform="translate(-98.000000, -89.000000)">
                <g id="[SM]-iPad-(768px-to-991px)-(SM-up-to-MD)">
                    <g id="Sidebar" transform="translate(264.500000, 276.500000) rotate(270.000000) translate(-264.500000, -276.500000) translate(-11.500000, 12.500000)">
                        <g id="ARTICLES-RÉCENTS" transform="translate(276.037526, 264.162104) rotate(257.000000) translate(-276.037526, -264.162104) translate(59.537526, 31.162104)">
                            <g id="label" transform="translate(216.569650, 233.212814) rotate(-59.000000) translate(-216.569650, -233.212814) translate(29.569650, 93.212814)">
                                <g id="ARTICLES-RÉCENTS" transform="translate(0.994669, 0.610834)">
                                    <path d="M174.425922,178.146495 L169.523864,172.901537 L168.873848,173.509057 L173.063641,177.991927 L165.711734,184.863189 L166.423999,185.625277 L174.425922,178.146495 Z M169.866297,172.804434 L169.168532,171.92858 L165.68295,173.018722 L162.576461,169.119372 L164.408435,165.953574 L163.71067,165.07772 L157.820455,175.261878 L158.546896,176.173726 L169.866297,172.804434 Z M159.028215,175.103823 L162.100421,169.949714 L164.786339,173.321153 L159.028215,175.103823 Z M163.535192,163.980087 L162.963199,163.107778 L155.215038,168.188417 L155.198215,168.162761 L159.447128,157.74564 L158.807842,156.770706 L149.648592,162.776627 L150.220584,163.648937 L157.968746,158.568297 L157.985569,158.593953 L153.736656,169.011075 L154.375942,169.986009 L163.535192,163.980087 Z M148.925883,148.831649 L151.062409,152.959523 L151.852563,152.550551 L150.139112,149.240078 C150.652101,148.963047 151.164169,148.784372 151.675332,148.704048 C152.186495,148.623723 152.676223,148.646612 153.14453,148.772716 C153.612837,148.898819 154.044831,149.127197 154.440524,149.457856 C154.836218,149.788515 155.172735,150.221765 155.450086,150.75762 C155.783846,151.402462 155.947985,152.019933 155.942507,152.610052 C155.937028,153.200171 155.808599,153.747403 155.557216,154.251765 C155.305832,154.756127 154.962273,155.210313 154.526529,155.614335 C154.090784,156.018358 153.604992,156.35904 153.069138,156.63639 C152.542366,156.909039 151.985982,157.107772 151.39997,157.232595 C150.813959,157.357418 150.242492,157.376836 149.685553,157.29085 C149.128614,157.204864 148.60767,156.993737 148.122705,156.657464 C147.63774,156.321191 147.228383,155.830641 146.894623,155.185799 C146.65488,154.722603 146.513571,154.266043 146.470694,153.816105 C146.427817,153.366168 146.45511,152.946131 146.552574,152.555982 C146.650038,152.165832 146.800681,151.817255 147.004508,151.510238 C147.208335,151.203221 147.443969,150.96323 147.711417,150.790257 L147.231933,149.863869 C146.752169,150.227341 146.372499,150.634005 146.09291,151.083873 C145.813321,151.533742 145.630137,152.008556 145.543352,152.508332 C145.456568,153.008107 145.462579,153.520301 145.561388,154.044927 C145.660196,154.569554 145.841221,155.086163 146.104469,155.594771 C146.49934,156.357682 146.984525,156.955803 147.560039,157.389152 C148.135552,157.8225 148.755886,158.108851 149.421059,158.248213 C150.086232,158.387575 150.774694,158.393966 151.486466,158.267387 C152.198238,158.140807 152.885616,157.90594 153.548622,157.562778 C154.211629,157.219616 154.800291,156.794023 155.314627,156.285988 C155.828963,155.777953 156.221275,155.212169 156.491577,154.58862 C156.761879,153.96507 156.88628,153.293255 156.864786,152.573155 C156.843291,151.853054 156.635111,151.111559 156.24024,150.348648 C156.056907,149.994439 155.840853,149.671567 155.592073,149.380021 C155.343292,149.088475 155.064223,148.838522 154.754856,148.630154 C154.445489,148.421786 154.103643,148.261901 153.729307,148.150494 C153.354972,148.039087 152.95294,147.990959 152.523198,148.006111 L152.509095,147.978864 L154.21667,146.939593 L153.871159,146.272049 L148.925883,148.831649 Z M149.977369,145.715418 C150.501767,145.512001 150.971275,145.244866 151.385906,144.914005 C151.800537,144.583144 152.122287,144.189595 152.351164,143.733344 C152.580041,143.277094 152.702272,142.758012 152.71786,142.176083 C152.733448,141.594154 152.604399,140.950423 152.33071,140.244869 C152.053323,139.529781 151.712669,138.962648 151.308738,138.543453 C150.904808,138.124259 150.464511,137.823385 149.987834,137.640823 C149.511158,137.458262 149.008185,137.384628 148.4789,137.419918 C147.949615,137.455209 147.422781,137.574562 146.898383,137.777979 L140.36251,140.313288 L140.739755,141.285803 L147.061103,138.83371 C147.652242,138.604403 148.181069,138.476051 148.647599,138.448649 C149.11413,138.421247 149.528418,138.485407 149.890476,138.64113 C150.252535,138.796853 150.566195,139.039902 150.831467,139.370284 C151.096739,139.700666 151.319985,140.099446 151.501212,140.566637 C151.682438,141.033828 151.78558,141.476455 151.81064,141.894532 C151.8357,142.312609 151.767062,142.701212 151.604722,143.060353 C151.442383,143.419493 151.179731,143.746243 150.816759,144.040611 C150.453787,144.334978 149.976738,144.596812 149.385598,144.826119 L143.064251,147.278212 L143.441496,148.250727 L149.977369,145.715418 Z M150.409722,134.18029 L148.368225,126.818802 L147.510863,127.056567 L149.273601,133.412872 L145.105048,134.5689 L143.47349,128.685622 L142.616128,128.923387 L144.247686,134.806664 L140.433903,135.864307 L138.691662,129.581913 L137.8343,129.819677 L139.855299,137.107255 L150.409722,134.18029 Z M145.008712,126.498924 C145.667817,126.407285 146.216926,126.213916 146.656058,125.91881 C147.095189,125.623704 147.432464,125.256563 147.667892,124.817375 C147.90332,124.378187 148.043327,123.873568 148.087917,123.303504 C148.132506,122.73344 148.095776,122.131729 147.977724,121.498354 C147.859672,120.864978 147.700679,120.332867 147.50074,119.902005 C147.300801,119.471143 147.07675,119.120202 146.82858,118.849171 C146.58041,118.57814 146.324316,118.376207 146.060292,118.243368 C145.796267,118.110529 145.542255,118.017436 145.298248,117.964089 C145.054241,117.910741 144.829363,117.890239 144.623607,117.902582 C144.41785,117.914925 144.254653,117.932339 144.13401,117.954825 C143.691653,118.037274 143.328234,118.180429 143.043744,118.384295 C142.759254,118.588161 142.532827,118.838417 142.364458,119.135071 C142.196089,119.431725 142.070405,119.76203 141.987401,120.125995 C141.904398,120.489961 141.848232,120.872325 141.818903,121.2731 L141.659519,124.017933 C141.650476,124.248481 141.621497,124.469738 141.572581,124.681711 C141.523666,124.893683 141.450428,125.08678 141.352866,125.261006 C141.255304,125.435233 141.121493,125.582405 140.951429,125.702526 C140.781366,125.822648 140.570667,125.90613 140.319328,125.952976 C139.917184,126.02793 139.566341,126.015302 139.266787,125.915092 C138.967232,125.814882 138.711563,125.657082 138.499769,125.441688 C138.287976,125.226293 138.113931,124.962256 137.97763,124.649569 C137.841328,124.336881 137.740387,124.004605 137.674802,123.652729 C137.603596,123.270693 137.588451,122.896419 137.629366,122.529895 C137.670282,122.163371 137.76849,121.825184 137.923995,121.515324 C138.0795,121.205463 138.295575,120.941532 138.572228,120.723523 C138.848881,120.505514 139.191426,120.348044 139.599876,120.251109 L139.408745,119.225649 C138.855798,119.32871 138.390395,119.524683 138.012522,119.813572 C137.634649,120.102462 137.339164,120.456613 137.126059,120.876036 C136.912954,121.295459 136.781001,121.759567 136.730195,122.268372 C136.679389,122.777178 136.703642,123.297993 136.802956,123.830833 C136.943494,124.584851 137.166808,125.182994 137.472904,125.625278 C137.779,126.067562 138.113639,126.397892 138.476831,126.616276 C138.840022,126.834661 139.206919,126.961327 139.577533,126.996278 C139.948147,127.03123 140.264146,127.024346 140.525539,126.975626 C140.947789,126.896924 141.292038,126.762544 141.558295,126.572479 C141.824552,126.382414 142.0376,126.158057 142.197448,125.899402 C142.357295,125.640746 142.470367,125.354403 142.536669,125.040363 C142.602971,124.726323 142.646354,124.400955 142.66682,124.06425 L142.808043,121.556864 C142.821518,121.294281 142.85165,121.023397 142.898439,120.744202 C142.945228,120.465008 143.02388,120.203285 143.134396,119.959025 C143.244912,119.714765 143.398109,119.504165 143.593991,119.327217 C143.789873,119.150269 144.038614,119.03369 144.340221,118.977474 C144.732311,118.904395 145.084389,118.937598 145.396465,119.077085 C145.708541,119.216573 145.979247,119.413181 146.208589,119.666916 C146.437931,119.920651 146.623732,120.205903 146.765997,120.52268 C146.908262,120.839458 147.005627,121.138592 147.058095,121.420092 C147.149913,121.912718 147.188355,122.384076 147.173421,122.834181 C147.158487,123.284287 147.069945,123.68829 146.907792,124.046202 C146.745639,124.404114 146.49544,124.708214 146.157186,124.958511 C145.818933,125.208807 145.372402,125.380457 144.817582,125.473464 L145.008712,126.498924 Z" id="LANGUES" transform="translate(155.565163, 151.252990) rotate(7.000000) translate(-155.565163, -151.252990) "></path>
                                </g>
                            </g>
                        </g>
                    </g>
                </g>
            </g>
        </g>
    </g>
</svg>