<?xml version="1.0" encoding="UTF-8" standalone="no"?>
<svg width="107px" height="25px" viewBox="0 0 107 25" version="1.1" xmlns="http://www.w3.org/2000/svg" xmlns:xlink="http://www.w3.org/1999/xlink">
    <!-- Generator: Sketch 39.1 (31720) - http://www.bohemiancoding.com/sketch -->
    <title>RÉALISATIONS</title>
    <desc>Created with Sketch.</desc>
    <defs></defs>
    <g id="Page-1" stroke="none" stroke-width="1" fill="none" fill-rule="evenodd">
        <g id="Artboard" transform="translate(-108.000000, -83.000000)" stroke="#FFFFFF" fill="#FFFFFF">
            <g id="Boostrap-3-Grid" transform="translate(-67.000000, -85.000000)">
                <g id="[SM]-iPad-(768px-to-991px)-(SM-up-to-MD)">
                    <g id="Sidebar" transform="translate(231.500000, 239.500000) rotate(270.000000) translate(-231.500000, -239.500000) translate(-7.500000, 8.500000)">
                        <g id="ARTICLES-RÉCENTS" transform="translate(238.829308, 230.723045) rotate(257.000000) translate(-238.829308, -230.723045) translate(48.329308, 30.223045)">
                            <g id="label" transform="translate(190.696697, 200.543208) rotate(-59.000000) translate(-190.696697, -200.543208) translate(34.696697, 72.543208)">
                                <g id="ARTICLES-RÉCENTS" transform="translate(0.216981, 0.136386)">
                                    <path d="M127.267869,189.658002 L126.491137,188.961737 L123.245312,192.582683 L120.298296,189.94097 C119.91912,189.628545 119.686264,189.309941 119.599721,188.98515 C119.513177,188.66036 119.515382,188.336157 119.606336,188.012533 C119.697289,187.68891 119.855327,187.367057 120.080453,187.046967 C120.30558,186.726877 120.536808,186.419131 120.774146,186.123722 C120.841619,186.03313 120.924647,185.929016 121.023232,185.811377 C121.121817,185.693738 121.216395,185.569077 121.306971,185.437391 C121.397546,185.305705 121.478996,185.172709 121.551323,185.038399 C121.623649,184.904089 121.671098,184.778382 121.693669,184.661275 L120.836978,183.893335 C120.832004,184.067419 120.774059,184.26612 120.663142,184.489444 C120.552225,184.712768 120.417744,184.935565 120.259696,185.157843 C120.101648,185.380121 119.937694,185.593666 119.767829,185.798483 C119.597964,186.003301 119.455405,186.177656 119.340149,186.321554 C119.136942,186.578888 118.96623,186.834444 118.828009,187.088228 C118.689787,187.342013 118.604212,187.598349 118.571281,187.857245 C118.53835,188.11614 118.563381,188.375487 118.646374,188.635292 C118.729367,188.895097 118.88706,189.163491 119.119456,189.440483 L119.098978,189.463328 C118.477972,189.098933 117.863561,188.987656 117.255725,189.129494 C116.64789,189.271331 116.11189,189.601158 115.647711,190.118982 C115.320055,190.484505 115.101698,190.862158 114.992633,191.25195 C114.883567,191.641743 114.864563,192.022989 114.935619,192.3957 C115.006675,192.768411 115.155054,193.13146 115.380761,193.48486 C115.606468,193.838259 115.886849,194.165129 116.221912,194.46548 L119.957084,197.813697 L127.267869,189.658002 Z M119.774224,196.454925 L116.872898,193.854169 C116.286538,193.328554 115.97647,192.789665 115.942684,192.237485 C115.908898,191.685305 116.117266,191.157926 116.567793,190.655332 C116.793056,190.404035 117.040312,190.22396 117.309567,190.115103 C117.578823,190.006246 117.85484,189.954957 118.137628,189.961235 C118.420415,189.967514 118.70084,190.030047 118.97891,190.148836 C119.25698,190.267626 119.514045,190.432823 119.750112,190.644435 L122.651438,193.24519 L119.774224,196.454925 Z M120.073844,182.38988 L114.912642,176.757722 L114.256688,177.358826 L118.713147,182.221934 L115.523853,185.144543 L111.399037,180.64334 L110.743083,181.244444 L114.867899,185.745646 L111.950033,188.419522 L107.545393,183.612961 L106.889439,184.214065 L111.998822,189.789676 L120.073844,182.38988 Z M106.152907,187.905995 L106.961288,188.78814 L109.64414,188.514339 L109.115583,187.937552 L106.152907,187.905995 Z M115.046279,176.332409 L114.36432,175.444193 L110.859764,176.471704 L107.823645,172.517315 L109.71205,169.384853 L109.030091,168.496636 L102.958337,178.573615 L103.668322,179.498334 L115.046279,176.332409 Z M104.168735,178.437227 L107.332802,173.338995 L109.957878,176.75802 L104.168735,178.437227 Z M108.862648,167.378228 L105.034099,161.305174 L104.281456,161.779653 L107.55372,166.970297 L99.041063,172.336809 L99.5973478,173.219219 L108.862648,167.378228 Z M104.791849,160.144991 L104.306183,159.22183 L94.6129864,164.32133 L95.0986531,165.244491 L104.791849,160.144991 Z M100.319554,159.225843 C100.930944,158.96313 101.409349,158.631404 101.754783,158.230655 C102.100216,157.829907 102.328367,157.38663 102.439242,156.900812 C102.550117,156.414993 102.551662,155.891314 102.443877,155.32976 C102.336093,154.768205 102.141513,154.19764 101.860134,153.618049 C101.578754,153.038457 101.284676,152.567353 100.977893,152.204722 C100.671109,151.842091 100.362211,151.562912 100.05119,151.367177 C99.7401688,151.171442 99.4397839,151.04444 99.1500259,150.986168 C98.860268,150.927896 98.5906795,150.905308 98.3412522,150.918402 C98.091825,150.931496 97.8695331,150.971206 97.6743699,151.037533 C97.4792068,151.103861 97.3264283,151.163821 97.2160299,151.217417 C96.8112358,151.413937 96.4986265,151.64812 96.2781927,151.919975 C96.0577589,152.19183 95.9055916,152.493064 95.8216863,152.823687 C95.7377809,153.15431 95.703941,153.506095 95.7201655,153.879052 C95.73639,154.25201 95.7833628,154.635612 95.8610852,155.02987 L96.433407,157.719101 C96.4856672,157.94383 96.5162443,158.164871 96.5251392,158.382233 C96.5340341,158.599594 96.5144802,158.805185 96.4664771,158.999013 C96.4184739,159.19284 96.3283569,159.370164 96.1961233,159.53099 C96.0638897,159.691816 95.8827774,159.828057 95.6527807,159.939715 C95.2847861,160.118369 94.9430981,160.198991 94.6277066,160.181585 C94.3123151,160.164178 94.024012,160.079625 93.7627888,159.927923 C93.5015656,159.776221 93.2638799,159.567624 93.0497247,159.302126 C92.8355695,159.036628 92.6503337,158.742886 92.4940116,158.42089 C92.3242905,158.071296 92.2106865,157.714358 92.1531962,157.350066 C92.0957059,156.985774 92.1009637,156.633655 92.1689696,156.293698 C92.2369755,155.953742 92.3755436,155.642058 92.584678,155.358636 C92.7938124,155.075215 93.0825062,154.832748 93.4507679,154.631228 L92.9952031,153.692846 C92.4892105,153.938495 92.0922195,154.25059 91.8042184,154.629141 C91.5162172,155.007691 91.3249321,155.427387 91.2303575,155.888239 C91.1357828,156.349092 91.1312888,156.831572 91.2168752,157.335695 C91.3024616,157.839817 91.4636106,158.335667 91.7003268,158.82326 C92.0353027,159.51325 92.4088758,160.031021 92.8210575,160.376588 C93.2332391,160.722155 93.6433339,160.952205 94.0513542,161.066745 C94.4593746,161.181284 94.8467083,161.206392 95.213367,161.142069 C95.5800257,161.077745 95.8829488,160.987522 96.1221453,160.871397 C96.5085397,160.683811 96.8049826,160.46316 97.0114831,160.209438 C97.2179835,159.955716 97.3641004,159.682997 97.4498381,159.391273 C97.5355759,159.099549 97.5688814,158.793495 97.5497558,158.473103 C97.5306302,158.152711 97.486406,157.827456 97.4170819,157.49733 L96.8900535,155.041893 C96.8335941,154.785098 96.7910019,154.515892 96.7622756,154.234265 C96.7335494,153.952638 96.740172,153.679433 96.7821435,153.41464 C96.8241151,153.149848 96.9161502,152.906227 97.0582516,152.683769 C97.200353,152.461311 97.4093985,152.28309 97.6853945,152.1491 C98.0441892,151.974912 98.3925098,151.913806 98.7303667,151.965779 C99.0682235,152.017752 99.3812915,152.135754 99.6695799,152.319789 C99.9578684,152.503824 100.212503,152.729771 100.433491,152.997636 C100.65448,153.2655 100.8275,153.528227 100.952558,153.785823 C101.171408,154.236617 101.333159,154.681019 101.437813,155.119043 C101.542467,155.557068 101.56394,155.970102 101.502233,156.358157 C101.440525,156.746212 101.279674,157.105661 101.019673,157.436513 C100.759672,157.767365 100.374448,158.051012 99.8639892,158.287461 L100.319554,159.225843 Z M100.021961,149.367229 L99.6271018,148.319335 L95.9751773,148.285633 L94.2172429,143.620349 L96.9334054,141.170684 L96.5385463,140.122789 L87.8038037,148.004158 L88.2148899,149.095116 L100.021961,149.367229 Z M89.0016949,148.224887 L93.5090768,144.264231 L95.0290139,148.297908 L89.0016949,148.224887 Z M87.6258542,143.936803 L86.5745094,140.264682 L96.2488538,137.494874 L95.9617395,136.492045 L86.2873952,139.261853 L85.2360503,135.589732 L84.3806967,135.834623 L86.7705006,144.181695 L87.6258542,143.936803 Z M95.03091,131.640131 L94.8257827,130.617379 L84.086884,132.771214 L84.2920113,133.793967 L95.03091,131.640131 Z M89.1593367,129.832536 C89.8956772,129.70949 90.5865702,129.485172 91.2320365,129.159573 C91.8775027,128.833975 92.4245676,128.415955 92.8732476,127.905501 C93.3219276,127.395047 93.646571,126.793867 93.8471877,126.101942 C94.0478043,125.410017 94.0773191,124.640418 93.9357328,123.793122 C93.7941465,122.945826 93.5164381,122.230158 93.1025993,121.646095 C92.6887605,121.062033 92.1867154,120.601587 91.5964492,120.264745 C91.0061829,119.927903 90.3529299,119.71046 89.6366705,119.612411 C88.9204111,119.514362 88.194122,119.52686 87.4577815,119.649905 C86.721441,119.77295 86.0305479,119.997269 85.3850817,120.322867 C84.7396154,120.648466 84.1925505,121.066486 83.7438705,121.57694 C83.2951906,122.087394 82.9701257,122.686052 82.7686663,123.372934 C82.5672069,124.059815 82.5372708,124.826892 82.6788571,125.674188 C82.8204433,126.521484 83.0985731,127.239674 83.5132547,127.82878 C83.9279363,128.417886 84.4304027,128.880853 85.020669,129.217696 C85.6109352,129.554538 86.2641883,129.77198 86.9804477,129.870029 C87.6967071,129.968079 88.4229961,129.955581 89.1593367,129.832536 L89.1593367,129.832536 Z M88.9874113,128.803681 C88.4023736,128.901443 87.8118469,128.919768 87.2158135,128.858655 C86.6197801,128.797543 86.0699488,128.640581 85.5663033,128.387765 C85.0626578,128.134949 84.6316874,127.774087 84.2733791,127.305167 C83.9150709,126.836247 83.6760833,126.243713 83.5564092,125.527546 C83.4384206,124.821466 83.4726169,124.188465 83.6589989,123.628526 C83.8453809,123.068586 84.1356099,122.587209 84.5296947,122.184379 C84.9237794,121.781549 85.3927054,121.454349 85.9364867,121.202769 C86.4802681,120.951189 87.0446692,120.776521 87.6297068,120.678759 C88.2248314,120.579312 88.8178798,120.560566 89.4088698,120.622521 C89.9998598,120.684477 90.5471693,120.84186 91.0508149,121.094676 C91.5544604,121.347492 91.9854308,121.708354 92.343739,122.177274 C92.7020473,122.646194 92.9401921,123.233685 93.0581807,123.939765 C93.1778548,124.655931 93.1445013,125.293975 92.9581193,125.853915 C92.7717372,126.413854 92.4815082,126.895232 92.0874235,127.298062 C91.6933388,127.700891 91.2269345,128.02767 90.6881965,128.278407 C90.1494586,128.529144 89.5825359,128.704234 88.9874113,128.803681 L88.9874113,128.803681 Z M93.3199156,117.06806 L93.2600584,116.026659 L84.0099653,116.558331 L84.0082048,116.527702 L92.8921128,109.625104 L92.8252137,108.461185 L81.890501,109.089686 L81.9503581,110.131087 L91.2004512,109.599414 L91.2022117,109.630044 L82.3183037,116.532641 L82.3852029,117.69656 L93.3199156,117.06806 Z M89.7430195,106.657854 C90.4056599,106.718877 90.9843921,106.655773 91.4792335,106.468541 C91.9740749,106.281309 92.3861627,106.000719 92.7155092,105.626763 C93.0448558,105.252806 93.2962087,104.793389 93.4695755,104.248499 C93.6429423,103.703609 93.7443442,103.109368 93.7737842,102.465758 C93.8032242,101.822148 93.7697168,101.267803 93.6732609,100.802707 C93.5768051,100.337612 93.4386532,99.944836 93.2588013,99.6243682 C93.0789493,99.3039003 92.8756308,99.048906 92.6488398,98.8593774 C92.4220487,98.6698488 92.1959459,98.5213035 91.9705244,98.4137368 C91.745103,98.3061702 91.5308193,98.2349449 91.3276668,98.2000588 C91.1245143,98.1651727 90.9616443,98.1449261 90.8390519,98.1393185 C90.3895463,98.1187572 90.0030628,98.1752988 89.6795899,98.308945 C89.3561169,98.4425911 89.0786041,98.6346423 88.8470431,98.8851042 C88.6154821,99.1355662 88.4178111,99.4285234 88.2540239,99.7639847 C88.0902368,100.099446 87.9483865,100.45894 87.8284686,100.842476 L87.0475725,103.478707 C86.9862117,103.701123 86.9075581,103.909949 86.8116094,104.105189 C86.7156608,104.30043 86.6003332,104.471747 86.4656232,104.619147 C86.3309132,104.766546 86.1670763,104.879339 85.9741076,104.957531 C85.7811389,105.035722 85.5569574,105.068976 85.3015565,105.057293 C84.8929151,105.038601 84.5541877,104.946328 84.2853643,104.78047 C84.0165408,104.614612 83.8035745,104.402685 83.6464588,104.144682 C83.4893431,103.886678 83.3800704,103.589918 83.3186374,103.254392 C83.2572044,102.918866 83.2346661,102.572328 83.2510216,102.214767 C83.2687791,101.826557 83.3393519,101.458685 83.4627422,101.111138 C83.5861325,100.763592 83.758848,100.456696 83.9808938,100.190443 C84.2029397,99.9241897 84.4734916,99.7164642 84.7925575,99.5672603 C85.1116234,99.4180565 85.4810468,99.3428193 85.9008389,99.3415466 L85.9485034,98.2995162 C85.3866215,98.2738146 84.8887985,98.3585344 84.4550197,98.5536781 C84.0212409,98.7488218 83.6528043,99.02629 83.3496988,99.3860908 C83.0465932,99.7458917 82.8123165,100.1677 82.6468615,100.651527 C82.4814065,101.135355 82.386297,101.647986 82.36153,102.189435 C82.3264824,102.955638 82.4075645,103.588938 82.6047788,104.089355 C82.8019931,104.589772 83.0525196,104.987688 83.356366,105.283115 C83.6602123,105.578542 83.9885746,105.785511 84.3414629,105.904027 C84.6943511,106.022543 85.003599,106.087875 85.269216,106.100025 C85.6982895,106.119651 86.0641076,106.067283 86.3666812,105.942918 C86.6692548,105.818554 86.9278384,105.64867 87.1424397,105.433264 C87.3570411,105.217857 87.5324112,104.964829 87.6685554,104.674171 C87.8046996,104.383514 87.9211109,104.076602 88.0177928,103.753427 L88.7268788,101.344252 C88.7998576,101.091655 88.8909467,100.834772 89.0001488,100.573594 C89.109351,100.312416 89.2455938,100.075514 89.4088814,99.8628783 C89.5721689,99.6502431 89.7693404,99.4801101 90.0004017,99.3524742 C90.2314631,99.2248384 90.5002303,99.1680308 90.8067113,99.1820499 C91.2051367,99.2002746 91.5403755,99.3128631 91.8124378,99.5198185 C92.0845001,99.726774 92.3032592,99.9799154 92.4687217,100.27925 C92.6341842,100.578585 92.7500674,100.898681 92.8163748,101.239549 C92.8826821,101.580417 92.9092931,101.89387 92.8962087,102.179919 C92.8733109,102.680505 92.8032899,103.148216 92.6861436,103.583066 C92.5689973,104.017916 92.3906904,104.391098 92.1512176,104.702622 C91.9117448,105.014147 91.5988108,105.253205 91.212406,105.419803 C90.8260013,105.586402 90.3520986,105.651741 89.790684,105.615824 L89.7430195,106.657854 Z" id="RÉALISATIONS" transform="translate(104.579185, 147.766916) rotate(2.000000) translate(-104.579185, -147.766916) "></path>
                                </g>
                            </g>
                        </g>
                    </g>
                </g>
            </g>
        </g>
    </g>
</svg>