<?xml version="1.0" encoding="UTF-8" standalone="no"?>
<svg width="21px" height="22px" viewBox="0 0 21 22" version="1.1" xmlns="http://www.w3.org/2000/svg" xmlns:xlink="http://www.w3.org/1999/xlink">
  <g id="anchor" transform="translate(-110.000000, -853.000000)">
    <path d="M130.804701,868.135936 L130.148869,864.070716 C130.073086,863.690813 129.739332,863.401395 129.341691,863.401395 C129.098921,863.401395 128.885671,863.504149 128.729038,863.668466 L125.706968,866.48772 C125.65696,866.530442 125.608934,866.578423 125.565755,866.638454 C125.281789,867.023615 125.362639,867.569588 125.749926,867.857034 C125.823947,867.911807 125.904797,867.947737 125.985647,867.980163 L126.744579,868.231678 C126.013184,870.28565 124.226554,871.848421 122.032149,872.281343 L122.037216,858.935678 C123.112939,858.480409 123.85645,857.420888 123.85645,856.192011 C123.85645,854.543795 122.517469,853.211945 120.859935,853.211945 C119.20945,853.211945 117.865181,854.543576 117.865181,856.192011 C117.865181,857.420888 118.634468,858.480409 119.705124,858.935678 L119.710191,872.301937 C117.46754,871.90144 115.612177,870.323333 114.863599,868.231678 L115.627818,867.980163 C115.708668,867.947737 115.789518,867.911807 115.865301,867.857034 C116.252588,867.569588 116.338505,867.023396 116.047709,866.638454 C116.004751,866.578642 115.961572,866.530662 115.90826,866.48772 L112.884647,863.668685 C112.734843,863.504368 112.514543,863.401614 112.27706,863.401614 C111.874353,863.401614 111.535312,863.690813 111.464595,864.070935 L110.808763,868.136155 C110.793342,868.199472 110.788055,868.269581 110.788055,868.339909 C110.788055,868.820812 111.180409,869.211231 111.664187,869.211231 C111.755391,869.211231 111.841528,869.200934 111.922378,869.173547 L112.633285,868.94416 C113.762321,872.357148 116.994557,874.827172 120.806842,874.827172 C124.619128,874.827172 127.853127,872.356929 128.982162,868.938683 L129.691307,869.173109 C129.772157,869.200496 129.858294,869.210793 129.949498,869.210793 C130.434818,869.210793 130.827172,868.820593 130.827172,868.339471 C130.827172,868.269581 130.820122,868.199253 130.804701,868.135936 L130.804701,868.135936 Z" transform="translate(120.807614, 864.019558) scale(-1, 1) translate(-120.807614, -864.019558) "></path>
  </g>
</svg>