<?xml version="1.0" encoding="UTF-8" standalone="no"?>
<svg width="75px" height="31px" viewBox="0 0 75 31" version="1.1" xmlns="http://www.w3.org/2000/svg" xmlns:xlink="http://www.w3.org/1999/xlink">
    <!-- Generator: Sketch 3.7.2 (28276) - http://www.bohemiancoding.com/sketch -->
    <title>ARCHIVES</title>
    <desc>Created with Sketch.</desc>
    <defs></defs>
    <g id="General-page" stroke="none" stroke-width="1" fill="none" fill-rule="evenodd">
        <g id="header-slices" transform="translate(-670.000000, -89.000000)" fill="#000000">
            <path d="M732.831719,128.220967 L731.721597,128.368025 L730.861,131.917259 L725.918676,132.57197 L724.148436,129.371243 L723.038314,129.518301 L728.734665,139.812148 L729.890408,139.659047 L732.831719,128.220967 Z M729.221173,138.695468 L726.385281,133.407651 L730.65849,132.841578 L729.221173,138.695468 Z M722.009503,127.998717 L720.977816,127.844701 L720.259833,132.654185 L716.34549,132.069833 C715.856968,132.017585 715.487226,131.879669 715.236253,131.656081 C714.98528,131.432494 714.808737,131.160566 714.706618,130.84029 C714.6045,130.520014 714.559373,130.164306 714.571236,129.773155 C714.583098,129.382004 714.606849,128.997804 714.642488,128.620543 C714.648983,128.507772 714.661026,128.375151 714.678618,128.222677 C714.69621,128.070202 714.706594,127.914069 714.709769,127.754272 C714.712944,127.594476 714.707778,127.438606 714.694272,127.286659 C714.680765,127.134712 714.651218,127.003638 714.60563,126.893431 L713.467739,126.723562 C713.559371,126.871662 713.620316,127.069463 713.650577,127.316971 C713.680838,127.56448 713.691133,127.824514 713.681463,128.097082 C713.671793,128.369649 713.652386,128.638174 713.623242,128.902665 C713.594098,129.167155 713.570994,129.391184 713.553929,129.574757 C713.525839,129.901445 713.523905,130.208768 713.548127,130.496735 C713.572348,130.784702 713.641934,131.045833 713.756887,131.280135 C713.87184,131.514436 714.03544,131.717222 714.247692,131.888499 C714.459944,132.059776 714.739297,132.197123 715.085759,132.300545 L715.08123,132.330888 C714.362181,132.368306 713.78791,132.613453 713.358399,133.066336 C712.928889,133.519219 712.6628,134.089549 712.560122,134.777344 C712.487644,135.262846 712.513106,135.698338 712.636509,136.083831 C712.759911,136.469325 712.953813,136.798129 713.218221,137.070252 C713.482628,137.342375 713.806286,137.563885 714.189205,137.734789 C714.572123,137.905694 714.986098,138.024363 715.431142,138.090802 L720.392344,138.831433 L722.009503,127.998717 Z M719.492023,137.79745 L715.638367,137.222158 C714.85954,137.105891 714.304118,136.826517 713.972083,136.384027 C713.640048,135.941538 713.523861,135.386519 713.623519,134.718953 C713.673347,134.38517 713.780729,134.098759 713.945665,133.85971 C714.110602,133.620661 714.312861,133.425963 714.552448,133.275609 C714.792034,133.125254 715.0606,133.023174 715.358155,132.969364 C715.655709,132.915554 715.961258,132.912053 716.274812,132.958862 L720.128468,133.534153 L719.492023,137.79745 Z M700.885455,127.671498 C700.702647,128.218935 700.638482,128.74948 700.692958,129.26315 C700.747434,129.77682 700.891678,130.256937 701.125693,130.703516 C701.359709,131.150094 701.667252,131.549675 702.04833,131.902269 C702.429409,132.254863 702.855141,132.543798 703.325539,132.769084 C704.100312,133.140142 704.847897,133.325261 705.568318,133.324447 C706.288739,133.323633 706.956379,133.178488 707.57126,132.889007 C708.18614,132.599527 708.739505,132.189882 709.231369,131.660062 C709.723234,131.130241 710.130394,130.528682 710.452862,129.855368 C710.775329,129.182053 710.988798,128.487731 711.093277,127.772381 C711.197755,127.057032 711.170049,126.369098 711.010156,125.708559 C710.850264,125.04802 710.544841,124.436851 710.093879,123.875032 C709.642917,123.313214 709.030059,122.846782 708.255286,122.475724 C707.674207,122.197431 707.101997,122.036774 706.53864,121.99375 C705.975284,121.950726 705.435542,122.018223 704.919398,122.196244 C704.403255,122.374265 703.917449,122.654686 703.461965,123.037514 C703.006481,123.420342 702.60069,123.900663 702.24458,124.478492 L703.185371,124.92906 C703.443522,124.50842 703.747264,124.146474 704.096607,123.843211 C704.44595,123.539949 704.822826,123.309409 705.227245,123.151585 C705.631664,122.99376 706.060399,122.921289 706.513463,122.934169 C706.966527,122.947049 707.419027,123.061713 707.870978,123.278164 C708.525846,123.591796 709.028836,123.985766 709.379965,124.460085 C709.731095,124.934405 709.958251,125.448562 710.061442,126.002571 C710.164633,126.55658 710.164024,127.126068 710.059616,127.711053 C709.955208,128.296037 709.772695,128.860614 709.512071,129.404799 C709.255864,129.939761 708.931493,130.433564 708.538948,130.886222 C708.146403,131.33888 707.70197,131.698644 707.205634,131.965525 C706.709298,132.232406 706.166305,132.377719 705.576639,132.401468 C704.986972,132.425216 704.364714,132.280277 703.709847,131.966644 C703.350131,131.794367 703.031961,131.576789 702.755327,131.313903 C702.478692,131.051016 702.252923,130.752963 702.078012,130.419734 C701.903101,130.086506 701.792889,129.724737 701.747372,129.334418 C701.701854,128.944099 701.728145,128.539986 701.826246,128.122066 L700.885455,127.671498 Z M703.682058,118.315351 L702.924561,117.598205 L699.275553,121.452524 L694.55234,116.980907 L698.201349,113.126587 L697.443852,112.409441 L689.913818,120.363153 L690.671314,121.080299 L693.940657,117.627007 L698.663869,122.098624 L695.394527,125.551916 L696.152023,126.269062 L703.682058,118.315351 Z M697.355509,109.520224 L696.855795,108.60459 L687.241638,113.851584 L687.741352,114.767218 L697.355509,109.520224 Z M694.899084,103.846676 L694.42694,102.730574 L682.75586,103.253915 L683.186169,104.271123 L693.58848,103.701543 L693.600433,103.729799 L685.95927,110.826458 L686.395556,111.857793 L694.899084,103.846676 Z M693.884437,97.6404912 L692.839276,90.0730049 L691.957922,90.1947305 L692.860371,96.7289054 L688.575167,97.3207437 L687.739878,91.2728329 L686.858524,91.3945585 L687.693814,97.4424693 L683.773309,97.9839383 L682.881354,91.5257422 L682,91.6474678 L683.034668,99.1389753 L693.884437,97.6404912 Z M690.469192,88.6664481 C691.124861,88.7800892 691.706781,88.7633114 692.214971,88.6161141 C692.72316,88.4689168 693.1563,88.2220628 693.514404,87.8755447 C693.872507,87.5290266 694.159676,87.0911045 694.375919,86.5617652 C694.592162,86.0324259 694.740603,85.4481567 694.821245,84.8089402 C694.901887,84.1697238 694.912668,83.614472 694.853587,83.1431684 C694.794506,82.6718648 694.688098,82.2693278 694.53436,81.9355451 C694.380621,81.6017625 694.198273,81.3313748 693.987309,81.1243738 C693.776344,80.9173729 693.5628,80.7512796 693.346669,80.626089 C693.130537,80.5008984 692.922612,80.4128213 692.722886,80.3618548 C692.52316,80.3108884 692.362422,80.2777254 692.240667,80.262365 C691.79423,80.2060434 691.404469,80.2316024 691.071374,80.3390425 C690.738278,80.4464827 690.446342,80.6158051 690.195555,80.8470148 C689.944769,81.0782245 689.724378,81.3544954 689.534376,81.6758357 C689.344373,81.997176 689.174322,82.3442203 689.024218,82.7169791 L688.035698,85.2825866 C687.956806,85.4994048 687.861759,85.7012972 687.750555,85.8882696 C687.639351,86.075242 687.510736,86.2368228 687.364707,86.3730167 C687.218677,86.5092107 687.046372,86.6085876 686.847785,86.6711504 C686.649199,86.7337133 686.42308,86.748994 686.169423,86.7169931 C685.763571,86.6657917 685.433275,86.5468151 685.178526,86.3600597 C684.923776,86.1733044 684.728378,85.9450777 684.592325,85.675373 C684.456272,85.4056682 684.370999,85.101143 684.336503,84.7617882 C684.302007,84.4224334 684.307159,84.0752011 684.351961,83.7200808 C684.400602,83.3345216 684.50027,82.9734441 684.650967,82.6368374 C684.801665,82.3002306 684.99829,82.008077 685.24085,81.7603678 C685.48341,81.5126586 685.769657,81.327157 686.0996,81.2038574 C686.429542,81.0805578 686.803787,81.0350031 687.222345,81.067192 L687.352908,80.0322752 C686.794862,79.9618733 686.29187,80.006647 685.843918,80.1665977 C685.395966,80.3265484 685.006588,80.5737694 684.67577,80.9082681 C684.344953,81.2427668 684.077803,81.6445609 683.874313,82.1136625 C683.670823,82.5827641 683.535159,83.0861841 683.467318,83.6239376 C683.371315,84.3849096 683.401665,85.0226575 683.558369,85.5372003 C683.715072,86.0517432 683.933088,86.4683604 684.212422,86.7870646 C684.491756,87.1057688 684.802578,87.3382494 685.144898,87.4845136 C685.487218,87.6307778 685.790275,87.720549 686.054079,87.7538299 C686.480223,87.8075914 686.849051,87.7845455 687.160574,87.6846916 C687.472097,87.5848377 687.743398,87.4361041 687.974485,87.2384863 C688.205571,87.0408686 688.40055,86.8026222 688.559427,86.5237401 C688.718303,86.2448581 688.858805,85.9482009 688.980937,85.6337598 L689.879779,83.2887627 C689.972657,83.0427855 690.08393,82.7939791 690.213601,82.5423358 C690.343272,82.2906925 690.497962,82.0654018 690.677678,81.8664571 C690.857393,81.6675123 691.067497,81.5136351 691.307996,81.4048209 C691.548494,81.2960068 691.820934,81.2608007 692.125323,81.2992018 C692.521029,81.3491232 692.846228,81.4880721 693.10093,81.7160526 C693.355632,81.9440332 693.55352,82.2138044 693.694599,82.5253744 C693.835678,82.8369443 693.925681,83.1652584 693.96461,83.5103263 C694.00354,83.8553943 694.005084,84.1699717 693.969243,84.4540679 C693.906521,84.9512363 693.799446,85.4118787 693.648015,85.836009 C693.496583,86.2601392 693.289101,86.6179227 693.025561,86.9093702 C692.762022,87.2008177 692.43103,87.4141742 692.032577,87.5494461 C691.634123,87.6847181 691.156521,87.7120796 690.599755,87.6315313 L690.469192,88.6664481 Z" id="ARCHIVES" transform="translate(707.415859, 109.906074) rotate(127.000000) translate(-707.415859, -109.906074) "></path>
        </g>
    </g>
</svg>