<?xml version="1.0" encoding="UTF-8" standalone="no"?>
<svg width="366px" height="26px" viewBox="0 0 366 26" version="1.1" xmlns="http://www.w3.org/2000/svg" xmlns:xlink="http://www.w3.org/1999/xlink">
  <g id="General-page" stroke="none" stroke-width="1" fill="none" fill-rule="evenodd">
    <g id="header-slices" transform="translate(-54.000000, -774.000000)" fill="#2980B9">
      <g id="waves" transform="translate(0.000000, 774.000000)">
        <path d="M0,28.4020316 L0,12.0178186 C0,12.0178186 40.5,12.0178186 53.8333333,12.0178196 C67.1666667,12.0178206 70.9225352,0.099461726 83,0.099461726 C95.0774648,0.099461726 96.9671362,12.0178187 114.220657,12.0178192 C131.474178,12.0178196 132.049296,0.0994618222 145.276995,0.0994618222 C158.504695,0.0994618222 160.230047,12.0178192 176.333333,12.0178192 C192.43662,12.0178192 192.43662,0.099461726 206.239437,0.099461726 C220.042254,0.099461726 220.042254,12.0178196 237.295775,12.0178196 C254.549296,12.0178196 253.974178,0.0994617261 268.352113,0.099461726 C282.730047,0.099461726 283.967136,12.0178197 299.983568,12.0178192 C316,12.0178186 316.347418,0.0994617829 329,0.099461726 C341.652582,0.0994616691 343.5,12.0178186 359.220657,12.0178192 C375.5,12.0178198 376.474178,0.0994618297 390.276995,0.099461726 C404.079812,0.0994616224 404.079812,12.0178196 420.183099,12.0178196 C436.286385,12.0178196 459.580106,12.017819 473.401986,12.017819 C494.649341,12.017819 768,12.0178186 768,12.0178186 L768,28.4020316 L768,44.7862446 L0,44.7862446 L0,26.0178186 C0,26.0178186 40.5,26.0178186 53.8333333,26.0178196 C67.1666667,26.0178206 70.9225352,14.0994617 83,14.0994617 C95.0774648,14.0994617 96.9671362,26.0178187 114.220657,26.0178192 C131.474178,26.0178196 132.049296,14.0994618 145.276995,14.0994618 C158.504695,14.0994618 160.230047,26.0178192 176.333333,26.0178192 C192.43662,26.0178192 192.43662,14.0994617 206.239437,14.0994617 C220.042254,14.0994617 220.042254,26.0178196 237.295775,26.0178196 C254.549296,26.0178196 253.974178,14.0994617 268.352113,14.0994617 C282.730047,14.0994617 283.967136,26.0178197 299.983568,26.0178192 C316,26.0178186 316.347418,14.0994618 329,14.0994617 C341.652582,14.0994617 343.5,26.0178186 359.220657,26.0178192 C375.5,26.0178198 376.474178,14.0994618 390.276995,14.0994617 C404.079812,14.0994616 404.079812,26.0178196 420.183099,26.0178196 C436.286385,26.0178196 459.580106,26.017819 473.401986,26.017819 C494.649341,26.017819 768,26.0178186 768,26.0178186 L768,27.2099251 L768,28.4020316 L768,44.7862446 L0,44.7862446 L0,28.4020316 Z" id="Combined-Shape"></path>
      </g>
    </g>
  </g>
</svg>
