<?xml version="1.0" encoding="UTF-8" standalone="no"?>
<svg width="239px" height="147px" viewBox="0 0 239 147" version="1.1" xmlns="http://www.w3.org/2000/svg" xmlns:xlink="http://www.w3.org/1999/xlink">
    <!-- Generator: Sketch 3.7.2 (28276) - http://www.bohemiancoding.com/sketch -->
    <title>drips</title>
    <desc>Created with Sketch.</desc>
    <defs></defs>
    <g id="General-page" stroke="none" stroke-width="1" fill="none" fill-rule="evenodd">
        <g id="header-slices" transform="translate(-213.000000, -4.000000)" fill="#404040">
            <g id="drips" transform="translate(213.000000, 4.000000)">
                <path d="M188.214367,124.028158 C187.606111,127.663029 186.920976,130.388693 190.089134,129.449119 C192.901283,128.615125 190.089134,121.109179 190.089134,117.356206 L189.776673,53.9726642 L189.776673,0.712320726 L188.839289,117.356206 C188.839289,117.356206 188.685753,121.211208 188.214367,124.028158 Z" id="Path"></path>
                <path d="M224.975963,128.570296 C224.367706,132.466498 223.682572,135.388124 226.850729,134.380999 C229.662879,133.487044 226.850729,125.441456 226.850729,121.418661 L224.975963,0.712320726 L225.600885,53.4781324 L225.600885,121.418661 C225.600885,121.418661 225.447349,125.55082 224.975963,128.570296 Z" id="Path"></path>
                <path d="M153.843647,133.185739 C153.23539,137.295757 152.550256,140.377717 155.718413,139.315322 C158.530563,138.372309 155.718413,129.885194 155.718413,125.641637 L155.405952,53.9726642 L155.405952,16.2209791 L154.468569,125.641637 C154.468569,125.641637 154.315033,130.000561 153.843647,133.185739 Z" id="Path"></path>
                <path d="M179.918301,100.084508 C179.510359,101.544262 179.318588,106.88757 181.76624,106.887567 C185.437834,106.887563 181.419891,99.2647767 181.419891,95.5298203 C181.419891,94.5356329 181.419891,54.467196 181.419891,54.467196 L181.419891,0.712320726 L180.326243,95.9846131 C180.326243,95.9846131 180.326243,98.624754 179.918301,100.084508 Z" id="Path"></path>
                <path d="M111.44006,80.288316 C111.289049,81.1145918 111.218059,84.1391058 112.124129,84.1391044 C113.483277,84.1391021 111.995918,79.8243171 111.995918,77.7101909 C111.995918,77.1474433 111.995918,54.467196 111.995918,54.467196 L111.591072,8.73404059 L111.591072,77.9676208 C111.591072,77.9676208 111.591072,79.4620401 111.44006,80.288316 Z" id="Path"></path>
                <path d="M233.695255,85.45254 C233.997779,86.444071 234.139994,90.0734878 232.324846,90.073486 C229.602039,90.0734833 233.090206,85.2046572 233.090205,82.6677057 C233.090205,81.9924086 233.090205,54.467196 233.090205,54.467196 L233.39273,0.712320726 L233.39273,82.6677057 C233.39273,82.6677057 233.39273,84.461009 233.695255,85.45254 L233.695255,85.45254 Z" id="Path"></path>
                <path d="M235.84259,95.3932496 C235.540065,96.7028833 235.39785,101.496689 237.212998,101.496686 C239.935806,101.496683 236.447639,95.0658412 236.447639,91.7149856 C236.447639,90.8230398 236.145114,0.712320726 236.145114,0.712320726 L236.145114,54.467196 L236.145114,91.7149856 C236.145114,91.7149856 236.145114,94.0836159 235.84259,95.3932496 Z" id="Path"></path>
                <path d="M170.764339,67.7686395 C170.35504,68.1942857 169.227998,71.1343096 171.683794,71.1343088 C172.859019,71.1343084 173.428182,70.5181553 173.65837,69.6436236 C174.149719,67.7768856 173.096582,64.7328887 173.096582,63.9912605 C173.096582,63.7013677 173.096582,54.467196 173.096582,54.467196 L173.096582,0.712320726 C173.096582,0.712320726 172.29281,60.344739 172.29281,63.1975884 C172.29281,64.3800606 171.173639,67.3429933 170.764339,67.7686395 Z" id="Path"></path>
                <path d="M160.132674,62.7552376 C159.97599,63.0204549 159.544544,64.8523644 160.484653,64.8523639 C160.934543,64.8523637 161.152425,64.4684427 161.240544,63.9235278 C161.428638,62.7603757 161.025485,60.8636813 161.025485,60.4015777 C161.025485,60.2209474 161.025485,54.467196 161.025485,54.467196 L160.289359,0.712320726 C160.289359,0.712320726 160.717791,58.1294542 160.717791,59.9070459 C160.717791,60.6438365 160.289359,62.0103428 160.289359,62.0103428 C160.289359,62.0103428 160.289359,62.4900203 160.132674,62.7552376 Z" id="Path"></path>
                <path d="M90.7676539,68.9712688 C90.6103682,69.4353992 90.5364292,71.1343097 91.4801438,71.1343088 C92.8957602,71.1343076 91.3466056,69.0070881 91.3466056,67.8195548 C91.3466056,67.5034518 90.9249397,31.1948562 90.9249397,31.1948562 L90.9249397,54.467196 L90.9249397,63.8633003 L90.9249397,67.6677029 C90.9249397,67.6677029 90.9249397,68.5071385 90.7676539,68.9712688 Z" id="Path"></path>
                <path d="M106.287656,112.561184 C106.802899,114.420192 107.565243,122.084459 104.474794,120.734458 C101.289085,119.342844 105.257171,112.096432 105.257171,107.339937 C105.257171,106.073832 105.772414,6.06013397 105.772414,6.06013397 L105.772414,54.467196 L105.772414,107.339937 C105.772414,107.339937 105.772414,110.702177 106.287656,112.561184 L106.287656,112.561184 Z" id="Path"></path>
                <path d="M95.2757827,97.8006645 C95.6304834,99.1873355 95.9844913,102.503679 93.8569796,101.496686 C91.6638893,100.458654 94.5663812,97.4539968 94.5663811,93.906032 C94.5663811,92.9616189 94.5663811,54.467196 94.5663811,54.467196 L94.9210819,22.1035737 L94.9210819,93.906032 C94.9210819,93.906032 94.9210819,96.4139935 95.2757827,97.8006645 L95.2757827,97.8006645 Z" id="Path"></path>
                <path d="M16.360766,130.538468 C16.0483049,132.288228 15.7358438,135.202269 17.6106103,135.202266 C20.4228486,135.202261 16.9856881,130.101028 16.9856882,125.624054 C16.9856882,124.432354 16.6732271,0.712320726 16.6732271,0.712320726 L16.6732271,125.624054 C16.6732271,125.624054 16.6732271,128.788707 16.360766,130.538468 Z" id="Path"></path>
                <path d="M8.86169977,137.674925 C8.5492387,139.653052 8.23677756,142.947413 10.1115441,142.947409 C12.9237824,142.947404 9.4866219,137.180393 9.48662193,132.119116 C9.48662194,130.771883 9.17416086,0.712320726 9.17416086,0.712320726 L9.17416084,75.858449 L9.17416084,132.119116 C9.17416084,132.119116 9.17416084,135.696797 8.86169977,137.674925 Z" id="Path"></path>
                <path d="M11.9863107,116.904589 C11.3780542,119.059952 10.3804586,123.396108 13.5486162,122.838971 C16.3607661,122.344439 13.5486162,115.173728 13.5486161,112.948334 L13.2361551,0.712320726 L12.6112329,112.948334 C12.6112329,112.948334 12.4576968,115.234228 11.9863107,116.904589 Z" id="Path"></path>
                <path d="M3.00000003,128.500002 C2.99999989,134.000002 -2.69925949,146.982385 2.50366436,146.576497 C6.04955036,146.299878 3.67478316,132.410057 3.50000003,127.000002 C3.3252169,121.589948 4.17478309,0.712320726 4.17478309,0.712320726 C4.17478309,0.712320726 3.00000017,123.000002 3.00000003,128.500002 Z" id="Path"></path>
                <path d="M85.1022064,109.147215 C84.7897454,110.896975 84.4772842,113.811016 86.3520508,113.811013 C89.164289,113.811008 86.3520508,108.709775 86.3520508,104.232802 C86.3520508,103.041101 86.3520508,10.8731659 86.3520508,10.8731659 L85.4146675,104.232801 C85.4146675,104.232801 85.4146675,107.397454 85.1022064,109.147215 Z" id="Path"></path>
                <path d="M59.177889,80.0318801 C58.6931017,80.84995 56.7539525,87.1062952 59.6626762,87.1062952 C61.6676245,87.1062952 60.1474635,79.8273626 60.1474635,77.7342323 C60.1474635,77.1770735 60.1474635,54.467196 60.1474635,54.467196 L60.1474635,29.0557309 L59.6626763,77.7342322 C59.6626763,77.7342322 59.6626762,79.2138102 59.177889,80.0318801 Z" id="Path"></path>
                <path d="M52.638183,87.2752073 C52.2834822,88.3250636 50.8646791,91.0625458 52.9928838,91.0625496 C55.1059416,91.0625534 53.3475845,87.0127432 53.3475845,84.3265592 C53.3475845,83.6115388 53.3475845,54.467196 53.3475845,54.467196 L53.3475845,36.5426694 L52.9928838,84.3265591 C52.9928838,84.3265591 52.9928837,86.2253509 52.638183,87.2752073 Z" id="Path"></path>
                <path d="M46.3889611,87.2752073 C46.0342604,88.3250636 44.6154572,92.546147 46.7436619,92.5461451 C49.9360693,92.5461422 47.0983626,87.0127432 47.0983626,84.3265592 C47.0983627,83.6115388 46.7436619,39.216576 46.7436619,39.216576 L46.7436619,54.467196 L46.7436619,84.3265591 C46.7436619,84.3265591 46.7436619,86.2253509 46.3889611,87.2752073 Z" id="Path"></path>
                <path d="M77.6031402,116.283672 C77.2906791,118.261799 76.978218,121.55616 78.8529846,121.556156 C81.6652228,121.556151 78.2280623,115.78914 78.2280624,110.727863 C78.2280624,109.38063 78.2280623,54.467196 78.2280623,54.467196 L78.2280623,35.4731068 L77.9156013,110.727863 C77.9156013,110.727863 77.9156013,114.305545 77.6031402,116.283672 Z" id="Path"></path>
                <path d="M145.197126,138.885582 C148.5,138.000001 145,121.363653 145,115.500001 C145,105.197203 144.782275,53.9726642 144.782275,53.9726642 L144.782275,4.99057132 C144.782275,4.99057132 144.740836,100.09075 144,125.500001 C143.829531,131.34675 143.120652,139.442335 145.197126,138.885582 Z" id="Path"></path>
                <path d="M96.3508058,126.775432 C95.7425493,130.552848 95.0574147,133.3854 98.2255723,132.40898 C101.037722,131.54228 98.2255723,123.741984 98.2255723,119.841835 L96.3508057,13.0122912 L96.9757279,53.9726642 L96.975728,119.841835 C96.975728,119.841835 96.8221919,123.848014 96.3508058,126.775432 Z" id="Path"></path>
                <path d="M122.909999,82.6555089 C122.529498,84.1391044 121.766753,89.7418631 125.097226,87.1062952 C126.347071,86.1172316 124.278178,79.2720437 124.278178,77.8679957 L123.948952,54.467196 L123.290499,9.80360323 L123.290499,77.8679957 C123.290499,77.8679957 123.290499,81.1719135 122.909999,82.6555089 Z" id="Path"></path>
                <path d="M118.257592,106.260966 C117.616699,108.980695 116.565578,114.452242 119.903723,113.749222 C122.866758,113.125201 119.903723,104.076891 119.903723,101.268795 L118.257592,5.52535264 L118.916044,54.467196 L118.916044,101.268795 C118.916044,101.268795 118.75427,104.153233 118.257592,106.260966 Z" id="Path"></path>
                <path d="M176.375355,106.260966 C175.734463,108.980695 174.683341,114.452242 178.021486,113.749222 C180.984521,113.125201 178.021486,104.076891 178.021486,101.268795 L177.69226,54.467196 L177.69226,0.712320726 L177.033807,101.268795 C177.033807,101.268795 176.872033,104.153233 176.375355,106.260966 Z" id="Path"></path>
                <path d="M136.970748,95.5133359 C136.362491,97.6686986 135.364896,102.004855 138.533053,101.447718 C141.345203,100.953186 138.533053,93.7824746 138.533053,91.5570814 L138.220592,54.467196 L138.220592,0.712320726 L137.59567,91.5570814 C137.59567,91.5570814 137.442134,93.8429747 136.970748,95.5133359 Z" id="Path"></path>
                <path d="M80.7277511,95.5133359 C80.1194946,97.6686986 79.121899,102.004855 82.2900566,101.447718 C85.1022065,100.953186 82.2900566,93.7824746 82.2900566,91.5570814 L81.8122386,10.3383846 L81.3526733,54.467196 L81.3526733,91.5570814 C81.3526733,91.5570814 81.1991372,93.8429747 80.7277511,95.5133359 Z" id="Path"></path>
                <path d="M66.3545408,137.054008 C65.7462844,141.364733 65.0611498,144.597196 68.2293074,143.482921 C71.0414572,142.493857 68.2293074,133.592285 68.2293074,129.141499 L67.9168463,53.9726642 L68.2293073,25.847043 L66.979463,129.141499 C66.979463,129.141499 66.8259269,133.713285 66.3545408,137.054008 Z" id="Path"></path>
            </g>
        </g>
    </g>
</svg>