<?xml version="1.0" encoding="UTF-8" standalone="no"?>
<svg width="20px" height="20px" viewBox="0 0 20 20" version="1.1" xmlns="http://www.w3.org/2000/svg" xmlns:xlink="http://www.w3.org/1999/xlink">
  <!-- Generator: Sketch 3.7.2 (28276) - http://www.bohemiancoding.com/sketch -->
  <title>Shape</title>
  <desc>Created with Sketch.</desc>
  <defs></defs>
  <g id="Page-1" stroke="none" stroke-width="1" fill="none" fill-rule="evenodd">
    <g id="zoom-in" fill="#CC6055">
      <path d="M19.4497799,19.4497799 C18.7160684,20.1834132 17.5268878,20.1834132 16.7932154,19.4497799 L13.4782521,16.1347774 C12.1153995,17.00845 10.5043827,17.5300128 8.76496736,17.5300128 C3.92453412,17.5300128 0,13.6060256 0,8.76500642 C0,3.92398725 3.92453412,0 8.76496736,0 C13.6060256,0 17.5299738,3.92394819 17.5299738,8.76500642 C17.5299738,10.5044218 17.0084109,12.1154386 16.1347384,13.4788771 L19.4497408,16.7932545 C20.1834132,17.5269269 20.1834132,18.7160684 19.4497799,19.4497799 L19.4497799,19.4497799 Z M8.76496736,2.50429871 C5.30750389,2.50429871 2.50425965,5.30754295 2.50425965,8.76500642 C2.50425965,12.2230558 5.30750389,15.0257141 8.76496736,15.0257141 C12.2230558,15.0257141 15.0256751,12.2230558 15.0256751,8.76500642 C15.0256751,5.30754295 12.2230558,2.50429871 8.76496736,2.50429871 L8.76496736,2.50429871 Z M10.0171167,12.5214154 L7.51285707,12.5214154 L7.51285707,10.0171558 L5.00859742,10.0171558 L5.00859742,7.51289613 L7.51285707,7.51289613 L7.51285707,5.00859742 L10.0171167,5.00859742 L10.0171167,7.51289613 L12.5214154,7.51289613 L12.5214154,10.0171558 L10.0171167,10.0171558 L10.0171167,12.5214154 L10.0171167,12.5214154 Z" id="Shape"></path>
    </g>
  </g>
</svg>
